<svg width="1200" height="455" viewBox="0 0 1200 455" fill="none" xmlns="http://www.w3.org/2000/svg">
<g clip-path="url(#clip0_5274_1533)">
<rect width="1200" height="455" rx="15" fill="white"/>
<g clip-path="url(#clip1_5274_1533)">
<path d="M256.74 308.154L102.698 462.196L256.74 616.238L410.783 462.196L256.74 308.154Z" fill="url(#paint0_linear_5274_1533)"/>
<path d="M557.983 307.681L340.889 524.775L557.983 741.869L775.077 524.775L557.983 307.681Z" fill="url(#paint1_linear_5274_1533)"/>
<path d="M74.1609 -193.416L-229 109.745L74.1609 412.906L377.322 109.745L74.1609 -193.416Z" fill="url(#paint2_linear_5274_1533)"/>
<path d="M1078.38 -167.99L939.516 -29.1248L1078.38 109.741L1217.25 -29.1247L1078.38 -167.99Z" fill="url(#paint3_linear_5274_1533)"/>
<path d="M1256.35 150.002L958.2 448.154L1050.85 540.802L1349 242.65L1256.35 150.002Z" fill="url(#paint4_linear_5274_1533)"/>
<path d="M1078.39 109.364L939.524 248.229L1078.39 387.095L1217.26 248.229L1078.39 109.364Z" fill="url(#paint5_linear_5274_1533)"/>
<path d="M74.1535 264.215L-64.7122 403.08L74.1535 541.946L213.019 403.08L74.1535 264.215Z" fill="url(#paint6_linear_5274_1533)"/>
<path d="M-124.796 -323.031H-217.639V190.456L-217.061 191.034L86.1039 -112.131L-124.796 -323.031Z" fill="url(#paint7_linear_5274_1533)"/>
<path d="M-124.796 541.371H-217.639V27.884L-217.061 27.3062L86.1039 330.471L-124.796 541.371Z" fill="url(#paint8_linear_5274_1533)"/>
<g opacity="0.4">
<path d="M996.371 192.928L987.149 210.794L1007.22 209.846L996.371 192.928Z" fill="#8CC63F"/>
<path d="M480.502 455.116L478.618 435.101L462.232 446.738L480.502 455.116Z" fill="#FCEE21"/>
<path d="M1203.02 109.164L1185.63 119.253L1203.05 129.26L1203.02 109.164Z" fill="#FFD3D5"/>
<path d="M1056.48 437.798L1035.74 433.007L1041.96 453.357L1056.48 437.798Z" fill="#8CC63F"/>
<path d="M158.221 39.444L177.162 32.7068L161.862 19.6714L158.221 39.444Z" fill="#FFD3D5"/>
<path d="M1190.84 -6.80273L1170.25 11.5601L1196.44 20.2041L1190.84 -6.80273Z" fill="#FCEE21"/>
<path d="M11.8671 307.559L25.122 292.455L5.4187 288.515L11.8671 307.559Z" fill="#FCEE21"/>
<path d="M113.545 454.844L128.291 428.415L98.0255 428.866L113.545 454.844Z" fill="#FFD3D5"/>
<path d="M22 18.02L60.4705 4.81127L29.7889 -21.9066L22 18.02Z" fill="#29ABE2"/>
<path d="M979.66 369.652L959.749 366.844L967.272 385.484L979.66 369.652Z" fill="#FFD3D5"/>
<path d="M1049.25 225.569L1029.75 230.457L1043.74 244.891L1049.25 225.569Z" fill="#29ABE2"/>
<path d="M649.709 420.172L680.483 419.779L664.755 393.327L649.709 420.172Z" fill="#FFD3D5"/>
<path d="M261.126 415.168L287.774 371.475L236.604 370.25L261.126 415.168Z" fill="#8CC63F"/>
<path d="M7.34289 160.489L21.3952 146.113L1.92303 141.132L7.34289 160.489Z" fill="#29ABE2"/>
<path d="M869.333 441.84L846.666 447.939L863.286 464.523L869.333 441.84Z" fill="#29ABE2"/>
</g>
</g>
<rect x="1105" width="96" height="455" fill="url(#paint9_linear_5274_1533)"/>
<g filter="url(#filter0_d_5274_1533)">
<circle cx="1176" cy="228" r="24" fill="white" fill-opacity="0.9"/>
<path d="M1172 220L1179.29 227.293C1179.68 227.683 1179.68 228.317 1179.29 228.707L1172 236" stroke="#5F5F5F" stroke-width="2" stroke-linecap="round" stroke-linejoin="round"/>
</g>
<rect x="1104" width="96" height="455" fill="url(#paint10_linear_5274_1533)"/>
<g filter="url(#filter1_d_5274_1533)">
<circle cx="1175" cy="228" r="24" fill="white" fill-opacity="0.9"/>
<path d="M1171 220L1178.29 227.293C1178.68 227.683 1178.68 228.317 1178.29 228.707L1171 236" stroke="#5F5F5F" stroke-width="2" stroke-linecap="round" stroke-linejoin="round"/>
</g>
</g>
<defs>
<filter id="filter0_d_5274_1533" x="1142" y="199" width="68" height="68" filterUnits="userSpaceOnUse" color-interpolation-filters="sRGB">
<feFlood flood-opacity="0" result="BackgroundImageFix"/>
<feColorMatrix in="SourceAlpha" type="matrix" values="0 0 0 0 0 0 0 0 0 0 0 0 0 0 0 0 0 0 127 0" result="hardAlpha"/>
<feOffset dy="5"/>
<feGaussianBlur stdDeviation="5"/>
<feComposite in2="hardAlpha" operator="out"/>
<feColorMatrix type="matrix" values="0 0 0 0 0 0 0 0 0 0 0 0 0 0 0 0 0 0 0.1 0"/>
<feBlend mode="normal" in2="BackgroundImageFix" result="effect1_dropShadow_5274_1533"/>
<feBlend mode="normal" in="SourceGraphic" in2="effect1_dropShadow_5274_1533" result="shape"/>
</filter>
<filter id="filter1_d_5274_1533" x="1141" y="199" width="68" height="68" filterUnits="userSpaceOnUse" color-interpolation-filters="sRGB">
<feFlood flood-opacity="0" result="BackgroundImageFix"/>
<feColorMatrix in="SourceAlpha" type="matrix" values="0 0 0 0 0 0 0 0 0 0 0 0 0 0 0 0 0 0 127 0" result="hardAlpha"/>
<feOffset dy="5"/>
<feGaussianBlur stdDeviation="5"/>
<feComposite in2="hardAlpha" operator="out"/>
<feColorMatrix type="matrix" values="0 0 0 0 0 0 0 0 0 0 0 0 0 0 0 0 0 0 0.1 0"/>
<feBlend mode="normal" in2="BackgroundImageFix" result="effect1_dropShadow_5274_1533"/>
<feBlend mode="normal" in="SourceGraphic" in2="effect1_dropShadow_5274_1533" result="shape"/>
</filter>
<linearGradient id="paint0_linear_5274_1533" x1="179.719" y1="539.217" x2="333.761" y2="385.175" gradientUnits="userSpaceOnUse">
<stop stop-color="#FF8200" stop-opacity="0.1"/>
<stop offset="1" stop-color="#FF8200" stop-opacity="0"/>
</linearGradient>
<linearGradient id="paint1_linear_5274_1533" x1="449.436" y1="633.322" x2="666.53" y2="416.228" gradientUnits="userSpaceOnUse">
<stop stop-color="#FF8200" stop-opacity="0.1"/>
<stop offset="1" stop-color="#FF8200" stop-opacity="0"/>
</linearGradient>
<linearGradient id="paint2_linear_5274_1533" x1="-77.4196" y1="261.326" x2="225.741" y2="-41.8351" gradientUnits="userSpaceOnUse">
<stop stop-color="#FF8200" stop-opacity="0.1"/>
<stop offset="1" stop-color="#FF8200" stop-opacity="0"/>
</linearGradient>
<linearGradient id="paint3_linear_5274_1533" x1="1008.95" y1="40.3081" x2="1147.81" y2="-98.5575" gradientUnits="userSpaceOnUse">
<stop stop-color="#FF8200" stop-opacity="0.1"/>
<stop offset="1" stop-color="#FF8200" stop-opacity="0"/>
</linearGradient>
<linearGradient id="paint4_linear_5274_1533" x1="1004.52" y1="494.478" x2="1302.68" y2="196.326" gradientUnits="userSpaceOnUse">
<stop stop-color="#FF8200" stop-opacity="0.1"/>
<stop offset="1" stop-color="#FF8200" stop-opacity="0"/>
</linearGradient>
<linearGradient id="paint5_linear_5274_1533" x1="1008.96" y1="317.662" x2="1147.82" y2="178.796" gradientUnits="userSpaceOnUse">
<stop stop-color="#FF8200" stop-opacity="0.1"/>
<stop offset="1" stop-color="#FF8200" stop-opacity="0"/>
</linearGradient>
<linearGradient id="paint6_linear_5274_1533" x1="4.72069" y1="472.513" x2="143.586" y2="333.648" gradientUnits="userSpaceOnUse">
<stop stop-color="#FF8200" stop-opacity="0.1"/>
<stop offset="1" stop-color="#FF8200" stop-opacity="0"/>
</linearGradient>
<linearGradient id="paint7_linear_5274_1533" x1="-217.639" y1="-65.999" x2="86.1039" y2="-65.999" gradientUnits="userSpaceOnUse">
<stop stop-color="#FF8200" stop-opacity="0.1"/>
<stop offset="1" stop-color="#FF8200" stop-opacity="0"/>
</linearGradient>
<linearGradient id="paint8_linear_5274_1533" x1="-217.639" y1="284.339" x2="86.1039" y2="284.339" gradientUnits="userSpaceOnUse">
<stop stop-color="#FF8200" stop-opacity="0.1"/>
<stop offset="1" stop-color="#FF8200" stop-opacity="0"/>
</linearGradient>
<linearGradient id="paint9_linear_5274_1533" x1="1201" y1="226.333" x2="1105" y2="226.333" gradientUnits="userSpaceOnUse">
<stop stop-color="white"/>
<stop offset="1" stop-color="white" stop-opacity="0"/>
</linearGradient>
<linearGradient id="paint10_linear_5274_1533" x1="1200" y1="226.333" x2="1104" y2="226.333" gradientUnits="userSpaceOnUse">
<stop stop-color="white"/>
<stop offset="1" stop-color="white" stop-opacity="0"/>
</linearGradient>
<clipPath id="clip0_5274_1533">
<rect width="1200" height="455" rx="15" fill="white"/>
</clipPath>
<clipPath id="clip1_5274_1533">
<rect width="1201" height="455" rx="15" fill="white"/>
</clipPath>
</defs>
</svg>
