<svg width="80" height="76" viewBox="0 0 80 76" fill="none" xmlns="http://www.w3.org/2000/svg">
<path d="M39.9358 69.9516C57.4916 69.9516 71.7234 55.7198 71.7234 38.164C71.7234 20.6082 57.4916 6.37646 39.9358 6.37646C22.38 6.37646 8.14825 20.6082 8.14825 38.164C8.14825 55.7198 22.38 69.9516 39.9358 69.9516Z" fill="url(#paint0_radial_4632_4280)"/>
<path d="M39.9358 69.7128C57.3596 69.7128 71.4844 55.588 71.4844 38.1642C71.4844 20.7403 57.3596 6.61548 39.9358 6.61548C22.5119 6.61548 8.38708 20.7403 8.38708 38.1642C8.38708 55.588 22.5119 69.7128 39.9358 69.7128Z" fill="url(#paint1_radial_4632_4280)"/>
<path d="M39.9358 67.7316C56.2656 67.7316 69.5035 54.4937 69.5035 38.1639C69.5035 21.8341 56.2656 8.59619 39.9358 8.59619C23.606 8.59619 10.3681 21.8341 10.3681 38.1639C10.3681 54.4937 23.606 67.7316 39.9358 67.7316Z" fill="url(#paint2_radial_4632_4280)"/>
<g style="mix-blend-mode:multiply">
<path d="M39.9359 67.7318C56.2657 67.7318 69.5036 54.4939 69.5036 38.1641C69.5036 21.8343 56.2657 8.59644 39.9359 8.59644C23.6061 8.59644 10.3682 21.8343 10.3682 38.1641C10.3682 54.4939 23.6061 67.7318 39.9359 67.7318Z" fill="url(#paint3_radial_4632_4280)"/>
<path d="M39.9359 67.5476C56.1642 67.5476 69.3198 54.392 69.3198 38.1637C69.3198 21.9354 56.1642 8.77979 39.9359 8.77979C23.7076 8.77979 10.5519 21.9354 10.5519 38.1637C10.5519 54.392 23.7076 67.5476 39.9359 67.5476Z" fill="url(#paint4_radial_4632_4280)"/>
<path d="M39.9361 67.3603C56.0608 67.3603 69.1325 54.2885 69.1325 38.1638C69.1325 22.039 56.0608 8.96729 39.9361 8.96729C23.8113 8.96729 10.7396 22.039 10.7396 38.1638C10.7396 54.2885 23.8113 67.3603 39.9361 67.3603Z" fill="url(#paint5_radial_4632_4280)"/>
<path d="M39.9358 67.1763C55.959 67.1763 68.9485 54.1869 68.9485 38.1636C68.9485 22.1403 55.959 9.15088 39.9358 9.15088C23.9125 9.15088 10.923 22.1403 10.923 38.1636C10.923 54.1869 23.9125 67.1763 39.9358 67.1763Z" fill="url(#paint6_radial_4632_4280)"/>
<path d="M39.9359 66.9929C55.8577 66.9929 68.7649 54.0857 68.7649 38.1639C68.7649 22.2421 55.8577 9.33496 39.9359 9.33496C24.0141 9.33496 11.1069 22.2421 11.1069 38.1639C11.1069 54.0857 24.0141 66.9929 39.9359 66.9929Z" fill="url(#paint7_radial_4632_4280)"/>
<path d="M39.9359 66.8055C55.7542 66.8055 68.5774 53.9823 68.5774 38.164C68.5774 22.3457 55.7542 9.52246 39.9359 9.52246C24.1176 9.52246 11.2944 22.3457 11.2944 38.164C11.2944 53.9823 24.1176 66.8055 39.9359 66.8055Z" fill="url(#paint8_radial_4632_4280)"/>
<path d="M39.9359 66.6218C55.6527 66.6218 68.3937 53.8808 68.3937 38.1641C68.3937 22.4473 55.6527 9.7063 39.9359 9.7063C24.2191 9.7063 11.4781 22.4473 11.4781 38.1641C11.4781 53.8808 24.2191 66.6218 39.9359 66.6218Z" fill="url(#paint9_radial_4632_4280)"/>
<path d="M39.9357 66.4381C55.551 66.4381 68.2097 53.7794 68.2097 38.1641C68.2097 22.5488 55.551 9.89014 39.9357 9.89014C24.3204 9.89014 11.6617 22.5488 11.6617 38.1641C11.6617 53.7794 24.3204 66.4381 39.9357 66.4381Z" fill="url(#paint10_radial_4632_4280)"/>
<path d="M39.9359 66.2507C55.4477 66.2507 68.0225 53.676 68.0225 38.1642C68.0225 22.6524 55.4477 10.0776 39.9359 10.0776C24.4241 10.0776 11.8494 22.6524 11.8494 38.1642C11.8494 53.676 24.4241 66.2507 39.9359 66.2507Z" fill="url(#paint11_radial_4632_4280)"/>
<path d="M39.9359 66.0663C55.3461 66.0663 67.8387 53.5738 67.8387 38.1635C67.8387 22.7532 55.3461 10.2607 39.9359 10.2607C24.5256 10.2607 12.0331 22.7532 12.0331 38.1635C12.0331 53.5738 24.5256 66.0663 39.9359 66.0663Z" fill="url(#paint12_radial_4632_4280)"/>
<path d="M39.936 65.8831C55.2448 65.8831 67.655 53.4729 67.655 38.1641C67.655 22.8553 55.2448 10.4451 39.936 10.4451C24.6272 10.4451 12.217 22.8553 12.217 38.1641C12.217 53.4729 24.6272 65.8831 39.936 65.8831Z" fill="url(#paint13_radial_4632_4280)"/>
<path d="M39.9358 65.695C55.141 65.695 67.4673 53.3687 67.4673 38.1634C67.4673 22.9581 55.141 10.6318 39.9358 10.6318C24.7305 10.6318 12.4042 22.9581 12.4042 38.1634C12.4042 53.3687 24.7305 65.695 39.9358 65.695Z" fill="url(#paint14_radial_4632_4280)"/>
<path d="M39.9359 65.5118C55.0397 65.5118 67.2837 53.2678 67.2837 38.164C67.2837 23.0602 55.0397 10.8162 39.9359 10.8162C24.8321 10.8162 12.5881 23.0602 12.5881 38.164C12.5881 53.2678 24.8321 65.5118 39.9359 65.5118Z" fill="url(#paint15_radial_4632_4280)"/>
<path d="M39.9359 65.3281C54.9382 65.3281 67.1 53.1664 67.1 38.1641C67.1 23.1618 54.9382 11 39.9359 11C24.9336 11 12.7719 23.1618 12.7719 38.1641C12.7719 53.1664 24.9336 65.3281 39.9359 65.3281Z" fill="url(#paint16_radial_4632_4280)"/>
<path d="M39.936 65.1405C54.8347 65.1405 66.9126 53.0626 66.9126 38.1639C66.9126 23.2651 54.8347 11.1873 39.936 11.1873C25.0372 11.1873 12.9594 23.2651 12.9594 38.1639C12.9594 53.0626 25.0372 65.1405 39.936 65.1405Z" fill="url(#paint17_radial_4632_4280)"/>
<path d="M39.9362 64.9573C54.7335 64.9573 66.729 52.9617 66.729 38.1644C66.729 23.3672 54.7335 11.3716 39.9362 11.3716C25.1389 11.3716 13.1433 23.3672 13.1433 38.1644C13.1433 52.9617 25.1389 64.9573 39.9362 64.9573Z" fill="url(#paint18_radial_4632_4280)"/>
<path d="M39.9357 64.7726C54.6315 64.7726 66.5448 52.8593 66.5448 38.1635C66.5448 23.4677 54.6315 11.5544 39.9357 11.5544C25.24 11.5544 13.3267 23.4677 13.3267 38.1635C13.3267 52.8593 25.24 64.7726 39.9357 64.7726Z" fill="url(#paint19_radial_4632_4280)"/>
<path d="M39.9358 64.5852C54.5281 64.5852 66.3575 52.7559 66.3575 38.1636C66.3575 23.5713 54.5281 11.7419 39.9358 11.7419C25.3435 11.7419 13.5142 23.5713 13.5142 38.1636C13.5142 52.7559 25.3435 64.5852 39.9358 64.5852Z" fill="url(#paint20_radial_4632_4280)"/>
<path d="M39.9359 64.402C54.4267 64.402 66.1738 52.6549 66.1738 38.1642C66.1738 23.6734 54.4267 11.9263 39.9359 11.9263C25.4452 11.9263 13.6981 23.6734 13.6981 38.1642C13.6981 52.6549 25.4452 64.402 39.9359 64.402Z" fill="url(#paint21_radial_4632_4280)"/>
<path d="M39.9356 64.2179C54.3249 64.2179 65.9898 52.553 65.9898 38.1637C65.9898 23.7744 54.3249 12.1096 39.9356 12.1096C25.5464 12.1096 13.8815 23.7744 13.8815 38.1637C13.8815 52.553 25.5464 64.2179 39.9356 64.2179Z" fill="url(#paint22_radial_4632_4280)"/>
<path d="M39.9357 64.0302C54.2215 64.0302 65.8024 52.4493 65.8024 38.1636C65.8024 23.8778 54.2215 12.2969 39.9357 12.2969C25.6499 12.2969 14.069 23.8778 14.069 38.1636C14.069 52.4493 25.6499 64.0302 39.9357 64.0302Z" fill="url(#paint23_radial_4632_4280)"/>
<path d="M39.9359 63.847C54.1202 63.847 65.6188 52.3484 65.6188 38.1641C65.6188 23.9798 54.1202 12.4812 39.9359 12.4812C25.7516 12.4812 14.253 23.9798 14.253 38.1641C14.253 52.3484 25.7516 63.847 39.9359 63.847Z" fill="white"/>
</g>
<path d="M27.4188 31.6299H29.8114C29.7795 32.3226 29.5927 32.9333 29.2509 33.4619C28.9091 33.9906 28.4351 34.403 27.829 34.6992C27.2274 34.9909 26.5165 35.1367 25.6962 35.1367C25.0308 35.1367 24.4361 35.0251 23.912 34.8018C23.3925 34.5785 22.9504 34.2572 22.5858 33.8379C22.2258 33.4186 21.9501 32.9105 21.7587 32.3135C21.5718 31.7165 21.4784 31.0443 21.4784 30.2969V29.7568C21.4784 29.0094 21.5764 28.3372 21.7723 27.7402C21.9729 27.1387 22.2554 26.6283 22.62 26.209C22.9891 25.7852 23.4312 25.4616 23.9462 25.2383C24.4611 25.015 25.0331 24.9033 25.662 24.9033C26.5279 24.9033 27.2593 25.0583 27.8563 25.3682C28.4533 25.6781 28.9159 26.1042 29.244 26.6465C29.5721 27.1842 29.7658 27.7972 29.8251 28.4854H27.4325C27.4234 28.1117 27.3596 27.7995 27.2411 27.5488C27.1226 27.2936 26.9358 27.1022 26.6805 26.9746C26.4253 26.847 26.0858 26.7832 25.662 26.7832C25.3658 26.7832 25.1083 26.8379 24.8895 26.9473C24.6708 27.0566 24.4885 27.2298 24.3427 27.4668C24.1968 27.7038 24.0874 28.0114 24.0145 28.3896C23.9462 28.7633 23.912 29.2145 23.912 29.7432V30.2969C23.912 30.8255 23.9439 31.2767 24.0077 31.6504C24.0715 32.0241 24.174 32.3294 24.3153 32.5664C24.4566 32.8034 24.6389 32.9788 24.8622 33.0928C25.09 33.2021 25.368 33.2568 25.6962 33.2568C26.0608 33.2568 26.3684 33.1999 26.619 33.0859C26.8697 32.9674 27.0634 32.7897 27.2001 32.5527C27.3368 32.3112 27.4097 32.0036 27.4188 31.6299ZM35.4439 27.1387L33.0172 35H30.44L34.0973 25.0469H35.731L35.4439 27.1387ZM37.4537 35L35.0201 27.1387L34.7057 25.0469H36.36L40.0377 35H37.4537ZM37.358 31.2881V33.1406H32.2516V31.2881H37.358ZM46.1761 32.3545C46.1761 32.1995 46.1533 32.0605 46.1077 31.9375C46.0622 31.8099 45.9778 31.6914 45.8548 31.582C45.7318 31.4727 45.554 31.3633 45.3216 31.2539C45.0937 31.14 44.793 31.0215 44.4193 30.8984C43.9818 30.7526 43.5602 30.5885 43.1546 30.4062C42.749 30.2194 42.3867 30.0029 42.0677 29.7568C41.7487 29.5062 41.4957 29.2145 41.3089 28.8818C41.1221 28.5446 41.0286 28.1527 41.0286 27.7061C41.0286 27.2777 41.1243 26.8926 41.3157 26.5508C41.5071 26.2044 41.7737 25.9105 42.1155 25.6689C42.4619 25.4229 42.8675 25.236 43.3323 25.1084C43.7972 24.9762 44.3053 24.9102 44.8568 24.9102C45.5859 24.9102 46.2285 25.0378 46.7845 25.293C47.345 25.5436 47.7825 25.9014 48.097 26.3662C48.416 26.8265 48.5755 27.3711 48.5755 28H46.1898C46.1898 27.7493 46.1374 27.5283 46.0325 27.3369C45.9323 27.1455 45.7796 26.9951 45.5745 26.8857C45.3694 26.7764 45.112 26.7217 44.8021 26.7217C44.5013 26.7217 44.2484 26.7673 44.0433 26.8584C43.8382 26.9495 43.6832 27.0726 43.5784 27.2275C43.4736 27.3779 43.4212 27.5443 43.4212 27.7266C43.4212 27.877 43.4622 28.0137 43.5443 28.1367C43.6308 28.2552 43.7516 28.3669 43.9066 28.4717C44.0661 28.5765 44.2575 28.6768 44.4808 28.7725C44.7086 28.8682 44.9638 28.9616 45.2464 29.0527C45.775 29.2214 46.2444 29.4105 46.6546 29.6201C47.0693 29.8252 47.418 30.0599 47.7005 30.3242C47.9876 30.584 48.2041 30.8802 48.3499 31.2129C48.5003 31.5456 48.5755 31.9215 48.5755 32.3408C48.5755 32.7874 48.4889 33.1839 48.3157 33.5303C48.1426 33.8766 47.8942 34.1706 47.5706 34.4121C47.2471 34.6491 46.8597 34.8291 46.4085 34.9521C45.9573 35.0752 45.4538 35.1367 44.8978 35.1367C44.3874 35.1367 43.8838 35.0729 43.387 34.9453C42.8948 34.8132 42.4482 34.6126 42.0472 34.3438C41.6461 34.0703 41.3249 33.7217 41.0833 33.2979C40.8463 32.8695 40.7278 32.3613 40.7278 31.7734H43.1341C43.1341 32.0651 43.1728 32.3112 43.2503 32.5117C43.3278 32.7122 43.4417 32.874 43.5921 32.9971C43.7425 33.1156 43.9271 33.2021 44.1458 33.2568C44.3646 33.307 44.6152 33.332 44.8978 33.332C45.2031 33.332 45.4492 33.2887 45.636 33.2021C45.8229 33.111 45.9596 32.9925 46.0462 32.8467C46.1328 32.6963 46.1761 32.5322 46.1761 32.3545ZM56.7989 28.998V30.8438H51.6924V28.998H56.7989ZM52.4922 25.0469V35H50.0928V25.0469H52.4922ZM58.4121 25.0469V35H56.0196V25.0469H58.4121Z" fill="#FEFFFF"/>
<path d="M25.8192 46.7686H23.2557L23.2421 45.1963H25.3202C25.6939 45.1963 25.9924 45.1553 26.2157 45.0732C26.439 44.9867 26.6008 44.8613 26.701 44.6973C26.8059 44.5332 26.8583 44.3281 26.8583 44.082C26.8583 43.7995 26.8059 43.5716 26.701 43.3984C26.5962 43.2253 26.4299 43.0999 26.202 43.0225C25.9787 42.9404 25.6893 42.8994 25.3339 42.8994H24.1581V51H21.7587V41.0469H25.3339C25.9491 41.0469 26.4983 41.1038 26.9813 41.2178C27.4644 41.3271 27.8746 41.4958 28.2118 41.7236C28.5536 41.9515 28.8134 42.2386 28.9911 42.585C29.1688 42.9268 29.2577 43.3301 29.2577 43.7949C29.2577 44.2005 29.1711 44.5811 28.9979 44.9365C28.8247 45.292 28.5354 45.5814 28.1298 45.8047C27.7287 46.0234 27.1796 46.1374 26.4823 46.1465L25.8192 46.7686ZM25.7235 51H22.6747L23.495 49.1543H25.7235C26.0516 49.1543 26.3137 49.1042 26.5096 49.0039C26.7102 48.8991 26.8537 48.7624 26.9403 48.5938C27.0315 48.4206 27.077 48.2292 27.077 48.0195C27.077 47.7643 27.0337 47.5433 26.9471 47.3564C26.8651 47.1696 26.733 47.026 26.5507 46.9258C26.3684 46.821 26.1246 46.7686 25.8192 46.7686H23.8026L23.8163 45.1963H26.2294L26.7899 45.8252C27.4553 45.7979 27.9816 45.8913 28.369 46.1055C28.7609 46.3197 29.0412 46.6022 29.2098 46.9531C29.3785 47.304 29.4628 47.6709 29.4628 48.0537C29.4628 48.7054 29.3215 49.25 29.0389 49.6875C28.7609 50.125 28.344 50.4531 27.788 50.6719C27.232 50.8906 26.5438 51 25.7235 51ZM35.2935 43.1387L32.8668 51H30.2896L33.9469 41.0469H35.5807L35.2935 43.1387ZM37.3033 51L34.8697 43.1387L34.5553 41.0469H36.2096L39.8873 51H37.3033ZM37.2076 47.2881V49.1406H32.1012V47.2881H37.2076ZM46.4085 47.6299H48.8011C48.7692 48.3226 48.5823 48.9333 48.2405 49.4619C47.8987 49.9906 47.4248 50.403 46.8187 50.6992C46.2171 50.9909 45.5062 51.1367 44.6859 51.1367C44.0205 51.1367 43.4258 51.0251 42.9017 50.8018C42.3821 50.5785 41.9401 50.2572 41.5755 49.8379C41.2155 49.4186 40.9398 48.9105 40.7484 48.3135C40.5615 47.7165 40.4681 47.0443 40.4681 46.2969V45.7568C40.4681 45.0094 40.5661 44.3372 40.762 43.7402C40.9625 43.1387 41.2451 42.6283 41.6097 42.209C41.9788 41.7852 42.4209 41.4616 42.9359 41.2383C43.4508 41.015 44.0228 40.9033 44.6517 40.9033C45.5176 40.9033 46.249 41.0583 46.846 41.3682C47.443 41.6781 47.9056 42.1042 48.2337 42.6465C48.5618 43.1842 48.7555 43.7972 48.8148 44.4854H46.4222C46.4131 44.1117 46.3493 43.7995 46.2308 43.5488C46.1123 43.2936 45.9254 43.1022 45.6702 42.9746C45.415 42.847 45.0755 42.7832 44.6517 42.7832C44.3555 42.7832 44.098 42.8379 43.8792 42.9473C43.6605 43.0566 43.4782 43.2298 43.3323 43.4668C43.1865 43.7038 43.0771 44.0114 43.0042 44.3896C42.9359 44.7633 42.9017 45.2145 42.9017 45.7432V46.2969C42.9017 46.8255 42.9336 47.2767 42.9974 47.6504C43.0612 48.0241 43.1637 48.3294 43.305 48.5664C43.4463 48.8034 43.6286 48.9788 43.8519 49.0928C44.0797 49.2021 44.3577 49.2568 44.6859 49.2568C45.0504 49.2568 45.3581 49.1999 45.6087 49.0859C45.8594 48.9674 46.053 48.7897 46.1898 48.5527C46.3265 48.3112 46.3994 48.0036 46.4085 47.6299ZM52.6153 41.0469V51H50.2159V41.0469H52.6153ZM58.5557 41.0469L54.7002 46.0918L52.4444 48.5596L52.0069 46.3584L53.4493 44.1709L55.5957 41.0469H58.5557ZM55.7188 51L53.1485 46.5156L55.0147 45.1416L58.5557 51H55.7188Z" fill="#FEFFFF"/>
<path d="M64.1705 9.57809C61.7461 8.24835 59.1038 7.36217 56.3679 6.96128L57.702 3.20881C57.7668 3.0304 57.7832 2.83806 57.7497 2.65125C57.7161 2.46445 57.6338 2.28982 57.5111 2.14507C57.3883 2.00031 57.2295 1.89056 57.0507 1.82695C56.8719 1.76333 56.6794 1.7481 56.4929 1.7828L40.2812 4.72303C40.0947 4.75692 39.9205 4.83925 39.7759 4.96175C39.6313 5.08425 39.5215 5.24263 39.4574 5.42098C39.3934 5.59933 39.3774 5.79138 39.411 5.97788C39.4446 6.16437 39.5267 6.33874 39.649 6.48349L50.3073 19.0567C50.4299 19.2005 50.588 19.3096 50.7659 19.3733C50.9438 19.4369 51.1353 19.4528 51.3212 19.4193C51.5072 19.3858 51.6811 19.3042 51.8256 19.1825C51.9702 19.0608 52.0803 18.9034 52.145 18.7259L53.6592 14.4772C56.9745 15.2916 60.0714 16.8214 62.7327 18.9594C65.3941 21.0974 67.5555 23.7918 69.0652 26.8536C70.5749 29.9154 71.3964 33.2705 71.4721 36.6834C71.5478 40.0964 70.8759 43.4846 69.5034 46.6103C72.0671 44.0402 73.9972 40.9087 75.1411 37.4635C76.285 34.0183 76.6111 30.3542 76.0937 26.7612C75.5763 23.1681 74.2295 19.7449 72.16 16.7625C70.0906 13.78 67.3552 11.3203 64.1705 9.57809Z" fill="url(#paint24_linear_4632_4280)"/>
<path d="M64.8101 8.24742C62.385 6.91926 59.743 6.03319 57.0075 5.63061L58.3526 1.88182C58.417 1.70324 58.4332 1.51085 58.3996 1.32402C58.366 1.1372 58.2837 0.962518 58.1612 0.817577C58.0386 0.672635 57.88 0.562546 57.7013 0.498392C57.5226 0.434238 57.3302 0.418283 57.1434 0.452132L40.9318 3.37399C40.7446 3.4075 40.5697 3.48979 40.4245 3.61254C40.2794 3.73528 40.1692 3.89415 40.1051 4.07309C40.041 4.25204 40.0252 4.44473 40.0593 4.63173C40.0935 4.81872 40.1764 4.9934 40.2996 5.13812L50.9579 17.7113C51.0807 17.855 51.2391 17.964 51.4172 18.0274C51.5953 18.0908 51.7869 18.1063 51.9729 18.0724C52.1589 18.0386 52.3328 17.9565 52.4771 17.8345C52.6215 17.7124 52.7313 17.5546 52.7956 17.3768L54.3171 13.1392C57.6317 13.9544 60.7279 15.4848 63.3884 17.6232C66.0489 19.7616 68.2094 22.4561 69.7184 25.5178C71.2274 28.5795 72.0482 31.9343 72.1235 35.3468C72.1987 38.7593 71.5265 42.147 70.154 45.2723C72.7122 42.6997 74.6372 39.5676 75.7772 36.1233C76.9171 32.6791 77.2408 29.017 76.7225 25.4261C76.2042 21.8353 74.8583 18.4142 72.7909 15.4329C70.7235 12.4515 67.9913 9.99162 64.8101 8.24742Z" fill="url(#paint25_linear_4632_4280)"/>
<path d="M64.7184 8.5421C62.2931 7.21452 59.6511 6.32848 56.9158 5.92529L58.2609 2.1765C58.3253 1.99792 58.3415 1.80553 58.3079 1.6187C58.2743 1.43187 58.192 1.2572 58.0694 1.11225C57.9469 0.967313 57.7883 0.857224 57.6096 0.79307C57.4309 0.728916 57.2385 0.71296 57.0517 0.74681L40.84 3.68704C40.6563 3.72586 40.4854 3.811 40.3438 3.93437C40.2021 4.05774 40.0943 4.21525 40.0306 4.39197C39.967 4.56869 39.9495 4.75875 39.9798 4.94412C40.0102 5.12949 40.0875 5.30403 40.2042 5.45118L50.8626 18.0243C50.9885 18.1621 51.1473 18.2657 51.3242 18.3253C51.5011 18.3849 51.6902 18.3987 51.8739 18.3653C52.0575 18.3318 52.2297 18.2523 52.3742 18.1342C52.5187 18.0161 52.6309 17.8632 52.7002 17.6899L54.2218 13.4523C57.537 14.2666 60.6339 15.7964 63.2953 17.9344C65.9567 20.0724 68.118 22.7668 69.6277 25.8286C71.1375 28.8905 71.959 32.2455 72.0347 35.6585C72.1104 39.0714 71.4384 42.4596 70.0659 45.5853C72.6291 43.0132 74.5583 39.8798 75.701 36.4332C76.8438 32.9865 77.1686 29.3212 76.6498 25.7273C76.1309 22.1334 74.7828 18.7096 72.7119 15.7268C70.641 12.7441 67.9043 10.2843 64.7184 8.5421Z" fill="url(#paint26_radial_4632_4280)"/>
<path d="M17.2373 67.1693C19.7355 68.3545 22.425 69.085 25.1796 69.3267L24.0549 73.149C24.007 73.3317 24.0068 73.5237 24.0545 73.7066C24.1021 73.8894 24.1959 74.0569 24.3269 74.193C24.4579 74.3292 24.6216 74.4294 24.8025 74.4841C24.9833 74.5387 25.1752 74.546 25.3596 74.5052L41.3618 70.6314C41.5463 70.5872 41.7158 70.4951 41.8532 70.3644C41.9907 70.2337 42.0911 70.069 42.1445 69.887C42.1978 69.705 42.2021 69.5121 42.157 69.3279C42.1119 69.1436 42.0189 68.9746 41.8874 68.8379L30.5234 56.9042C30.3931 56.7621 30.2272 56.6574 30.0428 56.601C29.8584 56.5447 29.6622 56.5387 29.4747 56.5837C29.2872 56.6287 29.1152 56.723 28.9765 56.8569C28.8377 56.9909 28.7374 57.1595 28.6858 57.3453L27.4362 61.6637C24.0786 61.0453 20.8971 59.6996 18.1148 57.721C15.3326 55.7425 13.017 53.179 11.3307 50.2105C9.64436 47.242 8.62811 43.9404 8.35326 40.5375C8.07841 37.1345 8.55161 33.7126 9.73966 30.512C7.3316 33.2284 5.58887 36.4681 4.64942 39.9745C3.70997 43.481 3.59958 47.1579 4.327 50.7144C5.05441 54.2709 6.59966 57.6093 8.84044 60.4653C11.0812 63.3213 13.956 65.6165 17.2373 67.1693Z" fill="url(#paint27_linear_4632_4280)"/>
<path d="M16.6785 68.5367C19.1786 69.72 21.8691 70.4492 24.6245 70.6905L23.4999 74.5127C23.4462 74.6947 23.4413 74.8876 23.4858 75.072C23.5303 75.2564 23.6226 75.4259 23.7533 75.5633C23.8841 75.7008 24.0487 75.8014 24.2307 75.855C24.4126 75.9087 24.6055 75.9135 24.7899 75.8689L40.7958 71.9952C40.9766 71.9453 41.1417 71.8501 41.2755 71.7186C41.4092 71.5871 41.5073 71.4237 41.5602 71.2438C41.6132 71.0638 41.6194 70.8734 41.5783 70.6903C41.5371 70.5074 41.45 70.3379 41.325 70.198L29.9647 58.268C29.8344 58.1258 29.6685 58.0212 29.4841 57.9648C29.2997 57.9084 29.1035 57.9024 28.916 57.9474C28.7285 57.9924 28.5565 58.0868 28.4178 58.2207C28.279 58.3546 28.1787 58.5232 28.1271 58.709L26.8554 63.0275C24.856 62.6614 22.9134 62.0337 21.0779 61.1604C15.7918 58.6515 11.6382 54.2521 9.43709 48.8306C7.23597 43.4092 7.1472 37.3595 9.1883 31.8757C6.78024 34.5925 5.03753 37.8324 4.09809 41.3392C3.15865 44.8459 3.04825 48.5231 3.77565 52.0799C4.50304 55.6366 6.04826 58.9752 8.28902 61.8316C10.5298 64.6879 13.4046 66.9835 16.6859 68.5367H16.6785Z" fill="url(#paint28_linear_4632_4280)"/>
<path d="M16.752 68.2354C19.2503 69.4206 21.9398 70.1512 24.6943 70.3928L23.5697 74.2151C23.5225 74.3968 23.5225 74.5875 23.5696 74.7692C23.6168 74.9509 23.7095 75.1175 23.8391 75.2533C23.9686 75.3891 24.1307 75.4896 24.31 75.5453C24.4892 75.6009 24.6797 75.6099 24.8634 75.5713L40.8766 71.6939C41.0611 71.6491 41.2305 71.5565 41.3678 71.4254C41.5051 71.2943 41.6054 71.1294 41.6587 70.9472C41.712 70.7649 41.7164 70.5719 41.6713 70.3875C41.6263 70.2031 41.5335 70.0338 41.4022 69.8967L30.0419 57.9667C29.9085 57.831 29.7423 57.7322 29.5595 57.6798C29.3766 57.6274 29.1833 57.6232 28.9983 57.6676C28.8134 57.712 28.643 57.8035 28.5039 57.9331C28.3647 58.0628 28.2615 58.2263 28.2042 58.4077L26.9509 62.7299C23.5934 62.1115 20.4118 60.7658 17.6296 58.7872C14.8473 56.8086 12.5318 54.2451 10.8455 51.2766C9.15914 48.3082 8.14289 45.0066 7.86803 41.6036C7.59318 38.2007 8.06639 34.7788 9.25444 31.5781C6.84564 34.2942 5.10227 37.5339 4.16238 41.0405C3.22249 44.5471 3.11191 48.2243 3.83937 51.7811C4.56684 55.3378 6.11238 58.6764 8.35362 61.5323C10.5948 64.3883 13.4702 66.6832 16.752 68.2354Z" fill="url(#paint29_radial_4632_4280)"/>
<defs>
<radialGradient id="paint0_radial_4632_4280" cx="0" cy="0" r="1" gradientUnits="userSpaceOnUse" gradientTransform="translate(18.2112 17.3987) scale(61.8992)">
<stop stop-color="#FFFF08"/>
<stop offset="1" stop-color="#FFFE0F"/>
</radialGradient>
<radialGradient id="paint1_radial_4632_4280" cx="0" cy="0" r="1" gradientUnits="userSpaceOnUse" gradientTransform="translate(18.3765 17.5531) scale(61.4361 61.4361)">
<stop stop-color="#FEED03"/>
<stop offset="1" stop-color="#F08906"/>
</radialGradient>
<radialGradient id="paint2_radial_4632_4280" cx="0" cy="0" r="1" gradientUnits="userSpaceOnUse" gradientTransform="translate(19.7291 18.8502) scale(57.5771)">
<stop stop-color="#FCD702"/>
<stop offset="1" stop-color="#DE5C04"/>
</radialGradient>
<radialGradient id="paint3_radial_4632_4280" cx="0" cy="0" r="1" gradientUnits="userSpaceOnUse" gradientTransform="translate(19.7292 18.8505) scale(57.5771)">
<stop stop-color="#FCD702"/>
<stop offset="1" stop-color="#DE5C04"/>
</radialGradient>
<radialGradient id="paint4_radial_4632_4280" cx="0" cy="0" r="1" gradientUnits="userSpaceOnUse" gradientTransform="translate(19.8578 18.9677) scale(57.2169 57.2169)">
<stop stop-color="#FCD90E"/>
<stop offset="1" stop-color="#E06410"/>
</radialGradient>
<radialGradient id="paint5_radial_4632_4280" cx="0" cy="0" r="1" gradientUnits="userSpaceOnUse" gradientTransform="translate(19.9829 19.089) scale(56.8567)">
<stop stop-color="#FCDB1A"/>
<stop offset="1" stop-color="#E16C1C"/>
</radialGradient>
<radialGradient id="paint6_radial_4632_4280" cx="0" cy="0" r="1" gradientUnits="userSpaceOnUse" gradientTransform="translate(20.1076 19.2101) scale(56.4965)">
<stop stop-color="#FCDD26"/>
<stop offset="1" stop-color="#E37328"/>
</radialGradient>
<radialGradient id="paint7_radial_4632_4280" cx="0" cy="0" r="1" gradientUnits="userSpaceOnUse" gradientTransform="translate(20.2364 19.3317) scale(56.1364)">
<stop stop-color="#FDDF32"/>
<stop offset="1" stop-color="#E47B34"/>
</radialGradient>
<radialGradient id="paint8_radial_4632_4280" cx="0" cy="0" r="1" gradientUnits="userSpaceOnUse" gradientTransform="translate(20.3613 19.4531) scale(55.7762)">
<stop stop-color="#FDE13E"/>
<stop offset="1" stop-color="#E68340"/>
</radialGradient>
<radialGradient id="paint9_radial_4632_4280" cx="0" cy="0" r="1" gradientUnits="userSpaceOnUse" gradientTransform="translate(20.49 19.5744) scale(55.416 55.416)">
<stop stop-color="#FDE24A"/>
<stop offset="1" stop-color="#E78B4C"/>
</radialGradient>
<radialGradient id="paint10_radial_4632_4280" cx="0" cy="0" r="1" gradientUnits="userSpaceOnUse" gradientTransform="translate(20.6147 19.6958) scale(55.0558)">
<stop stop-color="#FDE456"/>
<stop offset="1" stop-color="#E99258"/>
</radialGradient>
<radialGradient id="paint11_radial_4632_4280" cx="0" cy="0" r="1" gradientUnits="userSpaceOnUse" gradientTransform="translate(20.7399 19.8172) scale(54.6956)">
<stop stop-color="#FDE662"/>
<stop offset="1" stop-color="#EB9A64"/>
</radialGradient>
<radialGradient id="paint12_radial_4632_4280" cx="0" cy="0" r="1" gradientUnits="userSpaceOnUse" gradientTransform="translate(20.8685 19.9341) scale(54.3355 54.3355)">
<stop stop-color="#FDE86E"/>
<stop offset="1" stop-color="#ECA270"/>
</radialGradient>
<radialGradient id="paint13_radial_4632_4280" cx="0" cy="0" r="1" gradientUnits="userSpaceOnUse" gradientTransform="translate(20.9936 20.0559) scale(53.9753)">
<stop stop-color="#FDEA7A"/>
<stop offset="1" stop-color="#EEAA7C"/>
</radialGradient>
<radialGradient id="paint14_radial_4632_4280" cx="0" cy="0" r="1" gradientUnits="userSpaceOnUse" gradientTransform="translate(21.122 20.1766) scale(53.6151)">
<stop stop-color="#FEEC87"/>
<stop offset="1" stop-color="#EFB187"/>
</radialGradient>
<radialGradient id="paint15_radial_4632_4280" cx="0" cy="0" r="1" gradientUnits="userSpaceOnUse" gradientTransform="translate(21.2471 20.2984) scale(53.2549)">
<stop stop-color="#FEEE93"/>
<stop offset="1" stop-color="#F1B993"/>
</radialGradient>
<radialGradient id="paint16_radial_4632_4280" cx="0" cy="0" r="1" gradientUnits="userSpaceOnUse" gradientTransform="translate(21.372 20.4198) scale(52.8947 52.8947)">
<stop stop-color="#FEF09F"/>
<stop offset="1" stop-color="#F2C19F"/>
</radialGradient>
<radialGradient id="paint17_radial_4632_4280" cx="0" cy="0" r="1" gradientUnits="userSpaceOnUse" gradientTransform="translate(21.5007 20.5409) scale(52.5346 52.5346)">
<stop stop-color="#FEF2AB"/>
<stop offset="1" stop-color="#F4C9AB"/>
</radialGradient>
<radialGradient id="paint18_radial_4632_4280" cx="0" cy="0" r="1" gradientUnits="userSpaceOnUse" gradientTransform="translate(21.6259 20.6627) scale(52.1744)">
<stop stop-color="#FEF4B7"/>
<stop offset="1" stop-color="#F6D0B7"/>
</radialGradient>
<radialGradient id="paint19_radial_4632_4280" cx="0" cy="0" r="1" gradientUnits="userSpaceOnUse" gradientTransform="translate(21.7504 20.7831) scale(51.8142 51.8142)">
<stop stop-color="#FEF5C3"/>
<stop offset="1" stop-color="#F7D8C3"/>
</radialGradient>
<radialGradient id="paint20_radial_4632_4280" cx="0" cy="0" r="1" gradientUnits="userSpaceOnUse" gradientTransform="translate(21.8791 20.9008) scale(51.454 51.454)">
<stop stop-color="#FEF7CF"/>
<stop offset="1" stop-color="#F9E0CF"/>
</radialGradient>
<radialGradient id="paint21_radial_4632_4280" cx="0" cy="0" r="1" gradientUnits="userSpaceOnUse" gradientTransform="translate(22.0042 21.0226) scale(51.0939)">
<stop stop-color="#FFF9DB"/>
<stop offset="1" stop-color="#FAE8DB"/>
</radialGradient>
<radialGradient id="paint22_radial_4632_4280" cx="0" cy="0" r="1" gradientUnits="userSpaceOnUse" gradientTransform="translate(22.1326 21.1435) scale(50.7337)">
<stop stop-color="#FFFBE7"/>
<stop offset="1" stop-color="#FCEFE7"/>
</radialGradient>
<radialGradient id="paint23_radial_4632_4280" cx="0" cy="0" r="1" gradientUnits="userSpaceOnUse" gradientTransform="translate(22.2576 21.2646) scale(50.3735)">
<stop stop-color="#FFFDF3"/>
<stop offset="1" stop-color="#FDF7F3"/>
</radialGradient>
<linearGradient id="paint24_linear_4632_4280" x1="40.2672" y1="25.2099" x2="76.0729" y2="23.609" gradientUnits="userSpaceOnUse">
<stop stop-color="#FF8107"/>
<stop offset="1" stop-color="#FF3907"/>
</linearGradient>
<linearGradient id="paint25_linear_4632_4280" x1="40.9068" y1="23.8787" x2="76.7124" y2="22.2778" gradientUnits="userSpaceOnUse">
<stop stop-color="#FFFC9D"/>
<stop offset="1" stop-color="#FFEC9C"/>
</linearGradient>
<radialGradient id="paint26_radial_4632_4280" cx="0" cy="0" r="1" gradientUnits="userSpaceOnUse" gradientTransform="translate(44.9049 -0.517489) scale(47.9221 47.9221)">
<stop stop-color="#FCD702"/>
<stop offset="1" stop-color="#DE5C04"/>
</radialGradient>
<linearGradient id="paint27_linear_4632_4280" x1="40.1893" y1="50.1845" x2="4.5384" y2="53.8749" gradientUnits="userSpaceOnUse">
<stop stop-color="#FF8107"/>
<stop offset="1" stop-color="#FF3907"/>
</linearGradient>
<linearGradient id="paint28_linear_4632_4280" x1="39.6282" y1="51.5471" x2="3.97732" y2="55.2376" gradientUnits="userSpaceOnUse">
<stop stop-color="#FFFC9D"/>
<stop offset="1" stop-color="#FFEC9C"/>
</linearGradient>
<radialGradient id="paint29_radial_4632_4280" cx="0" cy="0" r="1" gradientUnits="userSpaceOnUse" gradientTransform="translate(37.0598 76.1286) rotate(176.65) scale(47.9221 47.9221)">
<stop stop-color="#FCD702"/>
<stop offset="1" stop-color="#DE5C04"/>
</radialGradient>
</defs>
</svg>
