<svg width="70" height="70" viewBox="0 0 70 70" fill="none" xmlns="http://www.w3.org/2000/svg">
<path d="M21.75 2.1875H48C51.6094 2.1875 54.5625 5.14062 54.5625 8.75V61.25C54.5625 64.8594 51.6094 67.8125 48 67.8125H21.75C18.1406 67.8125 15.1875 64.8594 15.1875 61.25V8.75C15.1875 5.14062 18.1406 2.1875 21.75 2.1875Z" fill="white"/>
<path d="M48 70H21.75C16.9375 70 13 66.0625 13 61.25V8.75C13 3.9375 16.9375 0 21.75 0H48C52.8125 0 56.75 3.9375 56.75 8.75V61.25C56.75 66.0625 52.8125 70 48 70ZM21.75 4.375C19.3438 4.375 17.375 6.34375 17.375 8.75V61.25C17.375 63.6562 19.3438 65.625 21.75 65.625H48C50.4062 65.625 52.375 63.6562 52.375 61.25V8.75C52.375 6.34375 50.4062 4.375 48 4.375H21.75Z" fill="url(#paint0_linear_2281_3900)"/>
<path d="M40.3438 8.75H29.4062C27 8.75 25.0312 6.78125 25.0312 4.375H44.7188C44.7188 6.78125 42.75 8.75 40.3438 8.75Z" fill="url(#paint1_linear_2281_3900)"/>
<path d="M45.8125 61.25H23.9375C23.2812 61.25 22.8438 60.8125 22.8438 60.1562C22.8438 59.5 23.2812 59.0625 23.9375 59.0625H45.8125C46.4688 59.0625 46.9062 59.5 46.9062 60.1562C46.9062 60.8125 46.4688 61.25 45.8125 61.25Z" fill="url(#paint2_linear_2281_3900)"/>
<path d="M36.5958 40.998C41.5122 41.2717 45.2182 42.4945 45.2182 43.9611C45.2182 45.6281 40.4211 46.9811 34.5002 46.9811C28.5812 46.9811 23.7822 45.6281 23.7822 43.9611C23.7822 42.5115 27.4029 41.3016 32.2328 41.0074L36.5958 40.998Z" fill="#BDC3C7"/>
<path d="M34.4052 20.9727C39.0437 20.9727 42.8042 24.6119 42.8042 29.102C42.8042 31.6361 39.2653 36.9295 36.5957 40.9982C35.7202 42.333 34.938 43.5359 34.4052 44.4664C33.8899 43.5676 33.1113 42.3611 32.2327 41.0076C29.5771 36.9184 26.0049 31.482 26.0049 29.102C26.0049 24.6119 29.7654 20.9727 34.4052 20.9727ZM38.1579 28.7955C38.1579 26.7939 36.4722 25.1621 34.4052 25.1621C32.3369 25.1621 30.6512 26.7939 30.6512 28.7955C30.6512 30.7959 32.3369 32.4271 34.4052 32.4271C36.4722 32.4271 38.1579 30.7959 38.1579 28.7955Z" fill="#E74C3C"/>
<defs>
<linearGradient id="paint0_linear_2281_3900" x1="13" y1="35" x2="56.75" y2="35" gradientUnits="userSpaceOnUse">
<stop stop-color="#474F72"/>
<stop offset="1" stop-color="#525263"/>
</linearGradient>
<linearGradient id="paint1_linear_2281_3900" x1="25.0312" y1="6.5625" x2="44.7188" y2="6.5625" gradientUnits="userSpaceOnUse">
<stop stop-color="#474F72"/>
<stop offset="1" stop-color="#525263"/>
</linearGradient>
<linearGradient id="paint2_linear_2281_3900" x1="22.8438" y1="60.1563" x2="46.9062" y2="60.1563" gradientUnits="userSpaceOnUse">
<stop stop-color="#949AAF"/>
<stop offset="1" stop-color="#525263"/>
</linearGradient>
</defs>
</svg>
