<svg xmlns="http://www.w3.org/2000/svg" width="1905" height="320" viewBox="0 0 1905 320"><rect width="100%" height="100%" fill="#DDDDDD"/><path fill="#999999" d="M601.18 203.04h20.8v14.8h-64v-14.8h23.44V135.6q0-4 .24-8.24l-16.64 13.92q-1.44 1.12-2.84 1.4t-2.64.04-2.2-.84-1.44-1.32l-6.24-8.56 35.28-30h16.24zm57.2-66.16q0 9.68 5 14.76t14.2 5.08q4.8 0 8.56-1.52t6.32-4.16 3.88-6.24 1.32-7.76q0-4.72-1.44-8.44t-4.08-6.28-6.28-3.92-7.96-1.36q-4.48 0-8.08 1.48t-6.16 4.12-3.92 6.28-1.36 7.96m-9.68 80.96 35.92-44.88q1.36-1.68 2.56-3.28t2.32-3.2q-4 2.56-8.8 3.88t-10.08 1.32q-6 0-11.76-2.08t-10.24-6.28-7.24-10.4-2.76-14.52q0-7.76 2.88-14.56t8.08-11.92 12.48-8.08 16.08-2.96q8.88 0 15.96 2.8t12.08 7.84 7.68 12.08 2.68 15.44q0 5.36-.92 10.16t-2.6 9.24-4.08 8.68-5.36 8.4l-26.48 37.76q-1.36 1.92-4.08 3.24t-6.16 1.32zM813.58 160q0 15.12-3.24 26.28t-8.96 18.44-13.52 10.84-16.84 3.56-16.76-3.56-13.4-10.84-8.88-18.44-3.2-26.28q0-15.2 3.2-26.32t8.88-18.4 13.4-10.84 16.76-3.56 16.84 3.56 13.52 10.84 8.96 18.4 3.24 26.32m-20.4 0q0-12.56-1.84-20.8t-4.92-13.12-7.08-6.84-8.32-1.96q-4.24 0-8.2 1.96t-7 6.84-4.84 13.12-1.8 20.8 1.8 20.8 4.84 13.12 7 6.84 8.2 1.96q4.32 0 8.32-1.96t7.08-6.84 4.92-13.12 1.84-20.8m60.96-39.92-4.08 24.08q3.84-.8 7.36-1.16t6.8-.36q9.12 0 16.08 2.72t11.68 7.52 7.12 11.24 2.4 13.88q0 9.2-3.24 16.8t-9 13-13.64 8.36-17.16 2.96q-5.44 0-10.32-1.12t-9.16-3-7.92-4.32-6.52-5.16l6.08-8.4q1.92-2.72 5.04-2.72 2 0 4.08 1.28t4.76 2.8 6.32 2.8 8.76 1.28q5.44 0 9.6-1.76t6.92-4.92 4.16-7.52 1.4-9.48q0-9.44-5.48-14.76t-16.2-5.32q-8.24 0-16.88 3.04l-12.32-3.52 9.6-56.16h57.12v8.4q0 4.24-2.64 6.88t-8.96 2.64zm179.28 71.28-10.48 10.32-27.12-27.12-27.36 27.28-10.48-10.32 27.36-27.44L959.26 138l10.4-10.4 26.08 26.08 25.92-25.92 10.56 10.4-26 26zm66.56-55.12-10.4-1.84q1.2-8.32 4.64-14.6t8.6-10.48 11.84-6.32 14.36-2.12q8 0 14.44 2.28t11 6.32 7 9.48 2.44 11.76q0 5.52-1.24 9.72t-3.56 7.32-5.76 5.28-7.76 3.6q10.4 3.28 15.52 10t5.12 16.88q0 8.64-3.2 15.28t-8.64 11.16-12.6 6.84-15.16 2.32q-8.72 0-15.2-2t-11.28-5.92-8.16-9.6-5.76-13.12l8.72-3.6q3.44-1.44 6.44-.76t4.36 3.24q1.44 2.8 3.16 5.52t4.12 4.84 5.64 3.44 7.72 1.32q5.04 0 8.8-1.64t6.28-4.28 3.76-5.88 1.24-6.52q0-4.16-.88-7.56t-3.68-5.8-8.04-3.76-14.04-1.36V151.6q7.28-.08 12.08-1.36t7.64-3.56 3.96-5.48 1.12-7.04q0-8.16-4.56-12.4t-12.16-4.24q-3.52 0-6.48 1t-5.32 2.8-3.96 4.2-2.4 5.28q-1.36 3.68-3.56 4.88t-6.2.56m122.56 63.2h29.68q3.2 0 5.08 1.8t1.88 4.76v11.84h-79.36v-6.56q0-2 .84-4.2t2.68-3.96l35.12-35.2q4.4-4.48 7.88-8.56t5.8-8.08 3.56-8.12 1.24-8.68q0-4.16-1.2-7.32t-3.4-5.32-5.28-3.24-6.92-1.08q-3.52 0-6.52 1t-5.32 2.8-3.92 4.2-2.4 5.28q-1.36 3.68-3.52 4.88t-6.24.56l-10.4-1.84q1.2-8.32 4.64-14.6t8.6-10.48 11.84-6.32 14.36-2.12q8 0 14.64 2.36t11.36 6.68 7.36 10.4 2.64 13.52q0 6.4-1.88 11.84t-5.04 10.4-7.4 9.6-8.88 9.44l-26.08 26.64q3.76-1.12 7.48-1.72t7.08-.6m132.8-39.44q0 15.12-3.24 26.28t-8.96 18.44-13.52 10.84-16.84 3.56-16.76-3.56-13.4-10.84-8.88-18.44-3.2-26.28q0-15.2 3.2-26.32t8.88-18.4 13.4-10.84 16.76-3.56 16.84 3.56 13.52 10.84 8.96 18.4 3.24 26.32m-20.4 0q0-12.56-1.84-20.8t-4.92-13.12-7.08-6.84-8.32-1.96q-4.24 0-8.2 1.96t-7 6.84-4.84 13.12-1.8 20.8 1.8 20.8 4.84 13.12 7 6.84 8.2 1.96q4.32 0 8.32-1.96t7.08-6.84 4.92-13.12 1.84-20.8"/></svg>