<svg width="219" height="160" viewBox="0 0 219 160" fill="none" xmlns="http://www.w3.org/2000/svg">
<path d="M129.269 37.1658C129.299 37.0808 130.002 35.8816 130.911 34.5761C135.138 28.496 141.405 22.6362 148.755 22.8565L148.76 22.8114C145.438 22.4474 142.181 23.3311 139.323 24.9062C134.608 27.444 130.013 32.2807 127.5 35.9981L129.269 37.1658Z" fill="#F7CC7F"/>
<path d="M147.124 26.2178L147.621 22.7989L145.082 20.4507C145.017 20.3905 144.97 20.3134 144.947 20.228C144.923 20.1427 144.924 20.0525 144.95 19.9676C144.975 19.8828 145.023 19.8067 145.09 19.7479C145.156 19.6892 145.237 19.6501 145.325 19.6351L148.732 19.05L150.18 15.9134C150.217 15.8334 150.276 15.7653 150.35 15.7169C150.424 15.6685 150.51 15.6416 150.599 15.6393C150.687 15.637 150.775 15.6594 150.851 15.7039C150.928 15.7484 150.99 15.8133 151.032 15.8913L152.642 18.953L156.078 19.3621C156.167 19.3726 156.25 19.4075 156.319 19.4629C156.388 19.5183 156.441 19.5919 156.47 19.6754C156.5 19.759 156.505 19.8491 156.486 19.9356C156.467 20.0221 156.424 20.1016 156.362 20.165L153.947 22.639L154.619 26.029C154.637 26.1158 154.629 26.2058 154.598 26.2886C154.567 26.3715 154.513 26.4439 154.442 26.4978C154.372 26.5517 154.288 26.5849 154.2 26.5935C154.112 26.6022 154.023 26.5861 153.943 26.5469L150.839 25.0161L147.826 26.7051C147.749 26.7485 147.66 26.7692 147.571 26.7649C147.482 26.7605 147.396 26.7313 147.323 26.6805C147.25 26.6297 147.192 26.5594 147.157 26.4776C147.122 26.3958 147.11 26.3058 147.124 26.2178Z" fill="#F7CC7F"/>
<path d="M80.244 19.9591L79.7917 21.6345L81.1486 22.7725L80.5081 24.6146L82.3266 25.3826L81.6946 27.4969L83.2823 28.4103L83.0072 30.5442L82.1988 30.4404L82.4041 28.8449L80.7287 27.8813L81.3368 25.8487L79.4868 25.0679L80.1938 23.0353L78.8693 21.9237L79.2883 20.3707L78.2662 19.8222L78.6521 19.1052L80.244 19.9591Z" fill="#9BC1F9"/>
<path d="M41.9516 124.053C42.6534 124.835 43.1071 125.808 43.2554 126.847C43.4037 127.887 43.24 128.947 42.7849 129.894C42.3299 130.84 41.6039 131.631 40.6988 132.166C39.7937 132.7 38.7502 132.955 37.7001 132.898C36.65 132.84 35.6405 132.473 34.7993 131.843C33.9582 131.213 33.323 130.348 32.9742 129.357C32.6255 128.366 32.5787 127.295 32.8399 126.278C33.1011 125.26 33.6584 124.343 34.4415 123.643C34.9616 123.177 35.5684 122.818 36.2274 122.587C36.8863 122.356 37.5844 122.256 38.2818 122.295C38.9792 122.333 39.6623 122.508 40.2919 122.809C40.9216 123.111 41.4856 123.534 41.9516 124.053Z" fill="#F7CC7F"/>
<path d="M36.4364 130.118C36.9408 130.675 37.6452 131.009 38.3957 131.048C39.1463 131.087 39.8818 130.828 40.4415 130.327C41.0013 129.827 41.3397 129.125 41.3827 128.376C41.4258 127.627 41.1701 126.891 40.6714 126.329L36.4364 130.118Z" fill="#EFEFEF"/>
<path d="M176.496 154.114H49.0529C48.8929 154.114 48.7394 154.177 48.6261 154.29C48.5129 154.403 48.4492 154.556 48.449 154.716C48.449 154.795 48.4646 154.873 48.4949 154.946C48.5253 155.02 48.5698 155.086 48.6258 155.142C48.6819 155.198 48.7485 155.242 48.8218 155.273C48.895 155.303 48.9736 155.319 49.0529 155.319H176.496C176.576 155.319 176.654 155.303 176.727 155.273C176.801 155.242 176.867 155.198 176.923 155.142C176.979 155.086 177.024 155.02 177.054 154.946C177.085 154.873 177.1 154.795 177.1 154.716C177.1 154.556 177.036 154.403 176.923 154.29C176.81 154.177 176.656 154.114 176.496 154.114Z" fill="#184655" fill-opacity="0.1"/>
<path d="M36.1638 110.755L34.7746 109.967C34.4108 110.546 33.9717 111.075 33.4688 111.54C33.2862 111.705 33.0472 111.796 32.8003 111.792C32.5534 111.789 32.317 111.692 32.1392 111.521L32.0949 111.477C31.9984 111.385 31.9222 111.274 31.8709 111.15C31.8196 111.027 31.7944 110.895 31.7968 110.761C31.7992 110.628 31.8292 110.496 31.8849 110.375C31.9405 110.254 32.0207 110.145 32.1204 110.056C32.5872 109.647 32.9834 109.164 33.2933 108.627C33.766 107.795 33.7678 107.043 33.1826 106.711C32.6272 106.397 32.0105 106.665 31.031 107.539C29.617 108.804 28.2798 109.456 26.8616 108.652C25.5745 107.923 25.0796 106.447 25.6597 104.71L24.2705 103.929L25.083 102.497L26.3701 103.226C26.6413 102.785 26.9597 102.375 27.3198 102.002C27.4993 101.821 27.743 101.718 27.9981 101.715C28.2532 101.713 28.4991 101.81 28.6827 101.987C28.7765 102.077 28.8512 102.186 28.9022 102.306C28.9533 102.426 28.9795 102.554 28.9795 102.685C28.9795 102.815 28.9533 102.944 28.9022 103.064C28.8512 103.184 28.7765 103.292 28.6827 103.383C28.3233 103.73 28.0166 104.127 27.7721 104.562C27.2329 105.511 27.468 106.051 27.8777 106.282C28.3598 106.556 28.9578 106.218 30.1307 105.242C31.732 103.852 32.9347 103.606 34.2507 104.351C35.5531 105.089 36.1416 106.638 35.4807 108.483L36.9721 109.328L36.1638 110.755Z" fill="#FAE0B2"/>
<path d="M172.822 52.1667L171.902 54.4562L168.049 53.3855L166.291 56.5671L163.277 56.2363L163.109 57.7595L167.14 58.2026L168.807 55.1868L172.815 56.3009L174.199 52.8565L172.822 52.1667Z" fill="#466EB6"/>
<path d="M166.158 133.25L166.965 131.251C166.123 130.868 165.336 130.375 164.623 129.786C164.366 129.572 164.201 129.267 164.162 128.936C164.122 128.604 164.211 128.269 164.41 128L164.459 127.933C164.566 127.788 164.702 127.666 164.858 127.575C165.014 127.484 165.187 127.427 165.367 127.406C165.547 127.385 165.728 127.402 165.901 127.455C166.074 127.508 166.234 127.595 166.371 127.713C167.004 128.265 167.723 128.708 168.501 129.026C169.702 129.51 170.715 129.377 171.051 128.535C171.374 127.736 170.903 126.959 169.555 125.805C167.606 124.14 166.489 122.468 167.316 120.427C168.063 118.575 169.956 117.648 172.39 118.114L173.197 116.113L175.264 116.945L174.516 118.797C175.156 119.081 175.764 119.434 176.328 119.849C176.603 120.056 176.786 120.365 176.836 120.706C176.885 121.047 176.798 121.394 176.593 121.672C176.488 121.814 176.357 121.934 176.205 122.024C176.053 122.115 175.885 122.173 175.71 122.197C175.535 122.221 175.357 122.209 175.187 122.163C175.016 122.117 174.857 122.036 174.719 121.927C174.188 121.509 173.6 121.169 172.973 120.919C171.602 120.368 170.921 120.78 170.684 121.369C170.404 122.063 170.962 122.802 172.483 124.197C174.634 126.09 175.18 127.655 174.415 129.55C173.659 131.421 171.685 132.488 169.091 131.931L168.226 134.082L166.158 133.25Z" fill="#96D9C9"/>
<path d="M53.7155 64.0846C53.8147 64.2153 53.8653 64.3763 53.8586 64.5402C53.8519 64.704 53.7884 64.8605 53.6789 64.9827C53.0884 65.6175 52.3844 66.1367 51.6031 66.5135C50.2735 67.1607 48.7479 67.3547 47.3101 66.8597C46.4115 66.5501 45.5563 65.9242 44.9141 65.0643L44.1287 65.4462C44.0653 65.4771 43.9963 65.4952 43.9258 65.4995C43.8553 65.5038 43.7847 65.4942 43.7179 65.4712C43.6512 65.4482 43.5896 65.4123 43.5367 65.3656C43.4839 65.3188 43.4408 65.2621 43.4098 65.1987L43.3996 65.1783C43.3374 65.0504 43.3285 64.903 43.375 64.7686C43.4215 64.6342 43.5195 64.5236 43.6475 64.4613L44.2923 64.1475C44.1645 63.9357 44.0751 63.8073 44.0163 63.684C43.9037 63.4471 43.8092 63.202 43.7335 62.9509L43.0691 63.2741C43.0057 63.3051 42.9367 63.3233 42.8662 63.3276C42.7957 63.332 42.725 63.3224 42.6582 63.2994C42.5914 63.2764 42.5298 63.2405 42.477 63.1936C42.4241 63.1468 42.3811 63.09 42.3502 63.0266C42.3193 62.9632 42.3011 62.8943 42.2968 62.824C42.2925 62.7536 42.3022 62.683 42.3252 62.6164C42.3482 62.5497 42.3842 62.4882 42.431 62.4355C42.4778 62.3827 42.5346 62.3396 42.5981 62.3088L43.4039 61.9175C43.1739 60.8842 43.2148 59.8441 43.524 58.9468C44.0512 57.4219 45.2054 56.2627 46.5955 55.5866C47.2373 55.2635 47.9315 55.0567 48.6457 54.9759C48.8325 54.9562 49.0196 55.0097 49.1677 55.125C49.3158 55.2403 49.4132 55.4086 49.4396 55.5942V55.6061C49.4529 55.7011 49.4472 55.7977 49.4228 55.8905C49.3985 55.9832 49.356 56.0702 49.2978 56.1464C49.2396 56.2227 49.1668 56.2866 49.0837 56.3346C49.0005 56.3826 48.9087 56.4137 48.8135 56.426C48.2592 56.5058 47.7214 56.6741 47.2207 56.9244C46.3348 57.3547 45.5861 58.0674 45.2148 59.0948C44.9888 59.7289 44.9676 60.4178 45.1543 61.0645L49.6857 58.8601C49.814 58.7979 49.9617 58.789 50.0964 58.8354C50.2312 58.8818 50.342 58.9797 50.4046 59.1076C50.4357 59.1709 50.4539 59.2398 50.4583 59.3102C50.4627 59.3806 50.453 59.4512 50.43 59.5179C50.407 59.5846 50.371 59.6461 50.3241 59.6988C50.2772 59.7516 50.2203 59.7946 50.1568 59.8254L45.4251 62.131C45.5103 62.3615 45.6006 62.5928 45.6696 62.7332C45.7548 62.9143 45.8459 63.0955 45.9839 63.3285L50.7274 61.0211C50.7924 60.9897 50.863 60.9714 50.9351 60.9672C51.0071 60.963 51.0793 60.9731 51.1475 60.9967C51.2157 61.0204 51.2786 61.0573 51.3325 61.1053C51.3864 61.1533 51.4303 61.2114 51.4617 61.2763C51.4932 61.3412 51.5115 61.4116 51.5157 61.4836C51.5199 61.5555 51.5098 61.6276 51.4861 61.6957C51.4624 61.7638 51.4254 61.8266 51.3774 61.8804C51.3294 61.9342 51.2712 61.978 51.2061 62.0094L46.6636 64.2206C47.0545 64.7051 47.5705 65.0736 48.1559 65.2863C49.2241 65.6375 50.1678 65.527 51.1746 65.0371C51.7194 64.7714 52.2202 64.4238 52.6593 64.0063C52.7315 63.9375 52.8174 63.8847 52.9115 63.8513C53.0056 63.818 53.1057 63.8049 53.2052 63.813C53.3047 63.821 53.4014 63.8499 53.4889 63.8979C53.5764 63.9459 53.6527 64.0118 53.7129 64.0914L53.7155 64.0846Z" fill="#86B1F2"/>
<path d="M39.0641 78.3819L36.7192 78.62L35.9193 74.8941L32.4475 74.8192L31.3922 72.1292L30.0285 72.6624L31.439 76.2608L34.7294 76.3314L35.5616 80.207L39.0905 79.8498L39.0641 78.3819Z" fill="#50BFA5"/>
<path d="M150.86 51.1368L152.333 51.6224C152.333 51.6224 154.668 50.8664 154.898 50.3918C155.128 49.9172 155.193 48.764 155.525 48.7325C155.857 48.701 156.498 48.8091 156.652 49.5974C156.762 50.1707 155.923 51.8257 156.055 52.0018C156.141 52.1123 156.976 52.4151 157.589 52.626C157.788 52.6954 157.965 52.8184 158.099 52.9815C158.233 53.1446 158.319 53.3415 158.348 53.5505C158.369 53.6917 158.342 53.8358 158.27 53.9594C158.199 54.0829 158.087 54.1786 157.954 54.2309L157.528 54.3942L157.664 54.8304C157.712 54.9871 157.697 55.1565 157.623 55.3026C157.548 55.4487 157.42 55.56 157.264 55.6129L156.936 55.7226L157.041 55.9888C157.073 56.0699 157.088 56.1568 157.084 56.2439C157.081 56.3311 157.059 56.4165 157.021 56.4949C156.983 56.5732 156.928 56.6428 156.862 56.6992C156.795 56.7555 156.718 56.7974 156.634 56.8223L156.348 56.9073L156.36 56.9839C156.383 57.1372 156.349 57.2938 156.264 57.4237C156.179 57.5537 156.05 57.6478 155.9 57.6881L155.615 57.7629L151.701 56.4719C151.333 56.3509 150.995 56.1548 150.707 55.8961L149.401 55.2055C149.333 55.1688 149.281 55.109 149.253 55.037C149.225 54.965 149.224 54.8854 149.25 54.8126L150.458 51.3409C150.485 51.261 150.542 51.1949 150.617 51.1568C150.693 51.1186 150.78 51.1115 150.86 51.1368Z" fill="#FAE0B2"/>
<path d="M61.1072 55.8015C61.0748 55.7097 60.2886 54.3676 59.2742 52.9099C54.5562 46.1231 47.5588 39.5812 39.352 39.8261L39.346 39.7768C43.0555 39.3703 46.6909 40.3568 49.8816 42.1148C55.1456 44.9486 60.2733 50.3474 63.0842 54.4977L61.1072 55.8015Z" fill="#F7CC7F"/>
<path d="M41.1739 43.5829L40.6194 39.7659L43.4541 37.1447C43.5277 37.0778 43.581 36.9916 43.6079 36.8959C43.6347 36.8002 43.6341 36.6989 43.606 36.6035C43.5779 36.5082 43.5235 36.4226 43.4491 36.3567C43.3747 36.2907 43.2831 36.247 43.185 36.2305L39.3767 35.5773L37.7583 32.0759C37.7168 31.9861 37.651 31.9097 37.5683 31.8553C37.4856 31.801 37.3893 31.7708 37.2903 31.7682C37.1913 31.7657 37.0936 31.7908 37.0081 31.8408C36.9227 31.8908 36.853 31.9637 36.8069 32.0512L35.0079 35.4693L31.1749 35.9251C31.0753 35.9354 30.9806 35.9736 30.9018 36.0353C30.8229 36.097 30.7631 36.1796 30.7293 36.2738C30.6955 36.3679 30.689 36.4697 30.7106 36.5674C30.7321 36.665 30.7809 36.7546 30.8513 36.8258L33.548 39.5882L32.7976 43.3719C32.7784 43.4689 32.7868 43.5694 32.8217 43.6619C32.8567 43.7544 32.9168 43.8354 32.9954 43.8956C33.0739 43.9558 33.1678 43.9929 33.2663 44.0027C33.3649 44.0125 33.4642 43.9947 33.5531 43.9511L37.0173 42.2442L40.3895 44.1263C40.4763 44.1747 40.575 44.1978 40.6744 44.193C40.7738 44.1881 40.8698 44.1556 40.9515 44.0989C41.0332 44.0423 41.0974 43.9639 41.1367 43.8727C41.1761 43.7815 41.1889 43.681 41.1739 43.5829Z" fill="#F7CC7F"/>
<path d="M169.514 109.805L169.78 108.9C171.187 108.638 172.398 107.69 172.798 106.334C172.927 105.911 173.021 105.478 173.078 105.04L171.193 104.498L171.529 103.358L173.232 103.848C173.301 103.168 173.426 102.495 173.605 101.835C174.233 99.6999 176.126 98.732 178.157 99.3163C178.64 99.4466 179.1 99.6503 179.52 99.9201C179.664 100.017 179.765 100.167 179.799 100.337C179.833 100.507 179.798 100.684 179.702 100.828C179.604 100.973 179.454 101.075 179.283 101.112C179.112 101.149 178.934 101.119 178.784 101.028C178.471 100.843 178.134 100.7 177.783 100.603C176.355 100.193 175.483 101.002 175.105 102.287C174.875 103.065 174.815 103.676 174.754 104.286L177.391 105.044L177.055 106.184L174.566 105.469C174.419 106.172 174.254 106.87 173.897 107.475C173.467 108.185 172.824 108.741 172.059 109.066L172.049 109.102L176.859 110.485C176.943 110.508 177.022 110.549 177.091 110.603C177.159 110.657 177.216 110.724 177.259 110.801C177.301 110.877 177.328 110.961 177.338 111.048C177.348 111.135 177.34 111.222 177.316 111.306L177.302 111.354C177.251 111.524 177.136 111.666 176.98 111.751C176.824 111.836 176.641 111.856 176.471 111.806L169.514 109.805Z" fill="#F7CC7F"/>
<path d="M24.957 56.5654L25.8522 55.0549L25.1137 53.4628C25.0935 53.4218 25.0855 53.3759 25.0904 53.3305C25.0954 53.2851 25.1132 53.242 25.1418 53.2063C25.1704 53.1706 25.2086 53.1438 25.2519 53.129C25.2952 53.1142 25.3418 53.112 25.3863 53.1226L27.1009 53.5053L28.3896 52.3147C28.4231 52.285 28.4642 52.2652 28.5083 52.2575C28.5524 52.2498 28.5977 52.2545 28.6393 52.2711C28.6808 52.2877 28.7169 52.3155 28.7436 52.3515C28.7702 52.3874 28.7862 52.43 28.79 52.4746L28.9544 54.2214L30.4876 55.0719C30.5268 55.0939 30.5592 55.1264 30.581 55.1657C30.6028 55.205 30.6132 55.2496 30.611 55.2945C30.6088 55.3394 30.594 55.3828 30.5685 55.4198C30.5429 55.4568 30.5075 55.486 30.4663 55.504L28.853 56.1997L28.5123 57.921C28.5035 57.9651 28.4826 58.0059 28.4518 58.0388C28.4211 58.0716 28.3818 58.0953 28.3383 58.107C28.2948 58.1188 28.2489 58.1182 28.2058 58.1053C28.1626 58.0924 28.124 58.0678 28.0941 58.0341L26.9348 56.7185L25.1904 56.9277C25.1459 56.9322 25.1011 56.9244 25.0608 56.905C25.0206 56.8857 24.9865 56.8556 24.9623 56.8181C24.9381 56.7805 24.9248 56.7371 24.9239 56.6925C24.923 56.6479 24.9344 56.6039 24.957 56.5654Z" fill="#466EB6"/>
<path d="M190.277 80.8185L188.13 80.645L187.837 82.6283L185.713 82.5509L185.199 84.4126L183.601 84.6142L183.703 85.4222L185.84 85.1526L186.328 83.3887L188.537 83.4686L188.825 81.5185L190.771 81.675L190.277 80.8185Z" fill="#F48C7F"/>
<path d="M75.3259 32.6729L75.1947 30.5255L73.1871 30.5153L72.9648 28.4052L71.0466 28.1594L70.6215 26.6082L69.8345 26.8225L70.4035 28.8985L72.2212 29.1315L72.4528 31.3258L74.4273 31.336L74.5465 33.2819L75.3259 32.6729Z" fill="#F48C7F"/>
<path d="M28.7789 96.0506L30.4015 96.6689L31.6732 95.4365L33.4441 96.2589L34.393 94.5299L36.4364 95.3719L37.5062 93.887L39.605 94.376L39.4201 95.1686L37.8512 94.8029L36.7209 96.3695L34.7567 95.5607L33.7925 97.3195L31.8385 96.412L30.5966 97.6155L29.0924 97.0414L28.4425 98.0016L27.7661 97.5457L28.7789 96.0506Z" fill="#F7CC7F"/>
<path d="M126.702 27.7612L126.597 29.0676L124.472 29.1305L124.083 31.022L122.501 31.329L122.657 32.1276L124.772 31.7177L125.142 29.9257L127.351 29.8602L127.509 27.8948L126.702 27.7612Z" fill="#50BFA5"/>
<path d="M169.786 27.9758C170.664 28.8159 171.272 29.897 171.534 31.0824C171.796 32.2678 171.701 33.5042 171.259 34.6352C170.817 35.7662 170.05 36.741 169.053 37.4363C168.056 38.1316 166.876 38.5162 165.66 38.5415C164.445 38.5667 163.249 38.2314 162.224 37.578C161.2 36.9246 160.392 35.9825 159.904 34.8708C159.415 33.7591 159.268 32.5278 159.481 31.3325C159.693 30.1373 160.256 29.0319 161.098 28.1561C162.226 26.982 163.775 26.3034 165.405 26.2696C167.034 26.2358 168.61 26.8495 169.786 27.9758Z" fill="#FFF3D9"/>
<path d="M169.681 33.1067L167.066 33.9095L166.245 36.5162C166.23 36.5637 166.202 36.606 166.165 36.6384C166.127 36.6708 166.081 36.6921 166.032 36.6997C165.982 36.7073 165.932 36.701 165.886 36.6815C165.841 36.662 165.801 36.6301 165.773 36.5894L164.199 34.3535L161.463 34.3798C161.414 34.3803 161.365 34.3669 161.322 34.3412C161.28 34.3155 161.246 34.2784 161.223 34.2342C161.201 34.19 161.191 34.1404 161.195 34.091C161.199 34.0416 161.217 33.9943 161.247 33.9546L162.891 31.7697L162.02 29.1791C162.004 29.1319 162.002 29.081 162.013 29.0324C162.025 28.9838 162.05 28.9394 162.085 28.9043C162.121 28.8692 162.165 28.8449 162.214 28.8341C162.263 28.8233 162.314 28.8264 162.361 28.8432L164.95 29.7286L167.148 28.1016C167.188 28.0719 167.236 28.0539 167.285 28.0498C167.335 28.0456 167.385 28.0554 167.429 28.0781C167.473 28.1007 167.51 28.1354 167.536 28.178C167.562 28.2206 167.575 28.2696 167.574 28.3193L167.53 31.051L169.759 32.6355C169.799 32.6644 169.831 32.704 169.85 32.7499C169.869 32.7958 169.875 32.8461 169.867 32.8951C169.859 32.9442 169.837 32.99 169.804 33.0273C169.772 33.0647 169.729 33.0922 169.681 33.1067Z" fill="#FED333"/>
<path d="M187.203 59.6101L188.645 59.5251C188.682 59.5197 188.717 59.5049 188.746 59.482C188.775 59.4591 188.798 59.4289 188.812 59.3945C188.826 59.3601 188.831 59.3227 188.826 59.2859C188.82 59.2491 188.806 59.2143 188.783 59.1849L187.865 57.9849L188.261 56.454C188.273 56.4194 188.275 56.3821 188.267 56.3463C188.258 56.3106 188.24 56.2781 188.214 56.2525C188.187 56.2269 188.154 56.2094 188.118 56.202C188.082 56.1946 188.045 56.1977 188.011 56.2108L186.668 56.818L185.472 55.9616C185.44 55.9421 185.404 55.9319 185.368 55.9321C185.331 55.9324 185.295 55.9431 185.264 55.9631C185.234 55.983 185.209 56.0113 185.194 56.0446C185.179 56.078 185.173 56.115 185.179 56.1512L185.264 57.7263L184.128 58.7239C184.1 58.7484 184.079 58.7798 184.067 58.8149C184.055 58.8501 184.052 58.8878 184.059 58.9243C184.067 58.9607 184.083 58.9947 184.107 59.0229C184.132 59.051 184.163 59.0722 184.198 59.0845L185.602 59.4485L186.097 60.9224C186.107 60.9576 186.127 60.9889 186.155 61.0123C186.183 61.0358 186.217 61.0502 186.254 61.0538C186.29 61.0574 186.327 61.0499 186.359 61.0324C186.391 61.0149 186.417 60.9881 186.433 60.9556L187.203 59.6101Z" fill="#F47458"/>
<path d="M77.4204 86.2072C77.4204 86.2072 80.0047 81.2429 80.4016 79.4203C80.7985 77.5978 82.1494 68.4279 82.0736 67.83C81.9305 66.7023 80.4476 65.9717 80.7185 65.4699C80.9893 64.9681 82.3939 64.8117 82.8726 64.855C83.3513 64.8984 84.3138 65.1765 84.7261 65.515C85.1383 65.8535 84.2627 76.8519 84.0012 79.2196C83.7397 81.5873 80.5302 88.8794 80.5302 88.8794L77.4204 86.2072Z" fill="#F7A491"/>
<path d="M85.192 65.3108C85.1349 65.3474 84.9177 65.4112 84.8666 65.4571L84.4697 65.5821C84.4697 65.5821 85.4918 65.5557 86.0932 66.2021C85.8665 65.8389 85.5579 65.5336 85.192 65.3108Z" fill="#F47257"/>
<path d="M134.037 67.3036C134.437 66.9991 134.641 66.2345 134.727 65.7404L134.93 65.0906C134.776 65.0192 131.737 64.4443 130.817 64.3779C130.713 64.6654 130.657 64.9095 130.679 65.0677C130.781 65.8271 131.518 70.7582 131.518 70.7582L134.149 70.9283C134.149 70.9283 133.71 68.0069 134.037 67.3036Z" fill="#F7A491"/>
<path d="M134.1 65.2318C134.1 65.2318 133.557 65.4776 132.954 66.2039C132.954 66.2039 131.506 65.1833 131.575 64.8822C131.66 64.4851 133.15 65.2981 133.15 65.2981L134.1 65.2318Z" fill="#F47458"/>
<path d="M146.931 137.347C146.931 137.347 150.472 139.899 151.029 140.656C151.832 141.751 145.031 143.803 145.774 142.517C145.944 142.222 146.434 141.23 146.455 141.132C146.569 140.61 145.126 139.204 145.126 139.204L146.931 137.347Z" fill="#F7A491"/>
<path d="M143.936 144.661L146.341 141.268C146.341 141.268 147.842 140.92 149.383 139.189C149.383 139.189 150.767 139.717 151.619 140.861C150.344 142.182 148.978 143.412 147.53 144.542C146.491 145.407 145.305 146.079 144.029 146.527C141.996 147.213 143.936 144.661 143.936 144.661Z" fill="#F7CC7F"/>
<path d="M175.843 74.4663C175.843 74.4663 174.927 75.9742 174.826 75.8823C174.748 75.8117 175.294 75.0174 175.683 74.0555C175.783 73.808 175.881 73.5631 175.968 73.3377C176.199 72.7423 175.914 72.4396 175.576 73.0213C175.421 73.2838 175.283 73.5569 175.166 73.8386C175.056 74.1252 174.865 74.3549 174.74 74.5819C174.484 75.0335 174.306 75.3661 174.294 75.3474C174.281 75.3287 174.167 75.3754 174.265 75.1092C174.383 74.7895 174.776 74.1643 174.917 73.6813C174.996 73.4074 175.193 72.8444 175.193 72.8444C175.193 72.8444 175.338 71.9403 175.289 71.9148C175.026 71.7779 174.758 72.3707 174.698 72.756C174.538 72.9839 174.346 73.5818 174.346 73.5818C174.346 73.5818 173.696 74.7078 173.541 74.6194C173.475 74.5819 173.796 73.8446 173.997 73.0732C174.186 72.3571 174.263 71.6053 174.132 71.5483C173.908 71.4522 173.616 72.2287 173.616 72.2287C173.616 72.2287 173.439 72.7815 173.368 72.9609C173.283 73.171 172.983 73.7816 172.983 73.7816C172.983 73.7816 171.811 75.8466 171.672 75.7496C171.533 75.6527 171.306 75.2691 171.331 75.116C171.356 74.9629 171.552 74.7078 171.58 74.5547C171.608 74.4016 171.516 74.1805 171.335 74.1354C171.155 74.0904 170.747 74.7826 170.747 74.7826C170.747 74.7826 170.419 75.3482 170.41 75.8032C170.381 77.3673 170.636 77.3052 170.627 77.5042C170.617 77.7415 168.802 80.3533 168.802 80.3533L168.768 80.3933L170.921 81.9573C171.639 80.7913 172.198 79.8779 172.36 79.5921C172.36 79.5921 173.44 78.6693 174.1 78.068C174.76 77.4668 175.131 76.601 175.293 76.4028C175.668 75.8639 175.977 75.282 176.214 74.6695C176.555 73.7901 175.843 74.4663 175.843 74.4663Z" fill="#F8A492"/>
<path d="M152.349 111.152L151.789 113.918L137.711 126.704L147.788 136.887L145.062 139.664C145.062 139.664 130.179 128.751 129.645 127.321C128.819 125.119 140.314 110.536 140.314 110.536L152.349 111.152Z" fill="#B75742"/>
<path d="M162.715 144.994C162.715 144.994 166.256 147.545 166.813 148.303C167.617 149.398 160.815 151.45 161.558 150.164C161.728 149.869 162.218 148.876 162.239 148.779C162.353 148.257 160.911 146.85 160.911 146.85L162.715 144.994Z" fill="#F7A491"/>
<path d="M159.715 152.321L162.119 148.928C162.119 148.928 163.716 148.642 165.257 146.911C165.257 146.911 166.546 147.377 167.398 148.521C166.123 149.842 164.757 151.072 163.309 152.202C162.27 153.067 161.084 153.739 159.808 154.188C157.775 154.872 159.715 152.321 159.715 152.321Z" fill="#F7CC7F"/>
<path d="M151.872 112.433L152.091 130.606L163.273 144.613L160.641 147.534C160.641 147.534 146.794 136.038 145.277 132.736C144.34 130.695 140.908 111.337 140.908 111.337L151.872 112.433Z" fill="#F47458"/>
<path d="M140.511 111.002C141.656 108.422 141.524 89.9238 145.98 85.5906C147.548 85.8551 148.666 86.0039 148.928 86.0719C149.16 87.9779 149.417 94.9705 149.573 101.381C149.678 105.65 149.573 110.128 150.096 112.488C150.424 113.949 139.465 113.36 140.511 111.002Z" fill="#FAE0B2"/>
<path d="M121.641 96.202C119.036 96.3517 117.94 96.7642 117.139 96.6119C116.337 96.4597 114.202 95.6977 114.243 94.8982C117.104 94.3267 122.1 95.2121 122.1 95.2121C121.754 96.879 121.641 96.202 121.641 96.202Z" fill="#F7A491"/>
<path d="M144.079 86.1798C144.079 86.1798 142.924 91.8499 141.577 92.8246C140.23 93.7992 133.4 97.2267 132.983 97.202C130.918 97.083 121.042 96.6807 121.042 96.6807L121.347 93.5186L132.477 92.6171C132.477 92.6171 140.536 87.3441 141.622 86.5098C142.385 86.0293 144.079 86.1798 144.079 86.1798Z" fill="#466EB6"/>
<path d="M140.063 112.239C139.063 112.239 138.693 112.101 138.026 111.898C138.026 111.898 137.588 104.474 139.721 93.4659C140.525 89.3156 140.547 86.7964 142.191 86.1577C143.673 85.582 145.487 85.5054 145.981 85.5888C141.615 97.9207 141.601 107.413 140.982 110.168C140.672 111.548 140.402 112.247 140.063 112.239Z" fill="#466EB6"/>
<path d="M146.441 83.728L145.983 85.5905C145.983 85.5905 145.878 87.2132 146.633 87.3587C147.543 87.5347 148.894 86.1756 148.894 86.1756L149.677 80.9214L146.441 83.728Z" fill="#F7A491"/>
<path d="M146.441 83.728L145.983 85.5905C145.983 85.5905 145.878 87.2132 146.633 87.3587C147.543 87.5347 148.894 86.1756 148.894 86.1756L149.677 80.9214L146.441 83.728Z" fill="#F7A491"/>
<path d="M149.669 80.9453L146.441 83.7281L146.1 85.1195C147.332 84.8235 149.092 83.4678 149.669 80.9453Z" fill="#F47458"/>
<path d="M146.43 76.1111C145.649 76.1111 144.947 76.6494 144.672 77.4276C144.361 78.3053 144.126 79.2078 143.968 80.1253C143.627 82.1452 144.779 83.995 145.781 84.143C146.784 84.291 149.172 83.6276 149.7 80.7649C149.925 79.5377 150.223 77.9286 149.213 77.0832C148.429 76.4258 147.327 76.1179 146.43 76.1111Z" fill="#F7A491"/>
<path d="M149.375 82.9463C149.375 82.9463 152.91 79.7995 153.064 77.3433C153.218 74.8871 150.946 73.5698 149.002 73.5017C148.207 73.4702 147.411 73.5112 146.624 73.6242C144.677 73.8691 143.414 74.7298 143.859 76.3236C144.455 78.4626 148.496 76.6578 149.322 77.3221C150.004 77.8698 148.896 79.1872 149.562 79.6898C150.184 80.1618 149.866 80.0019 149.66 80.9C149.521 81.5752 149.425 82.2587 149.375 82.9463Z" fill="#13375B"/>
<path d="M150.738 80.0965C150.653 80.6859 150.29 81.1171 149.933 81.0678C149.576 81.0184 149.357 80.4954 149.445 79.906C149.533 79.3166 149.893 78.8854 150.25 78.9356C150.607 78.9858 150.826 79.508 150.738 80.0965Z" fill="#F7A491"/>
<path d="M134.642 64.2419C134.325 63.6882 133.851 64.2572 134.158 64.9776C134.166 65.0054 134.166 65.0348 134.158 65.0626C134.079 65.2506 133.344 65.8374 133.344 65.8374C133.344 65.8374 133.933 67.4822 134.264 67.0493C134.594 66.6164 134.846 65.2148 134.846 65.2148L134.642 64.2419Z" fill="#F7A491"/>
<path d="M171.903 81.072L169.496 78.6907C169.496 78.6907 164.922 85.2445 162.601 86.3816C160.347 87.4872 152.838 87.0841 152.573 87.0245C151.674 86.8196 148.906 86.0635 148.906 86.0635C148.906 86.0635 146.585 105.951 149.608 112.865C150.595 115.121 156.728 113.626 156.728 113.626C156.728 113.626 154.836 105.345 154.734 104.261C154.638 103.224 154.112 95.0114 154.196 94.9272C154.417 94.7069 162.79 92.886 165.086 91.1434C167.509 89.3072 171.903 81.072 171.903 81.072Z" fill="#466EB6"/>
<path d="M55.0247 99.1192C59.1532 103.415 62.7758 99.6082 62.5995 99.672C62.7409 99.6125 63.6463 99.6167 64.2366 99.5938C66.6957 99.4977 68.9359 97.738 69.9129 95.4052C73.5934 94.9246 75.9996 91.5287 74.9221 88.5894C76.5482 86.5678 76.0473 83.3394 74.5082 81.2753C74.1504 77.887 69.7169 77.3138 66.6659 78.5002C65.1191 79.1023 63.8022 80.4027 63.1242 81.9795C60.183 81.9089 57.6728 84.0691 57.017 87.0764C52.4404 88.3479 50.8101 94.735 55.0247 99.1192Z" fill="#181615"/>
<path d="M81.5464 140.747C81.2512 142.312 80.8288 143.85 80.2832 145.347C80.2346 145.462 79.7721 145.883 79.721 146.002C79.9689 148.83 81.7738 150.509 83.4688 151.709C83.1017 150.282 82.2832 148.648 82.3888 148.329C82.9814 146.372 83.7218 144.464 84.6034 142.619C83.1971 142.462 82.6946 141.605 81.5464 140.747Z" fill="#F7A491"/>
<path d="M76.3846 107.088L66.5892 113.766C66.5892 113.766 71.3592 116.859 72.9954 118.416C74.6317 119.972 83.3828 127.032 83.5259 127.388C83.6315 127.653 82.7133 131 80.6086 141.719C81.5396 142.669 83.5898 143.6 84.8027 143.907C87.3478 138.188 90.2226 126.291 89.8998 124.982C89.3989 122.951 76.3846 107.088 76.3846 107.088Z" fill="#355389"/>
<path d="M51.5826 120.528C51.8697 120.808 53.7819 124.525 54.5093 126.516C55.5741 125.847 56.218 125.049 57.4054 124.599C56.4684 123.243 54.6371 119.98 54.4863 119.203C54.1294 117.36 53.7104 117.089 53.7104 117.089C53.7104 117.089 47.5248 119.178 47.1125 119.764C46.7003 120.35 50.4251 119.402 51.5826 120.528Z" fill="#F7A491"/>
<path d="M54.5604 119.612C55.04 119.612 54.5187 117.448 54.4088 116.948C54.2853 116.387 53.9591 116.219 53.8782 116.199C53.6593 116.145 46.7837 118.467 45.6219 119.302C45.5299 119.382 45.4489 119.475 45.3809 119.576C44.7446 120.762 50.4123 120.987 51.2283 120.469C51.9583 120.008 52.4012 119.606 54.5604 119.612Z" fill="#3C8F7C"/>
<path d="M78.164 109.177C78.164 109.177 69.866 105.914 69.7578 106.261C68.8992 109.025 66.2255 108.132 64.6386 113C63.9734 115.041 63.4462 120.419 63.0024 124.409C62.694 127.151 62.2639 129.349 62.2639 129.349C62.2639 129.349 60.3431 126.511 56.7274 122.443C56.4471 122.129 53.5272 124.901 53.5272 124.901C59.2869 136.303 63.4879 137.913 64.4061 137.605C68.567 136.201 74.084 117.087 74.0746 117.089C74.7509 115.773 78.164 109.177 78.164 109.177Z" fill="#466EB6"/>
<path d="M65.3576 89.8575C65.3576 89.8575 55.4506 89.8447 53.3296 89.7257C51.4106 89.6151 43.7966 89.8107 43.4993 89.7741C43.202 89.7376 41.2336 86.4113 40.9065 86.7694C40.5794 87.1274 42.001 88.4193 41.5615 88.7544C41.122 89.0895 36.3963 88.3385 36.4594 88.6872C36.5761 89.3404 39.3333 89.257 39.3307 89.5726C39.3282 89.8881 36.4449 89.3957 36.2498 89.9187C36.0548 90.4418 39.0224 90.1322 39.1408 90.3652C39.2592 90.5982 36.3878 91.026 36.6817 91.5125C36.841 91.777 39.2259 91.0711 39.214 91.4275C39.2021 91.7838 37.4628 92.6062 37.6766 92.8937C37.8904 93.1812 39.0394 92.0134 40.0513 91.999C41.0632 91.9845 41.7838 91.4581 43.3945 91.8995C44.1901 92.1172 50.265 92.8588 55.3969 93.2968C60.6592 93.7459 64.9717 93.8922 64.9717 93.8922L65.3576 89.8575Z" fill="#F7A491"/>
<path d="M80.0464 98.6504C80.1776 97.0617 79.865 94.0391 79.7909 93.5118C80.2721 91.8627 81.2951 88.3426 81.6648 87.6511C81.6648 87.6511 79.9399 84.3419 78.1725 84.3649C78.1725 84.3649 76.3693 88.4234 74.9758 89.1488C74.9553 89.1437 74.4826 89.3597 74.2748 89.358C72.9281 89.3487 68.2272 89.2058 67.3464 89.1879L67.8405 95.8506C69.6948 100.759 69.3566 105.102 69.033 106.615C68.8507 107.456 77.0192 109.983 78.2747 109.177C78.3233 109.147 79.7807 101.861 80.0464 98.6504Z" fill="#FF8200"/>
<path d="M69.7391 89.4422C68.872 89.0281 62.5935 89.2356 62.5935 89.2356C62.5935 89.2356 61.7162 93.6011 62.4232 94.6506C62.4232 94.6506 68.0372 95.484 67.8745 95.9442L69.7391 89.4422Z" fill="#FF8200"/>
<path d="M70.8336 86.3882C70.8336 86.3882 71.4861 88.6845 71.6002 89.6719C71.7144 90.6593 73.2305 93.7542 75.2893 93.3085C77.348 92.8629 75.1998 89.9849 74.7969 89.0766C74.394 88.1682 73.3038 84.501 73.3038 84.501L70.8336 86.3882Z" fill="#F7A491"/>
<path d="M73.7637 86.0046C73.5082 85.1686 73.3063 84.501 73.3063 84.501L70.8362 86.3882C70.8362 86.3882 70.9563 86.8134 71.1028 87.3696C72.4085 87.5465 73.3029 86.9189 73.7637 86.0046Z" fill="#F47257"/>
<path d="M69.0398 79.5199C68.339 79.9695 67.8219 80.6541 67.5815 81.4504C67.2034 82.7619 67.7051 86.1281 70.527 86.8935C73.3489 87.6589 74.5303 84.9799 73.9179 82.9022C73.3055 80.8245 72.0108 78.2059 69.0398 79.5199Z" fill="#F7A491"/>
<path d="M74.2569 82.0934C74.2101 82.6547 73.9068 83.0876 73.5797 83.0604C73.2527 83.0331 73.0252 82.556 73.0687 81.9947C73.1121 81.4334 73.4188 81.0013 73.7501 81.0286C74.0814 81.0558 74.3037 81.5329 74.2569 82.0934Z" fill="#F7A491"/>
<path d="M80.2619 145.417C80.0839 144.972 78.2918 146.391 77.8693 146.679C77.394 147.003 77.3582 147.367 77.3702 147.449C77.4008 147.667 81.9612 153.275 83.2943 154.05C83.4421 154.114 83.6063 154.129 83.7636 154.095C84.5046 153.81 83.2985 149.222 82.3258 148.316C81.6972 147.728 81.06 147.42 80.2619 145.417Z" fill="#3C8F7C"/>
<path d="M69.366 79.3496C69.366 79.3496 68.912 83.1164 67.7042 83.8129C66.4964 84.5095 67.0313 86.1687 67.0313 86.1687C67.0313 86.1687 65.8703 82.3093 66.8149 81.0506C67.7596 79.7919 69.366 79.3496 69.366 79.3496Z" fill="#181615"/>
<path d="M68.4333 84.3385C68.774 84.8233 68.774 85.4007 68.4495 85.6287C68.125 85.8566 67.5815 85.6474 67.2442 85.1626C66.9069 84.6778 66.9035 84.1004 67.2281 83.8724C67.5526 83.6445 68.096 83.8571 68.4333 84.3385Z" fill="#F7A491"/>
<path d="M119.565 48.7861C118.026 49.0889 111.874 57.3198 111.874 57.3198L111.658 57.8888C111.658 57.8888 122.788 56.6531 123.191 56.1785C124.279 54.896 120.831 48.5378 119.565 48.7861ZM111.952 57.4925C113.983 54.9002 118.611 51.1139 119.611 50.3119C120.503 51.2211 121.849 53.906 122.026 55.1188C120.748 55.3842 115.199 57.103 111.952 57.4925Z" fill="#82C7E6"/>
<path d="M104.656 50.1911C101.628 48.2188 100.797 48.235 99.9141 48.7333C99.0316 49.2317 95.7787 53.8932 97.2327 55.3475C98.6867 56.8018 110.22 57.8377 110.22 57.8377L110.48 57.1327C110.48 57.1327 107.683 52.1633 104.656 50.1911ZM99.2369 54.8347C98.564 54.1645 100.239 51.3741 101.002 50.7804C101.197 50.6707 108.957 55.6018 110.039 57.2849C105.705 56.8171 99.863 55.39 99.2369 54.8347Z" fill="#82C7E6"/>
<path d="M110.962 55.7898H110.313C109.669 55.7898 109.148 56.3103 109.148 56.9524V58.8592C109.148 59.5013 109.669 60.0218 110.313 60.0218H110.962C111.606 60.0218 112.127 59.5013 112.127 58.8592V56.9524C112.127 56.3103 111.606 55.7898 110.962 55.7898Z" fill="#82C7E6"/>
<path d="M134.921 57.9243L82.1563 57.7661C81.8259 57.7652 81.4992 57.8357 81.1986 57.9727C80.898 58.1097 80.6307 58.31 80.415 58.5599C80.1992 58.8098 80.0402 59.1034 79.9488 59.4204C79.8574 59.7375 79.8358 60.0705 79.8854 60.3967L80.7023 65.7725L83.3471 65.7674L84.9407 92.822C84.9816 93.5192 85.2876 94.1745 85.7964 94.6539C86.3051 95.1332 86.978 95.4003 87.6775 95.4007H129.793L131.545 65.6679L134.036 65.6628L134.921 57.9243Z" fill="#B32323"/>
<path d="M82.4723 66.4063L82.4842 65.7566C81.9791 65.5592 81.3829 65.623 81.0882 65.5431L80.3812 65.0226C80.2321 64.958 80.0226 65.1204 80.0243 65.282C80.026 65.4436 80.2245 65.7498 80.325 65.8297C80.325 65.8297 81.5907 66.8707 82.0353 67.1905C82.2559 67.347 82.9484 67.7696 82.9484 67.7696L83.3522 67.0153L82.4723 66.4063Z" fill="#F7A491"/>
<path d="M130.69 95.4008H98.3639L96.633 58.4849H135.04L133.43 92.834C133.362 94.2696 132.156 95.4008 130.69 95.4008Z" fill="#FF3B3B"/>
<path d="M136.625 65.6809L94.9303 65.7914L93.978 57.7808L134.823 57.9372C135.14 57.9385 135.454 58.0054 135.744 58.1339C136.033 58.2624 136.293 58.4496 136.507 58.6836C136.72 58.9176 136.883 59.1934 136.984 59.4934C137.085 59.7935 137.123 60.1112 137.095 60.4266L136.625 65.6809Z" fill="#FF3B3B"/>
<path d="M94.9321 65.7915L134.7 65.6809L96.1927 67.7799L94.9321 65.7915Z" fill="#B32323"/>
<path d="M111.684 57.8438H110.577V65.7549H111.684V57.8438Z" fill="#82C7E6"/>
<path d="M115.17 65.7173H113.787V95.456H115.17V65.7173Z" fill="#82C7E6"/>
<path d="M81.784 42.3283C84.9672 43.576 88.2192 44.6412 91.5241 45.5184C92.5215 45.7829 94.174 46.539 95.0922 45.8654C95.5692 45.5167 95.7693 44.992 95.4891 44.4332C94.978 43.4126 93.3852 43.3369 92.3801 43.0724C89.3137 42.2577 85.8887 41.1903 82.4868 39.9112C81.8488 39.6714 81.1026 40.1527 80.9237 40.7702C80.7193 41.4718 81.1469 42.0842 81.784 42.3308V42.3283Z" fill="#DEF0F8"/>
<path d="M105.358 36.6779C104.272 28.3695 104.342 28.3483 103.882 27.5641C103.409 26.7604 102.114 26.871 101.859 27.8006C101.603 28.7301 101.664 28.5737 102.841 37.3115C102.934 38.0063 103.791 38.4086 104.417 38.2513C105.163 38.0642 105.45 37.3753 105.358 36.6779Z" fill="#DEF0F8"/>
<path d="M118.737 37.7451C119.559 36.6381 120.259 35.446 120.824 34.1893C121.353 33.0199 122.321 31.2976 121.414 30.1393C121.219 29.8901 120.76 29.7719 120.466 29.8731C119.235 30.2983 119 32.0197 118.507 33.0964C117.961 34.2687 117.316 35.3923 116.579 36.455C116.197 37.0146 116.455 37.8421 117.013 38.1755C117.643 38.5514 118.33 38.2886 118.736 37.7426L118.737 37.7451Z" fill="#DEF0F8"/>
<path d="M137.259 44.06C137.632 43.5497 137.319 42.8881 136.882 42.5615C135.981 41.8905 134.391 42.5096 133.409 42.7801C132.269 43.102 131.156 43.5153 130.081 44.0158C129.46 44.3007 129.288 45.1818 129.604 45.7406C129.974 46.3937 130.697 46.4805 131.331 46.2168C135.471 44.4955 136.34 45.3196 137.259 44.06Z" fill="#DEF0F8"/>
</svg>
