<svg width="162" height="145" viewBox="0 0 162 145" fill="none" xmlns="http://www.w3.org/2000/svg">
<g id="Frame" clip-path="url(#clip0_2789_14862)">
<g id="Group">
<g id="obj">
<g id="Group_2">
<g id="Group_3">
<path id="Vector" d="M38.9737 40.6431C38.8713 41.3957 39.3986 42.0818 40.1513 42.1842C40.9039 42.2866 41.59 41.7593 41.6924 41.0066C41.7948 40.254 41.2674 39.5679 40.5148 39.4655C39.7621 39.3631 39.0761 39.8904 38.9737 40.6431Z" fill="#FF8200"/>
<path id="Vector_2" d="M33.3266 32.3537C33.1269 33.8539 34.1765 35.2363 35.6818 35.436C37.182 35.6357 38.5644 34.5861 38.7641 33.0808C38.9638 31.5806 37.9142 30.1982 36.4089 29.9985C34.9087 29.7988 33.5263 30.8484 33.3266 32.3537Z" fill="#FF8200"/>
<g id="Group_4">
<g id="Group_5">
<path id="Vector_3" d="M21.702 23.773C27.4575 19.162 28.3853 10.7583 23.7743 5.00285C19.1633 -0.752605 10.7596 -1.68038 5.00418 2.93061C-0.751275 7.5416 -1.67905 15.9453 2.93194 21.7007C7.54293 27.4562 15.9466 28.3839 21.702 23.773Z" fill="#FF8200"/>
<path id="Vector_4" d="M32.8948 22.446C32.9551 18.0775 29.4626 14.4874 25.0942 14.4272C20.7258 14.3669 17.1356 17.8594 17.0754 22.2278C17.0151 26.5963 20.5076 30.1864 24.876 30.2466C29.2445 30.3069 32.8346 26.8144 32.8948 22.446Z" fill="#FF8200"/>
</g>
<g id="Group_6">
<path id="Vector_5" d="M25.7335 17.5004C25.4878 17.1164 25.1703 16.7632 24.7915 16.4713C23.2964 15.3142 21.2586 15.3398 19.7994 16.3996L11.9299 10.2197L7.56246 6.78928C7.19382 6.49744 6.66133 6.564 6.36949 6.93265L5.48884 8.05394L4.71571 9.03699C4.46995 9.34931 4.52627 9.79988 4.83859 10.0405L4.93588 10.1173C5.2482 10.3631 5.69876 10.3068 5.93941 9.99956L6.71253 9.01651L7.42422 9.5746L6.65109 10.5576C6.40533 10.87 6.46165 11.3154 6.77397 11.5612L6.90198 11.6636C7.2143 11.9093 7.66486 11.853 7.90551 11.5458L8.67864 10.5628L9.39544 11.1209L8.65304 12.0732C8.42263 12.3701 8.42263 12.8002 8.694 13.0614C9.00632 13.3634 9.49784 13.3225 9.75385 12.9897L10.527 12.0066L18.3965 18.1865C18.1866 18.6934 18.0842 19.231 18.0842 19.7686C18.0842 21.0026 18.632 22.2211 19.6765 23.0455C21.5402 24.5098 24.2538 24.136 25.6465 22.1853C26.6552 20.7722 26.6347 18.8931 25.7335 17.4953V17.5004ZM23.7572 22.0931C23.5575 22.0778 23.3527 22.001 23.1838 21.8678C22.7229 21.5043 22.641 20.8336 23.0046 20.3677C23.3681 19.9017 24.0388 19.8249 24.4996 20.1834C24.6737 20.3216 24.7915 20.5008 24.8529 20.6954C24.9553 21.023 24.9041 21.3917 24.6737 21.6835C24.4433 21.9754 24.09 22.1187 23.747 22.088L23.7572 22.0931Z" fill="white"/>
<path id="Vector_6" d="M25.6463 22.1905C24.2537 24.1361 21.54 24.515 19.6763 23.0506C18.6318 22.2314 18.084 21.0077 18.084 19.7738C18.7547 21.146 19.8146 22.3594 21.4632 22.6154C22.4258 22.7639 23.1733 22.5335 23.7621 22.0932C24.1103 22.1188 24.4585 21.9805 24.6889 21.6887C24.9193 21.3969 24.9705 21.0282 24.8681 20.7005C25.4313 19.6048 25.6514 18.2992 25.7385 17.5005C26.6396 18.8983 26.6601 20.7773 25.6514 22.1905H25.6463Z" fill="white"/>
</g>
</g>
</g>
<path id="Vector_7" d="M97.2364 94.1159C101.662 75.363 90.0483 56.5727 71.2954 52.1466C52.5425 47.7205 33.7522 59.3347 29.3261 78.0876C24.9001 96.8405 36.5142 115.631 55.2671 120.057C74.02 124.483 92.8103 112.869 97.2364 94.1159Z" fill="#FFFAF4"/>
<path id="Vector_8" d="M75.8483 78.849C90.4931 78.849 102.365 66.977 102.365 52.3322C102.365 37.6874 90.4931 25.8154 75.8483 25.8154C61.2035 25.8154 49.3315 37.6874 49.3315 52.3322C49.3315 66.977 61.2035 78.849 75.8483 78.849Z" fill="#FFFAF4"/>
<path id="Vector_9" d="M151.697 77.0006C154.066 62.5487 144.271 48.9125 129.819 46.5433C115.367 44.1741 101.731 53.9691 99.362 68.421C96.9929 82.8729 106.788 96.5091 121.24 98.8783C135.692 101.247 149.328 91.4525 151.697 77.0006Z" fill="#FFFAF4"/>
<path id="Vector_10" d="M161.538 144.442H19.2769" stroke="#D7E3F4" stroke-width="2.18" stroke-miterlimit="10"/>
<g id="Group_7">
<path id="Vector_11" d="M85.1669 8.66812C84.6549 8.71932 84.148 8.85756 83.6616 9.09308C81.7467 10.0096 80.7432 12.0627 81.0709 14.0595L70.9025 18.8263L65.2602 21.4734C64.784 21.6987 64.5792 22.2619 64.7994 22.7432L65.4752 24.187L66.0691 25.4517C66.2586 25.851 66.7347 26.0251 67.1392 25.8357L67.2672 25.7742C67.6717 25.5848 67.8407 25.1086 67.6564 24.7093L67.0624 23.4395L67.9789 23.0094L68.5728 24.2792C68.7623 24.6785 69.2385 24.8526 69.6429 24.6632L69.8119 24.5864C70.2164 24.3969 70.3853 23.9208 70.201 23.5214L69.6071 22.2516L70.5287 21.8164L71.1073 23.0452C71.2865 23.4241 71.7217 23.6443 72.1159 23.506C72.5716 23.3473 72.7815 22.8353 72.5818 22.4052L71.9879 21.1355L82.1564 16.3687C82.5608 16.8346 83.0472 17.2084 83.5848 17.4797C84.8239 18.0993 86.3241 18.1709 87.6706 17.5361C90.0771 16.4096 91.0704 13.5015 89.8211 11.1206C88.9148 9.40029 87.0204 8.46844 85.1669 8.663V8.66812ZM88.7715 12.9638C88.6537 13.1584 88.4745 13.3223 88.2543 13.4247C87.6604 13.7063 86.9436 13.4451 86.662 12.8461C86.3804 12.247 86.6415 11.5302 87.2354 11.2537C87.4607 11.1462 87.7014 11.1206 87.9267 11.1565C88.3055 11.2179 88.6486 11.4586 88.8278 11.8323C89.007 12.2112 88.966 12.6362 88.7663 12.9638H88.7715Z" fill="#FFE0BF"/>
<path id="Vector_12" d="M89.8212 11.1208C91.0705 13.5016 90.0721 16.4098 87.6708 17.5362C86.3191 18.1711 84.8189 18.0994 83.585 17.4799C85.3002 17.5004 87.0461 17.0498 88.1367 15.524C88.7716 14.6331 88.9201 13.7678 88.7716 12.9589C88.9713 12.6261 89.0122 12.2062 88.833 11.8273C88.6589 11.4536 88.3108 11.2129 87.9319 11.1515C87.1178 10.0353 85.9197 9.15467 85.1671 8.66314C87.0205 8.46346 88.9149 9.39531 89.8212 11.1208Z" fill="#FFE0BF"/>
</g>
<g id="Group_8">
<path id="Vector_13" d="M129.599 24.1667C129.363 24.0438 129.102 23.9568 128.826 23.9209C127.735 23.7724 126.711 24.3766 126.281 25.3392L120.506 24.4995L117.3 24.0336C117.029 23.9926 116.778 24.182 116.737 24.4534L116.619 25.2726L116.517 25.9945C116.486 26.2198 116.64 26.4349 116.87 26.4656L116.942 26.4758C117.172 26.5066 117.382 26.3529 117.413 26.1225L117.515 25.4006L118.038 25.4774L117.935 26.1993C117.905 26.4246 118.058 26.6397 118.289 26.6704L118.386 26.6858C118.616 26.7165 118.826 26.5629 118.857 26.3325L118.959 25.6105L119.482 25.6873L119.379 26.3837C119.348 26.5987 119.471 26.8189 119.686 26.8701C119.932 26.9315 120.168 26.7677 120.204 26.527L120.306 25.8051L126.081 26.6448C126.122 26.9622 126.23 27.2643 126.383 27.5357C126.742 28.1603 127.377 28.616 128.14 28.7287C129.507 28.9283 130.771 27.9504 130.91 26.5578C131.007 25.5491 130.454 24.607 129.594 24.1616L129.599 24.1667ZM129.937 27.0595C129.829 27.1107 129.706 27.1312 129.583 27.1107C129.246 27.0595 129.01 26.7472 129.056 26.4041C129.107 26.0611 129.42 25.8256 129.758 25.8768C129.886 25.8973 129.998 25.9536 130.085 26.0304C130.234 26.1635 130.316 26.3683 130.285 26.5834C130.254 26.7984 130.116 26.9725 129.932 27.0595H129.937Z" fill="#FFE0BF"/>
<path id="Vector_14" d="M130.92 26.5628C130.781 27.9504 129.517 28.9334 128.15 28.7337C127.382 28.6211 126.752 28.1654 126.394 27.5408C127.131 28.0374 128.017 28.3446 128.928 27.9964C129.46 27.7916 129.768 27.4588 129.937 27.0646C130.121 26.9775 130.254 26.8035 130.29 26.5884C130.321 26.3734 130.239 26.1737 130.09 26.0406C130.054 25.3238 129.788 24.5967 129.604 24.1718C130.464 24.6172 131.022 25.5593 130.92 26.5679V26.5628Z" fill="#FFE0BF"/>
</g>
<g id="Group_9">
<path id="Vector_15" d="M136.076 36.3474H65.7362C63.2874 36.3474 61.3022 38.3326 61.3022 40.7814V103.395C61.3022 105.843 63.2874 107.829 65.7362 107.829H136.076C138.524 107.829 140.51 105.843 140.51 103.395V40.7814C140.51 38.3326 138.524 36.3474 136.076 36.3474Z" fill="#FFEDDA"/>
<g id="Group_10">
<path id="Vector_16" d="M127.94 58.9678H73.877V66.7195H127.94V58.9678Z" fill="white"/>
<path id="Vector_17" d="M127.94 72.7253H73.877V80.4771H127.94V72.7253Z" fill="white"/>
<path id="Vector_18" d="M127.94 87.7476H73.877V95.4993H127.94V87.7476Z" fill="#FF8200"/>
<g id="Group_11">
<path id="Vector_19" d="M81.5415 76.6012C81.5415 77.0927 81.1422 77.4921 80.6507 77.4921C80.1591 77.4921 79.7598 77.0927 79.7598 76.6012C79.7598 76.1097 80.1591 75.7103 80.6507 75.7103C81.1422 75.7103 81.5415 76.1097 81.5415 76.6012Z" fill="#1D262D"/>
<path id="Vector_20" d="M90.5425 76.6012C90.5425 77.0927 90.1432 77.4921 89.6516 77.4921C89.1601 77.4921 88.7607 77.0927 88.7607 76.6012C88.7607 76.1097 89.1601 75.7103 89.6516 75.7103C90.1432 75.7103 90.5425 76.1097 90.5425 76.6012Z" fill="#1D262D"/>
<path id="Vector_21" d="M99.5435 76.6012C99.5435 77.0927 99.1441 77.4921 98.6526 77.4921C98.1611 77.4921 97.7617 77.0927 97.7617 76.6012C97.7617 76.1097 98.1611 75.7103 98.6526 75.7103C99.1441 75.7103 99.5435 76.1097 99.5435 76.6012Z" fill="#1D262D"/>
<path id="Vector_22" d="M86.042 76.6012C86.042 77.0927 85.6427 77.4921 85.1511 77.4921C84.6596 77.4921 84.2603 77.0927 84.2603 76.6012C84.2603 76.1097 84.6596 75.7103 85.1511 75.7103C85.6427 75.7103 86.042 76.1097 86.042 76.6012Z" fill="#1D262D"/>
<path id="Vector_23" d="M95.043 76.6012C95.043 77.0927 94.6436 77.4921 94.1521 77.4921C93.6606 77.4921 93.2612 77.0927 93.2612 76.6012C93.2612 76.1097 93.6606 75.7103 94.1521 75.7103C94.6436 75.7103 95.043 76.1097 95.043 76.6012Z" fill="#1D262D"/>
<path id="Vector_24" d="M113.05 76.6012C113.05 77.0927 112.651 77.4921 112.159 77.4921C111.668 77.4921 111.269 77.0927 111.269 76.6012C111.269 76.1097 111.668 75.7103 112.159 75.7103C112.651 75.7103 113.05 76.1097 113.05 76.6012Z" fill="#1D262D"/>
<path id="Vector_25" d="M104.044 76.6012C104.044 77.0927 103.645 77.4921 103.153 77.4921C102.662 77.4921 102.262 77.0927 102.262 76.6012C102.262 76.1097 102.662 75.7103 103.153 75.7103C103.645 75.7103 104.044 76.1097 104.044 76.6012Z" fill="#1D262D"/>
<path id="Vector_26" d="M108.55 76.6012C108.55 77.0927 108.15 77.4921 107.659 77.4921C107.167 77.4921 106.768 77.0927 106.768 76.6012C106.768 76.1097 107.167 75.7103 107.659 75.7103C108.15 75.7103 108.55 76.1097 108.55 76.6012Z" fill="#1D262D"/>
<path id="Vector_27" d="M122.051 76.6012C122.051 77.0927 121.652 77.4921 121.16 77.4921C120.669 77.4921 120.27 77.0927 120.27 76.6012C120.27 76.1097 120.669 75.7103 121.16 75.7103C121.652 75.7103 122.051 76.1097 122.051 76.6012Z" fill="#1D262D"/>
<path id="Vector_28" d="M117.551 76.6012C117.551 77.0927 117.151 77.4921 116.66 77.4921C116.168 77.4921 115.769 77.0927 115.769 76.6012C115.769 76.1097 116.168 75.7103 116.66 75.7103C117.151 75.7103 117.551 76.1097 117.551 76.6012Z" fill="#1D262D"/>
</g>
<g id="Group_12">
<path id="Vector_29" d="M90.5425 63.2634C90.5425 63.755 90.1432 64.1543 89.6516 64.1543C89.1601 64.1543 88.7607 63.755 88.7607 63.2634C88.7607 62.7719 89.1601 62.3726 89.6516 62.3726C90.1432 62.3726 90.5425 62.7719 90.5425 63.2634Z" fill="#1D262D"/>
<path id="Vector_30" d="M99.5435 63.2634C99.5435 63.755 99.1441 64.1543 98.6526 64.1543C98.1611 64.1543 97.7617 63.755 97.7617 63.2634C97.7617 62.7719 98.1611 62.3726 98.6526 62.3726C99.1441 62.3726 99.5435 62.7719 99.5435 63.2634Z" fill="#1D262D"/>
<path id="Vector_31" d="M95.043 63.2634C95.043 63.755 94.6436 64.1543 94.1521 64.1543C93.6606 64.1543 93.2612 63.755 93.2612 63.2634C93.2612 62.7719 93.6606 62.3726 94.1521 62.3726C94.6436 62.3726 95.043 62.7719 95.043 63.2634Z" fill="#1D262D"/>
<path id="Vector_32" d="M113.05 63.2634C113.05 63.755 112.651 64.1543 112.159 64.1543C111.668 64.1543 111.269 63.755 111.269 63.2634C111.269 62.7719 111.668 62.3726 112.159 62.3726C112.651 62.3726 113.05 62.7719 113.05 63.2634Z" fill="#1D262D"/>
<path id="Vector_33" d="M104.044 63.2634C104.044 63.755 103.645 64.1543 103.153 64.1543C102.662 64.1543 102.262 63.755 102.262 63.2634C102.262 62.7719 102.662 62.3726 103.153 62.3726C103.645 62.3726 104.044 62.7719 104.044 63.2634Z" fill="#1D262D"/>
<path id="Vector_34" d="M108.55 63.2634C108.55 63.755 108.15 64.1543 107.659 64.1543C107.167 64.1543 106.768 63.755 106.768 63.2634C106.768 62.7719 107.167 62.3726 107.659 62.3726C108.15 62.3726 108.55 62.7719 108.55 63.2634Z" fill="#1D262D"/>
</g>
</g>
<g id="Group_13">
<path id="Vector_35" d="M110.769 45.6255C115.234 40.1808 114.439 32.1478 108.994 27.6834C103.55 23.219 95.5167 24.0137 91.0523 29.4584C86.5879 34.9032 87.3826 42.9361 92.8273 47.4006C98.2721 51.865 106.305 51.0703 110.769 45.6255Z" fill="url(#paint0_linear_2789_14862)"/>
<g id="Group_14">
<path id="Vector_36" d="M105.791 32.6506L96.0215 42.4197" stroke="white" stroke-width="2.27" stroke-miterlimit="10"/>
<path id="Vector_37" d="M105.791 42.4197L96.0215 32.6506" stroke="white" stroke-width="2.27" stroke-miterlimit="10"/>
</g>
</g>
</g>
<g id="Group_15">
<path id="Vector_38" d="M37.6117 90.0772L50.8163 89.5294L51.3949 66.9346L49.7513 62.3572L44.2831 60.473L40.4533 59.7665C38.221 60.1914 36.6286 62.1831 36.7105 64.4564L38.1442 80.4464L37.6117 90.0772Z" fill="#F7D6B2"/>
<path id="Vector_39" d="M42.9111 56.2336V60.7751C42.9111 60.7751 43.8686 61.3486 46.1163 61.3486C47.3246 61.3486 47.6011 61.5585 47.6011 61.5585V59.0958L42.9163 56.2336H42.9111Z" fill="#F7D6B2"/>
<path id="Vector_40" d="M42.3837 52.8441C42.3939 53.008 42.399 53.1616 42.4093 53.3101C42.4093 53.3613 42.4042 53.4176 42.4042 53.4739C42.2915 56.1671 44.0221 59.0548 46.6282 59.449C46.6282 59.449 46.6487 59.4541 46.6845 59.4593C46.705 59.4593 46.7357 59.4644 46.7767 59.4644C47.3348 59.5309 49.3521 59.6999 50.0894 58.8858C50.9546 57.9284 51.7227 56.1824 51.7227 54.9843C51.7227 53.7862 51.5076 53.5046 51.5076 53.0233C51.5076 52.6445 51.7124 51.4669 51.7124 50.9548C51.7278 48.5484 50.1098 46.1625 47.2375 46.1625C42.9264 46.1625 42.2659 49.9462 42.3888 52.8441H42.3837Z" fill="#F7D6B2"/>
<g id="Group_16">
<path id="Vector_41" d="M32.2615 78.7363C33.6797 79.3251 37.8628 71.4146 39.3886 67.9278C40.9144 64.4411 41.4929 61.4151 39.7675 60.6983C38.042 59.9815 36.3063 62.5211 34.9034 66.0641C33.5056 69.6072 30.8432 78.1526 32.2615 78.7414V78.7363Z" fill="#F7D6B2"/>
<g id="Group_17">
<path id="Vector_42" d="M32.7989 94.4702C34.1609 94.4906 34.6934 84.4912 34.7343 81.6649C34.7804 78.8386 34.6166 75.8536 33.0908 75.828C31.565 75.8024 31.309 78.7823 31.2629 81.6086C31.2168 84.4349 31.4319 94.4497 32.7938 94.4702H32.7989Z" fill="#F7D6B2"/>
<path id="Vector_43" d="M32.9015 91.8845C31.2989 91.7411 31.3655 94.593 31.4269 95.5658C31.5191 97.1479 33.1626 98.6942 33.7771 98.6634C34.3915 98.6378 33.9102 95.0692 34.0433 94.9412C34.1764 94.8132 34.2532 96.7537 34.8267 96.6666C35.4001 96.5796 35.2004 94.2295 34.7601 93.3335C34.3249 92.4323 33.9102 91.9818 32.9066 91.8896L32.9015 91.8845Z" fill="#F7D6B2"/>
</g>
</g>
<path id="Vector_44" d="M41.8871 63.4989C41.6465 64.6919 40.8989 66.3559 39.9005 68.1889C38.7997 70.2011 37.8115 71.9265 37.1664 73.0376C36.7671 73.7237 36.5008 74.1691 36.4189 74.3074C36.4035 74.3381 36.3933 74.3534 36.3933 74.3534L32.5737 72.7918C32.5737 72.7918 34.8419 63.3607 38.3901 60.4627C38.4157 60.4423 38.8202 60.2579 38.8612 60.2579C40.8631 60.6368 42.307 61.4355 41.8871 63.4989Z" fill="url(#paint1_linear_2789_14862)"/>
<path id="Vector_45" d="M45.7836 88.3978C44.4677 88.8944 43.7356 90.9885 44.181 92.929C44.5343 94.4753 45.1589 96.4619 46.2546 98.7813C48.9887 104.577 51.1033 112.329 53.0438 112.303C54.9843 112.278 55.6243 107.465 53.7248 101.203C52.0044 95.5403 50.4326 88.1162 49.0041 87.7475C48.2822 87.5632 46.9356 87.9575 45.7836 88.3927V88.3978Z" fill="#F7D6B2"/>
<path id="Vector_46" d="M53.6787 111.074C48.4101 109.462 50.791 134.96 52.5625 139.491C54.334 144.022 54.9945 131.939 55.312 124.12C55.6294 116.302 55.7523 111.709 53.6787 111.074Z" fill="#F7D6B2"/>
<path id="Vector_47" d="M51.1953 133.818C51.2568 133.9 51.6356 140.858 51.6356 140.858C51.6356 140.858 54.9944 141.098 54.9944 140.858C54.9944 140.617 55.2555 134.581 55.2555 134.581L51.1953 133.823V133.818Z" fill="#F7D6B2"/>
<path id="Vector_48" d="M39.332 133.818C39.3935 133.9 39.7724 140.858 39.7724 140.858C39.7724 140.858 43.1311 141.098 43.1311 140.858C43.1311 140.617 43.3922 134.581 43.3922 134.581L39.332 133.823V133.818Z" fill="#F7D6B2"/>
<path id="Vector_49" d="M39.3729 88.3057C37.9853 88.5412 36.8589 90.4459 36.9204 92.4427C36.9664 94.0299 37.1969 96.0984 37.8215 98.5867C39.3831 104.802 39.9566 112.82 41.8612 113.169C43.771 113.517 45.3326 108.924 44.6824 102.411C44.0936 96.5234 43.9912 88.9354 42.66 88.2954C41.9841 87.9729 40.5914 88.1009 39.3729 88.3057Z" fill="#F7D6B2"/>
<path id="Vector_50" d="M42.5887 111.617C37.4072 109.738 38.8511 135.338 40.3922 139.946C41.9333 144.56 42.855 132.517 43.5666 124.725C44.2783 116.932 44.6265 112.354 42.5887 111.617Z" fill="#F7D6B2"/>
<path id="Vector_51" d="M51.4924 88.5207C51.4924 88.5207 56.1824 108.269 56.0749 112.426C55.9674 116.584 55.1686 138.324 55.1686 138.324C55.1686 138.324 51.4259 138.339 51.4259 138.324C48.5382 122.625 49.7311 113.286 49.4137 111.525C49.0963 109.764 45.5737 102.248 45.5737 102.248C45.5737 102.248 45.4149 110.885 45.4149 113.286C45.4149 115.688 43.2543 138.165 43.2543 138.165L39.3835 138.247C39.3835 138.247 38.1393 122.887 38.1393 119.763C38.1393 116.64 38.8971 111.766 38.8613 111.126C38.8203 110.486 32.7838 94.8133 36.7825 88.7358C42.0408 80.7433 51.4976 88.5207 51.4976 88.5207H51.4924Z" fill="url(#paint2_linear_2789_14862)"/>
<path id="Vector_52" d="M53.3815 67.0114C53.3815 67.3237 53.3713 67.5951 53.2893 68.0047C53.2484 68.189 53.2023 68.4091 53.1306 68.6703C52.9309 69.4229 52.5777 70.5493 51.9479 72.4438C50.2531 77.5587 51.7636 88.5924 51.784 88.6999C51.784 88.6999 36.3932 89.0737 36.4239 88.6283C36.6696 85.5869 39.0197 82.8835 37.0178 72.1929C35.3743 63.4017 37.5605 60.0583 39.4857 59.8279C43.2899 59.3722 49.9971 61.6404 50.9136 62.4904C51.8301 63.3403 53.3457 65.1118 53.3764 67.0062L53.3815 67.0114Z" fill="url(#paint3_linear_2789_14862)"/>
<path id="Vector_53" d="M67.1649 62.3982C66.9601 60.8929 58.0922 61.282 54.3443 61.7275C50.5964 62.1729 47.7189 63.1918 47.9698 65.035C48.2207 66.8731 51.2671 67.083 54.9997 66.4994C58.7322 65.9157 67.3748 63.9035 67.1649 62.3982Z" fill="#EED7BA"/>
<path id="Vector_54" d="M60.4882 65.5777C60.4882 65.5777 56.4178 67.1444 53.2741 68.0097C51.3489 68.537 49.6235 68.3374 49.2446 67.1956C49.2343 67.1649 49.1831 67.1751 49.1524 67.1597C47.1914 66.3917 46.577 63.1149 48.5022 62.2599C49.6132 61.7683 51.9889 61.8349 54.0574 61.6813C58.0869 61.3792 59.5461 61.328 59.5461 61.328L60.437 65.337L60.4882 65.5725V65.5777Z" fill="url(#paint4_linear_2789_14862)"/>
<path id="Vector_55" d="M52.4341 49.4649C52.3983 50.11 52.1833 50.8166 51.7429 51.5744C50.4015 53.8733 49.6386 56.0442 49.6744 58.7476C49.7205 61.9834 51.661 65.844 49.654 68.8392C46.7304 73.2015 39.2244 72.8892 35.9578 69.2488C33.7715 66.8116 33.2698 62.8743 35.8349 60.4679C36.9409 59.4285 37.9751 58.4404 38.6151 57.0477C40.3969 53.1565 40.1819 46.91 45.1381 45.3228C47.908 44.437 52.6287 45.9833 52.4341 49.47V49.4649Z" fill="#1D262D"/>
<path id="Vector_56" d="M55.02 140.146C55.02 140.146 55.3733 141.175 57.5134 142.512C59.6536 143.848 60.2168 143.556 60.2629 144.058C60.309 144.56 51.3643 144.145 51.3643 144.145L51.5025 140.028C51.5025 140.028 55.0149 140.034 55.0149 140.141L55.02 140.146Z" fill="url(#paint5_linear_2789_14862)"/>
<path id="Vector_57" d="M43.1566 140.034C43.1566 140.034 43.5611 140.899 45.005 142.292C46.2799 143.525 47.4012 143.259 47.2988 143.7C47.2015 144.124 39.6392 143.848 39.6392 143.848V140.028C39.6392 140.028 43.1618 140.028 43.1566 140.028V140.034Z" fill="url(#paint6_linear_2789_14862)"/>
<g id="Group_18">
<path id="Vector_58" d="M54.0163 49.6646C53.0538 50.6067 59.7201 57.9693 61.6759 59.9713C63.6318 61.9783 65.8488 63.9496 66.9291 62.8948C68.0094 61.8401 66.0945 59.577 64.1336 57.57C62.1777 55.5629 54.9789 48.7225 54.0112 49.6646H54.0163Z" fill="#EED7BA"/>
<path id="Vector_59" d="M50.8111 47.0943C50.4374 47.4681 52.424 49.2908 52.9462 49.8797C53.023 49.9667 53.0742 50.0333 53.0691 50.0589C53.0691 50.0845 53.0333 50.0845 52.9872 50.0691C52.68 49.9872 51.5843 49.2857 51.2668 49.6697C50.9238 50.0947 52.4393 51.5283 53.3814 51.9942C53.4326 52.0198 53.4889 52.0557 53.5401 52.0762C54.4617 52.4448 55.0659 52.5011 55.8646 51.897C57.1344 50.9344 55.1837 48.8864 54.4925 48.2156C53.9088 47.6473 53.064 47.2582 52.3164 47.0687C51.6201 46.8947 51.016 46.8895 50.806 47.0995L50.8111 47.0943Z" fill="#EED7BA"/>
</g>
<path id="Vector_60" style="mix-blend-mode:multiply" opacity="0.5" d="M37.1818 73.0018L37.1665 73.0427C36.7671 73.7288 36.5009 74.1743 36.4189 74.3125L36.8234 70.2523C36.8951 71.604 37.1818 73.0069 37.1818 73.0069V73.0018Z" fill="url(#paint7_linear_2789_14862)"/>
<path id="Vector_61" style="mix-blend-mode:multiply" opacity="0.5" d="M53.2893 68.0046C53.2484 68.189 53.2023 68.4091 53.1306 68.6702C52.168 69.2488 50.2275 68.8034 50.2275 68.8034L53.274 68.0098C53.274 68.0098 53.274 68.0098 53.2893 68.0098V68.0046Z" fill="url(#paint8_linear_2789_14862)"/>
</g>
<g id="Group_19">
<g id="Group_20">
<path id="Vector_62" d="M140.663 132.84C140.361 134.76 140.361 136.711 140.612 138.636C140.684 139.184 140.71 139.726 140.684 140.264C140.653 140.827 140.535 141.467 140.059 141.769C139.332 142.23 138.405 141.564 137.888 140.873C135.636 137.868 135.502 133.895 133.582 130.72C133.285 130.234 132.963 129.747 132.625 129.261L133.188 127.111L132.016 128.385C130.674 126.45 129.379 124.448 129.394 122.042L131.109 122.19C131.109 122.19 130.203 121.816 129.404 121.504C129.471 119.881 129.676 118.207 129.107 116.681C128.693 115.575 127.889 114.689 127.126 113.773L128.252 112.099C128.252 112.099 127.182 112.436 126.256 112.626C126.184 112.518 126.117 112.411 126.051 112.298C125.037 110.568 124.924 108.586 125.011 106.63C125.058 105.54 125.134 104.429 125.319 103.343C125.733 103.369 126.082 103.384 126.082 103.384L125.472 102.55C125.605 101.966 125.774 101.398 126 100.84C126.153 100.456 126.716 99.1039 127.208 99.0475C128.626 98.8888 129.809 100.184 130.316 101.515C130.797 102.78 131.012 104.04 131.555 105.222L130.864 105.954L132.041 106.113C132.098 106.2 132.159 106.287 132.22 106.374C133.669 108.351 136.219 109.892 137.704 111.827C136.573 112.134 135.497 112.513 135.497 112.513L138.626 113.491C138.994 114.566 138.969 115.79 138.298 117.254C138.083 117.731 137.842 118.186 137.627 118.647L136.798 118.084L137.376 119.231C137.136 119.835 136.972 120.46 136.987 121.161C137.033 123.235 138.329 124.965 139.383 126.762C139.204 127.331 139.046 127.832 139.046 127.832L139.926 127.745C140.162 128.211 140.361 128.693 140.505 129.184C140.848 130.372 140.853 131.611 140.663 132.835V132.84Z" fill="#26B872"/>
<path id="Vector_63" style="mix-blend-mode:screen" d="M137.878 136.025C137.417 131.048 136.05 128.867 134.847 126.942C134.269 126.02 133.726 125.15 133.388 124.085C133.004 122.881 132.958 121.397 132.912 119.825C132.835 117.239 132.753 114.566 131.161 112.836C128.442 109.892 127.899 103.067 127.899 103.005L128.375 102.995C128.375 103.057 128.882 109.667 131.509 112.513C133.224 114.372 133.306 117.137 133.383 119.809C133.429 121.345 133.47 122.794 133.838 123.936C134.161 124.945 134.663 125.749 135.252 126.686C136.424 128.56 137.878 130.884 138.349 135.979L137.878 136.025Z" fill="#34D15A"/>
</g>
<g id="Group_21">
<path id="Vector_64" d="M142.799 137.218C143.705 136.767 144.452 136.194 144.872 135.564C146.29 133.449 146.137 130.608 146.536 128.191C147.012 125.319 148.292 122.482 150.566 120.664C152.409 119.19 153.643 117.551 154.032 115.145C154.411 112.78 154.165 110.373 154.421 107.997C154.692 105.494 155.163 103.072 155.926 100.671C156.572 98.6482 157.247 95.2638 153.894 95.7246C152.562 95.9038 151.313 96.6104 150.463 97.6498C148.231 100.384 148.425 104.26 146.767 107.281C145.927 108.806 144.632 109.938 143.403 111.141C142.297 112.216 141.129 113.512 140.894 115.099C140.761 116.021 140.868 116.973 140.653 117.884C140.351 119.149 139.476 120.137 138.682 121.125C137.817 122.195 137.202 123.311 136.583 124.53C135.037 127.561 133.511 131.427 134.432 134.842C134.699 135.84 135.19 136.818 136.02 137.438C137.863 138.82 140.909 138.17 142.814 137.223L142.799 137.218Z" fill="#26B872"/>
<path id="Vector_65" style="mix-blend-mode:screen" d="M142.783 115.534C142.952 115.509 143.106 115.626 143.131 115.795L144.017 122.098L149.644 111.034C149.721 110.88 149.905 110.824 150.059 110.9C150.212 110.977 150.269 111.162 150.192 111.315L146.08 119.405L151.805 115.396C151.943 115.299 152.137 115.334 152.23 115.473C152.327 115.611 152.291 115.805 152.153 115.903L145.65 120.454C145.609 120.485 145.563 120.495 145.517 120.506L140.151 131.058L144.079 129.276C144.232 129.205 144.416 129.276 144.483 129.43C144.555 129.584 144.483 129.768 144.329 129.834L139.936 131.826C139.875 131.857 139.808 131.862 139.747 131.847L138.728 133.854C138.651 134.007 138.467 134.064 138.313 133.987C138.278 133.966 138.247 133.946 138.221 133.915C138.139 133.823 138.119 133.69 138.175 133.572L143.561 122.979C143.526 122.938 143.5 122.887 143.49 122.825L142.517 115.882C142.491 115.713 142.609 115.56 142.778 115.534H142.783Z" fill="#34D15A"/>
</g>
<path id="Vector_66" d="M141.426 107.147C142.717 105.074 143.915 104.296 143.935 104.285C143.986 104.255 144.022 104.203 144.038 104.147C145.456 103.01 149.245 99.7387 147.335 98.5969C145.446 97.4654 144.073 102.114 143.628 103.886C143.403 104.034 142.256 104.864 141.027 106.83C141.493 104.93 142.389 100.379 140.259 100.609C137.868 100.87 140.131 106.257 140.663 107.449C140.228 108.228 139.788 109.149 139.389 110.245C139.301 110.486 139.214 110.737 139.133 110.998C139.133 108.898 138.897 104.756 136.972 105.432C134.755 106.21 137.97 110.742 138.856 111.924C138.477 113.297 138.149 114.935 137.95 116.876C137.494 114.945 136.245 110.557 134.463 111.725C132.466 113.025 136.808 116.742 137.883 117.618C137.771 119.011 137.719 120.547 137.76 122.236C137.059 120.454 135.129 116.108 133.506 117.551C131.719 119.144 136.624 122.2 137.781 122.881C137.827 124.177 137.924 125.554 138.088 127.029C136.854 125.621 133.495 122.083 132.451 124.013C131.345 126.056 136.624 127.249 138.149 127.551C138.324 129.046 138.559 130.628 138.871 132.312C137.924 131.201 134.115 126.936 132.988 129.015C131.811 131.186 137.842 132.4 138.928 132.599C139.133 133.674 139.363 134.791 139.624 135.948C139.655 136.081 139.788 136.168 139.926 136.137C139.941 136.137 139.952 136.127 139.967 136.122C140.08 136.076 140.141 135.953 140.116 135.835C139.849 134.678 139.619 133.567 139.419 132.492C140.653 132.369 146.685 131.652 145.574 129.486C144.493 127.377 140.387 131.253 139.373 132.256C139.066 130.602 138.836 129.041 138.661 127.571C139.834 127.459 145.968 126.747 144.847 124.561C143.761 122.446 139.629 126.353 138.636 127.341C138.452 125.718 138.339 124.202 138.288 122.794C139.598 122.728 145.543 122.303 144.55 120.101C143.592 117.976 139.424 121.484 138.277 122.508C138.226 120.721 138.272 119.103 138.39 117.649C139.706 117.715 145.655 117.884 144.887 115.601C144.15 113.399 139.675 116.44 138.416 117.357C138.605 115.258 138.948 113.501 139.348 112.047C140.75 112.114 146.562 112.267 145.804 110.004C145.092 107.869 140.868 110.655 139.455 111.658C139.578 111.238 139.711 110.844 139.839 110.475C140.244 109.354 140.689 108.417 141.134 107.639C142.435 107.685 148.415 107.777 147.611 105.499C146.889 103.44 142.937 106.057 141.421 107.153L141.426 107.147Z" fill="#00370D"/>
<g id="Group_22">
<path id="Vector_67" d="M133.741 144.13H144.923C145.645 144.13 146.244 143.577 146.306 142.86L147.734 128.211H130.935L132.364 142.86C132.425 143.577 133.024 144.13 133.746 144.13H133.741Z" fill="url(#paint9_linear_2789_14862)"/>
<path id="Vector_68" d="M130.51 131.058H148.144C148.478 131.058 148.748 130.788 148.748 130.454V128.816C148.748 128.482 148.478 128.211 148.144 128.211H130.51C130.177 128.211 129.906 128.482 129.906 128.816V130.454C129.906 130.788 130.177 131.058 130.51 131.058Z" fill="url(#paint10_linear_2789_14862)"/>
</g>
</g>
</g>
</g>
</g>
</g>
<defs>
<linearGradient id="paint0_linear_2789_14862" x1="100.914" y1="25.1563" x2="100.914" y2="50.2292" gradientUnits="userSpaceOnUse">
<stop stop-color="#FF6D6D"/>
<stop offset="1" stop-color="#FF6666"/>
</linearGradient>
<linearGradient id="paint1_linear_2789_14862" x1="37.2637" y1="67.2161" x2="37.2637" y2="87.5018" gradientUnits="userSpaceOnUse">
<stop offset="0.06" stop-color="#E38204"/>
<stop offset="1" stop-color="#E35802"/>
</linearGradient>
<linearGradient id="paint2_linear_2789_14862" x1="45.4661" y1="118.662" x2="46.0242" y2="87.681" gradientUnits="userSpaceOnUse">
<stop stop-color="#008BEC"/>
<stop offset="1" stop-color="#0077EC"/>
</linearGradient>
<linearGradient id="paint3_linear_2789_14862" x1="44.9027" y1="67.2162" x2="44.9027" y2="87.5018" gradientUnits="userSpaceOnUse">
<stop offset="0.06" stop-color="#E38204"/>
<stop offset="1" stop-color="#E35802"/>
</linearGradient>
<linearGradient id="paint4_linear_2789_14862" x1="53.9089" y1="67.2161" x2="53.9089" y2="87.5017" gradientUnits="userSpaceOnUse">
<stop offset="0.06" stop-color="#E38204"/>
<stop offset="1" stop-color="#E35802"/>
</linearGradient>
<linearGradient id="paint5_linear_2789_14862" x1="51.3643" y1="142.169" x2="60.2629" y2="142.169" gradientUnits="userSpaceOnUse">
<stop stop-color="#008BEC"/>
<stop offset="1" stop-color="#0077EC"/>
</linearGradient>
<linearGradient id="paint6_linear_2789_14862" x1="39.6392" y1="141.989" x2="47.3039" y2="141.989" gradientUnits="userSpaceOnUse">
<stop stop-color="#008BEC"/>
<stop offset="1" stop-color="#0077EC"/>
</linearGradient>
<linearGradient id="paint7_linear_2789_14862" x1="36.4189" y1="72.2747" x2="37.1818" y2="72.2747" gradientUnits="userSpaceOnUse">
<stop offset="0.06" stop-color="#E38204"/>
<stop offset="1" stop-color="#E35802"/>
</linearGradient>
<linearGradient id="paint8_linear_2789_14862" x1="50.2224" y1="68.4859" x2="53.2893" y2="68.4859" gradientUnits="userSpaceOnUse">
<stop offset="0.06" stop-color="#E38204"/>
<stop offset="1" stop-color="#E35802"/>
</linearGradient>
<linearGradient id="paint9_linear_2789_14862" x1="130.93" y1="136.173" x2="147.729" y2="136.173" gradientUnits="userSpaceOnUse">
<stop offset="0.06" stop-color="#E38204"/>
<stop offset="1" stop-color="#E35802"/>
</linearGradient>
<linearGradient id="paint10_linear_2789_14862" x1="129.911" y1="129.635" x2="148.748" y2="129.635" gradientUnits="userSpaceOnUse">
<stop offset="0.06" stop-color="#E38204"/>
<stop offset="1" stop-color="#E35802"/>
</linearGradient>
<clipPath id="clip0_2789_14862">
<rect width="161.538" height="145" fill="white"/>
</clipPath>
</defs>
</svg>
