<svg width="100" height="100" viewBox="0 0 100 100" fill="none" xmlns="http://www.w3.org/2000/svg">
<g id="35060517_approved_checkmark_tick_file_7 1" clip-path="url(#clip0_2789_15881)">
<g id="Layer_1">
<path id="Vector" d="M99.4233 0H0V99.4233H99.4233V0Z" fill="white"/>
</g>
<g id="Layer_2">
<g id="Group">
<g id="Group_2">
<path id="Vector_2" d="M87.803 37.2714C87.9097 38.6089 87.7282 39.7962 87.5478 41.0157C87.4903 41.4045 87.4172 41.7893 87.3285 42.1685C87.2886 42.3394 87.2488 42.507 87.209 42.6751C86.6954 44.8439 85.6971 46.8186 84.2526 48.4185C84.2065 48.4696 84.16 48.5204 84.1129 48.5709C82.7267 50.0399 81.2158 51.3569 79.391 52.3423C77.5873 53.4258 75.6461 54.3263 73.6279 55.2182C73.3695 55.3324 73.1157 55.4553 72.8664 55.5856C72.0679 56.0028 71.3221 56.3996 70.6402 56.8977C67.836 58.7463 66.28 61.5059 65.302 64.6048C64.813 66.1543 64.4653 67.7857 64.1699 69.4258C64.1427 82.3194 52.1048 91.7505 38.9634 89.1411C38.4447 89.0182 38.0185 88.8078 37.5171 88.6291C35.914 87.9883 34.455 87.0924 33.1572 85.8856C30.9637 83.8141 29.6998 81.328 28.7735 78.676C28.4647 77.792 28.1935 76.8895 27.9378 75.9779C27.1935 73.2576 26.5828 70.3514 24.4918 68.2126C21.3554 65.0042 17.3032 63.4939 13.5575 60.8819C7.62723 56.7541 8.03592 48.944 12.2691 44.978C12.9331 44.3101 13.6003 43.7381 14.2841 43.1091C17.8258 40.1159 22.6575 39.8395 27.2555 38.834C29.9782 38.1778 32.4092 36.7683 33.4845 34.1276C35.8025 28.7273 37.3356 23.2186 41.0434 18.8806C41.5564 18.2255 42.0948 17.5928 42.6591 16.9893C44.3518 15.1789 46.2773 13.632 48.4474 12.5359C49.3155 12.0975 50.2227 11.7312 51.1699 11.4491C61.3785 7.97045 74.6676 11.5883 81.5141 22.0943C82.7589 24.0045 83.9285 25.9462 84.8725 27.9826C85.6331 29.6581 86.3357 31.3094 86.8911 33.1197C87.0433 33.6883 87.2127 34.201 87.3556 34.7682C87.5922 35.6906 87.7441 36.5316 87.803 37.2714Z" fill="#FF8200" fill-opacity="0.35"/>
<g id="Group_3">
<path id="Vector_3" d="M33.0694 27.2372C32.0553 28.7099 30.7364 29.7233 29.4138 30.1759C28.0912 30.6286 26.7546 30.5243 25.7 29.7633C24.6455 29.0024 24.0722 27.7289 24.0089 26.2797C23.9456 24.8305 24.4016 23.2024 25.4097 21.7312C26.4177 20.2599 27.7919 19.2221 29.1858 18.7397C30.5796 18.2573 31.9785 18.3357 33.0336 19.0975C34.0886 19.8593 34.607 21.1571 34.6035 22.6342C34.6 24.1113 34.0834 25.7646 33.0694 27.2372Z" fill="#FF8200" fill-opacity="0.35"/>
<path id="Vector_4" d="M78.8494 63.0397C80.0873 65.4907 78.4315 68.5385 75.8222 69.8267C74.44 70.5181 72.9683 70.6756 71.6868 70.3959C70.4054 70.1162 69.3061 69.4046 68.688 68.3243C68.07 67.2439 68.048 65.9982 68.512 64.8593C69.5688 62.3131 72.7483 60.8605 75.6469 61.1508C77.044 61.3051 78.237 61.932 78.8494 63.0397Z" fill="#FF8200" fill-opacity="0.35"/>
</g>
</g>
</g>
</g>
<g id="Layer_3">
<g id="Group_4">
<g id="Clip path group">
<mask id="mask0_2789_15881" style="mask-type:luminance" maskUnits="userSpaceOnUse" x="9" y="10" width="79" height="80">
<g id="SVGID_00000115494578821295461510000007307079784782970784_">
<path id="Vector_5" d="M87.803 37.2714C87.9097 38.6089 87.7282 39.7962 87.5478 41.0157C87.4903 41.4045 87.4172 41.7893 87.3285 42.1685C87.2886 42.3394 87.2488 42.507 87.209 42.6751C86.6954 44.8439 85.6971 46.8186 84.2526 48.4185C84.2065 48.4696 84.16 48.5204 84.1129 48.5709C82.7267 50.0399 81.2158 51.3569 79.391 52.3423C77.5873 53.4258 75.6461 54.3263 73.6279 55.2182C73.3695 55.3324 73.1157 55.4553 72.8664 55.5856C72.0679 56.0028 71.3221 56.3996 70.6402 56.8977C67.836 58.7463 66.28 61.5059 65.302 64.6048C64.813 66.1543 64.4653 67.7857 64.1699 69.4258C64.1427 82.3194 52.1048 91.7505 38.9634 89.1411C38.4447 89.0182 38.0185 88.8078 37.5171 88.6291C35.914 87.9883 34.455 87.0924 33.1572 85.8856C30.9637 83.8141 29.6998 81.328 28.7735 78.676C28.4647 77.792 28.1935 76.8895 27.9378 75.9779C27.1935 73.2576 26.5828 70.3514 24.4918 68.2126C21.3554 65.0042 17.3032 63.4939 13.5575 60.8819C7.62723 56.7541 8.03592 48.944 12.2691 44.978C12.9331 44.3101 13.6003 43.7381 14.2841 43.1091C17.8258 40.1159 22.6575 39.8395 27.2555 38.834C29.9782 38.1778 32.4092 36.7683 33.4845 34.1276C35.8025 28.7273 37.3356 23.2186 41.0434 18.8806C41.5564 18.2255 42.0948 17.5928 42.6591 16.9893C44.3518 15.1789 46.2773 13.632 48.4474 12.5359C49.3155 12.0975 50.2227 11.7312 51.1699 11.4491C61.3785 7.97045 74.6676 11.5883 81.5141 22.0943C82.7589 24.0045 83.9285 25.9462 84.8725 27.9826C85.6331 29.6581 86.3357 31.3094 86.8911 33.1197C87.0433 33.6883 87.2127 34.201 87.3556 34.7682C87.5922 35.6906 87.7441 36.5316 87.803 37.2714ZM34.6036 22.6343C34.6071 21.1572 34.0887 19.8594 33.0337 19.0976C31.9787 18.3357 30.5798 18.2574 29.1859 18.7398C27.7921 19.2222 26.4179 20.26 25.4098 21.7313C24.4017 23.2025 23.9457 24.8306 24.0091 26.2798C24.0724 27.7289 24.6457 29.0025 25.7002 29.7634C26.7547 30.5244 28.0914 30.6287 29.4139 30.176C30.7365 29.7233 32.0555 28.71 33.0695 27.2373C34.0836 25.7647 34.6002 24.1114 34.6036 22.6343ZM75.647 61.1509C72.7483 60.8606 69.5689 62.3133 68.5121 64.8594C68.0481 65.9983 68.0701 67.244 68.6881 68.3244C69.3062 69.4048 70.4055 70.1163 71.6869 70.396C72.9684 70.6758 74.4401 70.5182 75.8223 69.8268C78.4315 68.5386 80.0874 65.4909 78.8495 63.0399C78.2371 61.9321 77.044 61.3052 75.647 61.1509Z" fill="white"/>
</g>
</mask>
<g mask="url(#mask0_2789_15881)">
<path id="Vector_6" opacity="0.19" d="M69.296 74.691H36.1722C33.4704 74.691 31.2802 72.5008 31.2802 69.799V29.3044C31.2802 26.6027 33.4704 24.4125 36.1722 24.4125H69.296C71.9977 24.4125 74.1879 26.6027 74.1879 29.3044V69.799C74.1879 72.5008 71.9977 74.691 69.296 74.691Z" fill="#3636CF"/>
</g>
</g>
</g>
<g id="Group_5">
<g id="Group_6">
<path id="Vector_7" d="M65.9685 71.4314H32.8447C30.1429 71.4314 27.9527 69.2412 27.9527 66.5394V26.0448C27.9527 23.3431 30.1429 21.1528 32.8447 21.1528H65.9685C68.6702 21.1528 70.8604 23.343 70.8604 26.0448V66.5394C70.8604 69.2411 68.6702 71.4314 65.9685 71.4314Z" fill="white"/>
</g>
<g id="Group_7">
<path id="Vector_8" d="M38.8501 57.923H61.1335" stroke="#D4D4D4" stroke-width="1.71578" stroke-miterlimit="10" stroke-linecap="square"/>
<path id="Vector_9" d="M42.4175 61.6113H57.5658" stroke="#D4D4D4" stroke-width="1.71578" stroke-miterlimit="10" stroke-linecap="square"/>
</g>
<g id="Group_8">
<path id="Vector_10" d="M49.9371 49.3991C55.0591 49.3991 59.2114 45.2468 59.2114 40.1248C59.2114 35.0027 55.0591 30.8505 49.9371 30.8505C44.815 30.8505 40.6628 35.0027 40.6628 40.1248C40.6628 45.2468 44.815 49.3991 49.9371 49.3991Z" stroke="#FF8200" stroke-width="2.31156" stroke-miterlimit="10" stroke-linecap="round"/>
<path id="Vector_11" d="M45.8671 40.1249L49.0069 43.2647L60.7984 30.8506" stroke="#05BD6B" stroke-width="2.31156" stroke-miterlimit="10" stroke-linecap="square"/>
</g>
</g>
</g>
</g>
<defs>
<clipPath id="clip0_2789_15881">
<rect width="99.4233" height="99.4233" fill="white"/>
</clipPath>
</defs>
</svg>
