<svg width="120" height="96" viewBox="0 0 120 96" fill="none" xmlns="http://www.w3.org/2000/svg">
<g id="Group">
<path id="Vector" d="M117.638 55.7622C117.638 60.3656 117.08 64.8383 116.029 69.1168C115.976 69.332 115.922 69.5465 115.867 69.7603C113.533 78.7876 108.994 86.9287 102.859 93.5742H20.8929C11.7188 83.6357 6.11401 70.354 6.11401 55.7622C6.11401 46.0418 8.60115 36.9025 12.9737 28.9454C13.1839 28.5629 13.3984 28.1834 13.6173 27.807C17.4915 21.1323 22.7111 15.3355 28.9042 10.7879C29.2004 10.57 29.4985 10.3555 29.7987 10.1443C38.8711 3.75346 49.9354 0 61.8762 0C79.496 0 95.2069 8.17188 105.426 20.9325C105.597 21.146 105.766 21.3605 105.934 21.5761C113.27 31.0173 117.638 42.8794 117.638 55.7622Z" fill="#FF8200" fill-opacity="0.2"/>
<path id="Vector_2" d="M63.7217 10.1444H29.7983C29.4981 10.3556 29.1999 10.5701 28.9038 10.7879H63.7217C65.5455 10.7879 67.0294 12.2718 67.0294 14.0957V60.8931C67.0294 62.717 65.5455 64.2008 63.7217 64.2008H16.9249C15.101 64.2008 13.6172 62.717 13.6172 60.8931V27.8067C13.3983 28.1832 13.1838 28.563 12.9736 28.9452V60.8928C12.9736 63.0717 14.746 64.844 16.9249 64.844H63.722C65.9009 64.844 67.6733 63.0717 67.6733 60.8928V14.0957C67.6733 11.9174 65.9006 10.1444 63.7217 10.1444Z" fill="white"/>
<path id="Vector_3" d="M62.1703 69.1167C61.9929 69.1167 61.8487 68.9725 61.8487 68.7948V21.8976C61.8487 21.7202 61.9929 21.5757 62.1703 21.5757H105.933C105.765 21.3601 105.597 21.1456 105.425 20.9321H62.1703C61.6382 20.9321 61.2048 21.3648 61.2048 21.8976V68.7948C61.2048 69.3272 61.6382 69.7603 62.1703 69.7603H115.866C115.922 69.5464 115.976 69.3319 116.029 69.1167H62.1703Z" fill="white"/>
<path id="Vector_4" d="M63.5 96C93.0472 96 117 94.433 117 92.5C117 90.567 93.0472 89 63.5 89C33.9528 89 10 90.567 10 92.5C10 94.433 33.9528 96 63.5 96Z" fill="#E8E8E8"/>
<path id="Vector_5" d="M81.7354 84.15C82.7923 82.3546 86.7438 78.1982 93.8686 77.1417C95.0342 76.9691 97.6227 76.5852 98.5286 77.2676C100.328 78.6233 91.8717 83.3017 92.9175 84.0105C94.0292 84.7641 103.963 79.8742 105.581 80.7955C106.341 81.2282 98.7287 84.2049 98.7602 88.6515C98.7672 89.6561 99.1574 90.5068 99.5376 91.1195L79.3363 90.323C79.3363 90.3234 79.1315 88.5741 81.7354 84.15Z" fill="#24963F"/>
<g id="Group_2">
<path id="Vector_6" d="M64.5933 69.9808C56.7564 68.597 51.5067 61.0954 52.8905 53.2585L55.7397 37.1222C57.1235 29.2854 64.6251 24.0357 72.462 25.4194C80.2989 26.8032 85.5486 34.3048 84.1648 42.1417L81.3156 58.278C79.9318 66.1149 72.4302 71.3646 64.5933 69.9808ZM71.6669 29.9232C66.3134 28.9778 61.1892 32.5639 60.2438 37.9174L57.3946 54.0537C56.4492 59.4071 60.0353 64.5313 65.3888 65.4767C70.7422 66.4221 75.8664 62.8356 76.8118 57.4825L79.661 41.3462C80.6064 35.9931 77.0203 30.8686 71.6669 29.9232Z" fill="#C4D7F2"/>
<path id="Vector_7" d="M63.4166 69.7729C55.5797 68.3891 50.33 60.8875 51.7138 53.0506L54.563 36.9144C55.9468 29.0775 63.4483 23.8278 71.2852 25.2116C79.1221 26.5953 84.3718 34.0969 82.988 41.9338L80.1388 58.0701C78.755 65.907 71.2535 71.1567 63.4166 69.7729ZM70.4901 29.7153C65.1367 28.7699 60.0125 32.3561 59.0671 37.7095L56.2178 53.8458C55.2725 59.1992 58.8586 64.3234 64.212 65.2688C69.5655 66.2142 74.6897 62.6277 75.6351 57.2746L78.4843 41.1383C79.4297 35.7852 75.8435 30.6607 70.4901 29.7153Z" fill="white"/>
<path id="Vector_8" d="M76.1846 91.5983L47.8904 86.6019C44.8006 86.0564 42.7378 83.1092 43.2836 80.019L48.28 51.7248C48.8254 48.6349 51.7727 46.5721 54.8629 47.118L83.1571 52.1143C86.247 52.6598 88.3098 55.6071 87.7639 58.6973L82.7676 86.9915C82.2221 90.0813 79.2748 92.1441 76.1846 91.5983Z" fill="#536686"/>
<path id="Vector_9" d="M85.189 58.2426L80.1926 86.5371C79.6472 89.6266 76.6999 91.6897 73.6097 91.1439L45.3155 86.1476C42.2253 85.6018 40.1628 82.6541 40.7087 79.5646L45.705 51.2701C46.2508 48.1799 49.1978 46.1174 52.288 46.6633L80.5822 51.6596C83.672 52.2051 85.7345 55.1524 85.189 58.2426Z" fill="#4B566B"/>
<path id="Vector_10" opacity="0.18" d="M85.1891 58.2425L80.1928 86.537C79.6473 89.6266 76.7 91.6897 73.6098 91.1439L60.0654 88.7521L67.0376 49.2675L80.582 51.6592C83.6722 52.205 85.7346 55.1523 85.1891 58.2425Z" fill="#78AFFF"/>
<g id="Group_3">
<path id="Vector_11" opacity="0.18" d="M67.5955 67.3955C67.2809 69.1769 65.9142 70.5075 64.2479 70.8635L63.6904 74.0203C63.5726 74.6876 63.0609 75.1876 62.4368 75.3218C62.2374 75.365 62.0265 75.371 61.8133 75.3335C60.9329 75.1779 60.3446 74.3376 60.5002 73.4571L61.0577 70.3003C59.614 69.3951 58.7857 67.677 59.1003 65.8953C59.5146 63.5494 61.7524 61.9832 64.0977 62.3972C64.3018 62.4333 64.5013 62.4835 64.693 62.5461C66.7019 63.2027 67.9736 65.2541 67.5955 67.3955Z" fill="#003889"/>
<path id="Vector_12" d="M67.5957 67.3956C67.2811 69.1769 65.9144 70.5075 64.2482 70.8636L63.6907 74.0203C63.5729 74.6876 63.0612 75.1876 62.437 75.3218C61.8972 74.9811 61.5877 74.3369 61.7055 73.6696L62.263 70.5129C60.8193 69.6076 59.9911 67.8895 60.3056 66.1078C60.6838 63.966 62.5813 62.4745 64.6929 62.5458C66.7022 63.2027 67.9739 65.2541 67.5957 67.3956Z" fill="white"/>
</g>
</g>
<path id="Vector_13" opacity="0.18" d="M73.0072 88.4052C72.8091 88.3463 72.5799 88.3747 72.3874 88.4808L70.765 89.379C70.5559 89.4948 70.2955 89.4429 70.2018 89.2672L69.2491 87.4869C69.2026 87.3999 69.1169 87.3349 69.0095 87.3051L67.2077 86.8082C67.0641 86.7687 66.8985 86.7961 66.7673 86.8815L65.3607 87.7964C65.1298 87.946 64.8193 87.8915 64.7192 87.6833L63.9458 86.0797C63.8853 85.9532 63.7651 85.8588 63.6125 85.8166L58.4415 84.386L55.6361 83.6123C56.8766 79.4164 54.9644 75.4534 50.8803 74.3277C48.2295 73.5964 45.2414 74.2196 42.7366 75.7847C42.1017 72.9362 40.0627 70.6538 36.9434 69.7938C31.5521 68.3073 24.9434 71.622 22.2117 77.1829C19.4792 82.7448 21.6427 88.4791 27.034 89.966C30.3537 90.8816 34.1353 89.9763 37.188 87.8473C37.855 90.0219 39.5292 91.7363 41.9953 92.4163C45.9214 93.4992 50.5872 91.6115 53.3283 88.0902L72.6364 93.4149C72.7693 93.4514 72.9269 93.4129 73.0511 93.3122C73.0742 93.2927 73.0996 93.2717 73.1267 93.2486C73.1418 93.2355 73.1568 93.2221 73.1732 93.2081C73.1759 93.2057 73.1782 93.2037 73.1812 93.2007C73.1926 93.1907 73.2043 93.1803 73.217 93.1689C73.292 93.1013 73.3763 93.0217 73.4674 92.93C73.4871 92.9102 73.5075 92.8892 73.5283 92.8674C73.5778 92.8159 73.6293 92.7613 73.6815 92.7031C73.8144 92.5552 73.9566 92.3842 74.1032 92.1897C74.3217 91.8982 74.5486 91.5532 74.7662 91.1503C74.8184 91.0529 74.8709 90.9519 74.9221 90.8474C75.6466 89.3703 73.788 88.6397 73.0072 88.4052ZM41.1962 82.4192C41.0185 82.782 40.8227 83.1337 40.6112 83.4757C40.6042 83.456 40.5975 83.4356 40.5914 83.4151C40.5854 83.3957 40.5794 83.376 40.5747 83.3562C40.5737 83.3536 40.573 83.3509 40.5727 83.3485C40.5677 83.3315 40.5637 83.3141 40.5596 83.297C40.5483 83.2475 40.5389 83.1973 40.5312 83.1461C40.5282 83.1247 40.5255 83.1032 40.5232 83.0815C40.5202 83.0561 40.5178 83.03 40.5165 83.0039C40.5148 82.9861 40.5138 82.9684 40.5135 82.95C40.5125 82.9329 40.5118 82.9152 40.5115 82.8968C40.5111 82.8743 40.5111 82.8519 40.5118 82.8288C40.5118 82.8195 40.5121 82.8101 40.5128 82.8001C40.5131 82.7843 40.5138 82.7686 40.5145 82.7525C40.5161 82.7248 40.5178 82.6973 40.5205 82.6695L40.5212 82.6669C40.5232 82.6424 40.5258 82.6177 40.5295 82.5932C40.5319 82.5725 40.5349 82.5514 40.5389 82.5307C40.5409 82.5169 40.5432 82.5029 40.5456 82.4895C40.5727 82.3372 40.6169 82.1826 40.6788 82.0287C40.7477 81.8563 40.8334 81.693 40.9338 81.5394C40.9837 81.4628 41.0372 81.3892 41.0941 81.3175C41.0941 81.3175 41.0948 81.3175 41.0948 81.3169C41.1322 81.27 41.1714 81.2235 41.2115 81.1787C41.3126 81.0666 41.4214 80.9621 41.5375 80.8664C41.5375 80.8658 41.5375 80.8658 41.5388 80.8654C41.59 80.8373 41.6422 80.8105 41.6951 80.7854C41.7155 80.7754 41.7356 80.766 41.7564 80.7573C41.7915 80.7413 41.8263 80.7265 41.8614 80.7125C41.8655 80.7108 41.8701 80.7088 41.8748 80.7071C41.7018 81.276 41.4773 81.8483 41.1962 82.4192ZM41.6111 84.5058C41.585 84.4957 41.5592 84.485 41.5345 84.474C41.5094 84.4636 41.485 84.4519 41.4612 84.4405C41.4602 84.4405 41.4599 84.4399 41.4592 84.4395C41.4344 84.4275 41.4103 84.4151 41.3869 84.402C41.3645 84.3897 41.3424 84.3769 41.3213 84.3639C41.32 84.3632 41.3183 84.3629 41.3176 84.3612C41.3036 84.3522 41.2892 84.3435 41.2751 84.3344C41.2464 84.316 41.2189 84.2959 41.1918 84.2759C41.1741 84.2625 41.1567 84.2491 41.1396 84.235C41.1232 84.2217 41.1068 84.2083 41.0911 84.1946C41.0874 84.1915 41.0837 84.1885 41.08 84.1852C41.071 84.1775 41.062 84.1691 41.0533 84.1608C41.0385 84.147 41.0238 84.133 41.0091 84.1189C40.991 84.1005 40.9733 84.0818 40.9559 84.0627C40.9515 84.058 40.9475 84.054 40.9435 84.0486C40.9391 84.044 40.9348 84.0386 40.9308 84.0336C41.2383 83.5674 41.5178 83.0815 41.7661 82.5762C41.9257 82.2519 42.0679 81.9273 42.1941 81.602C42.333 81.2449 42.4521 80.8879 42.5522 80.5324C42.5605 80.5308 42.5689 80.5298 42.5769 80.5294C42.5913 80.5274 42.6054 80.5264 42.6198 80.5248C42.6265 80.5241 42.6321 80.5237 42.6388 80.5231C42.6586 80.5211 42.678 80.5201 42.6974 80.5184C42.7024 80.5177 42.7078 80.5177 42.7125 80.5177C42.7299 80.5167 42.7473 80.5157 42.7647 80.515C42.7921 80.514 42.8192 80.5134 42.8467 80.5134C43.1074 80.5127 43.3644 80.5565 43.6067 80.6492C43.6853 80.6794 43.7606 80.7138 43.8315 80.753C43.855 80.766 43.8784 80.7798 43.9012 80.7938C43.9467 80.8216 43.9905 80.8517 44.0323 80.8832C44.0531 80.8989 44.0738 80.915 44.0936 80.9317C44.0936 80.9317 44.0936 80.9317 44.0942 80.9317C44.1341 80.9652 44.1722 81 44.209 81.0361H44.2097C44.2455 81.0732 44.2803 81.1114 44.3124 81.1506C44.3235 81.1643 44.3345 81.1777 44.3452 81.1917C44.3884 81.2469 44.4279 81.3055 44.464 81.3661C44.4821 81.3969 44.4988 81.4276 44.5146 81.4594C44.5226 81.4752 44.5303 81.4909 44.5377 81.507C44.5427 81.5177 44.5474 81.5287 44.552 81.5394C44.5671 81.5732 44.5815 81.6074 44.5942 81.6422C44.6019 81.6629 44.6093 81.6843 44.616 81.7054C44.6273 81.7392 44.6371 81.7743 44.6461 81.8091C44.6551 81.8443 44.6635 81.8798 44.6702 81.9152C44.6702 81.9152 44.6709 81.9152 44.6705 81.9159C44.6856 81.9925 44.6953 82.0708 44.701 82.1505C44.7057 82.2174 44.7073 82.285 44.705 82.3536C44.707 82.2884 44.7053 82.2238 44.7013 82.1602C44.7057 82.2241 44.7073 82.2884 44.7053 82.3536C44.704 82.3814 44.703 82.4088 44.7013 82.4373C44.7003 82.444 44.7 82.451 44.6996 82.457C44.6993 82.4617 44.6986 82.4664 44.6983 82.4711C44.6966 82.4918 44.6943 82.5129 44.6919 82.5333C44.6903 82.5454 44.6889 82.5574 44.6876 82.5688C44.6859 82.5809 44.6846 82.5929 44.6826 82.605C44.6796 82.6257 44.6762 82.6471 44.6722 82.6682C44.6447 82.8195 44.6002 82.9731 44.539 83.1267C44.5042 83.2127 44.4657 83.297 44.4235 83.3783C44.4235 83.3783 44.4239 83.379 44.4232 83.3793C44.366 83.4878 44.3024 83.5922 44.2331 83.6919C44.0758 83.9165 43.8884 84.1172 43.6793 84.2903C43.0257 84.6477 42.2654 84.7554 41.6111 84.5058ZM27.3218 89.3787C22.2444 87.9785 20.2071 82.5775 22.7796 77.3402C25.3527 72.1029 31.5766 68.9809 36.6539 70.3814C39.6484 71.2074 41.586 73.4248 42.1439 76.179C40.5466 77.3091 39.1876 78.8344 38.3024 80.6369C38.2305 80.7841 38.1619 80.9317 38.0973 81.0789C38.0203 81.2188 37.9473 81.3604 37.8764 81.5039C37.0009 83.286 36.7121 85.0864 36.936 86.7078C36.9625 86.8999 36.9966 87.0893 37.0371 87.2757C34.1363 89.3572 30.5033 90.2564 27.3218 89.3787Z" fill="#003889"/>
<g id="Group_4">
<path id="Vector_14" d="M46.211 73.8057C43.4019 73.0544 40.549 73.6946 38.3828 75.3026C38.2091 75.4314 38.0401 75.5663 37.8761 75.7068C36.5235 76.8678 35.4951 78.4349 35.0001 80.2869C34.96 80.4382 34.9235 80.5898 34.8907 80.741C33.8754 85.4797 36.7467 90.2318 41.481 91.4978C46.2187 92.7644 51.0822 90.0745 52.5634 85.4549C52.6095 85.3107 52.6524 85.1648 52.6922 85.0169C53.9987 80.1313 51.0966 75.1118 46.211 73.8057ZM38.2801 82.1184C38.181 82.4913 38.0612 82.8527 37.924 83.2041C37.9126 83.1836 37.9016 83.1629 37.8912 83.1418C37.8812 83.1221 37.8708 83.1017 37.8617 83.0812C37.8601 83.0786 37.8591 83.0759 37.8581 83.0732C37.8494 83.0555 37.8413 83.0377 37.834 83.02C37.8119 82.9691 37.7915 82.9176 37.7727 82.8651C37.7654 82.843 37.7577 82.8212 37.7506 82.7985C37.7419 82.772 37.7339 82.7452 37.7269 82.7185C37.7215 82.7004 37.7165 82.682 37.7125 82.6633C37.7078 82.6455 37.7035 82.6275 37.6991 82.6087C37.6937 82.5856 37.6891 82.5625 37.6847 82.5391C37.6827 82.5294 37.681 82.5197 37.6794 82.5097C37.676 82.4936 37.6733 82.4775 37.6707 82.4608C37.6663 82.4324 37.662 82.4039 37.6589 82.3755V82.3728C37.6556 82.3477 37.6529 82.3223 37.6516 82.2972C37.6496 82.2757 37.6479 82.2543 37.6472 82.2329C37.6462 82.2188 37.6456 82.2045 37.6452 82.1904C37.6392 82.0338 37.6499 81.8752 37.6784 81.7169C37.7101 81.5398 37.7603 81.3722 37.8273 81.2142C37.8604 81.1352 37.8982 81.0596 37.9394 80.9863C37.9394 80.9863 37.9401 80.9863 37.9401 80.9857C37.9675 80.9375 37.9963 80.8896 38.0271 80.8434C38.1037 80.728 38.19 80.6209 38.2854 80.5228C38.2854 80.5222 38.2854 80.5222 38.2864 80.5218C38.3316 80.4927 38.3781 80.4656 38.4253 80.4398C38.4437 80.4298 38.4618 80.4201 38.4805 80.411C38.5123 80.3943 38.5438 80.3793 38.5759 80.3649C38.5796 80.3632 38.5839 80.3612 38.5883 80.3595C38.5377 80.9438 38.437 81.5315 38.2801 82.1184ZM41.7139 83.104C41.6801 83.2154 41.6393 83.3229 41.5918 83.4253C41.483 83.6558 41.3391 83.8623 41.1674 84.0397C40.5918 84.4075 39.8553 84.5179 39.1468 84.2616C39.1184 84.2515 39.0906 84.2401 39.0631 84.2288C39.0357 84.2181 39.0089 84.2063 38.9828 84.1943C38.9818 84.1943 38.9812 84.1936 38.9808 84.1933C38.9534 84.1809 38.9266 84.1682 38.9005 84.1548C38.8754 84.1421 38.8506 84.129 38.8265 84.1157C38.8249 84.115 38.8232 84.1147 38.8222 84.113C38.8061 84.1039 38.7901 84.0949 38.774 84.0855C38.7412 84.0665 38.7094 84.046 38.678 84.0253C38.6572 84.0116 38.6371 83.9979 38.6171 83.9835C38.5976 83.9697 38.5786 83.956 38.5598 83.9416C38.5555 83.9386 38.5511 83.9353 38.5468 83.9319C38.5431 83.9292 38.5394 83.9266 38.5354 83.9239C38.5284 83.9179 38.5213 83.9125 38.5147 83.9068C38.4969 83.8928 38.4792 83.8784 38.4614 83.864C38.4394 83.8453 38.4176 83.8258 38.3962 83.8061C38.3908 83.8014 38.3858 83.7971 38.3808 83.7917C38.3754 83.787 38.3701 83.7817 38.3647 83.7763C38.5712 83.2974 38.7456 82.7981 38.8844 82.2791C38.9741 81.9461 39.0457 81.6125 39.1016 81.2785C39.1632 80.9117 39.205 80.5449 39.2281 80.1795C39.2362 80.1778 39.2442 80.1768 39.2522 80.1761C39.2663 80.1741 39.28 80.1728 39.2941 80.1714C39.3004 80.1708 39.3064 80.1704 39.3128 80.1698C39.3322 80.1678 39.3513 80.1664 39.37 80.1651C39.3747 80.1644 39.3801 80.1644 39.3851 80.1644C39.4021 80.1634 39.4196 80.1624 39.4366 80.1617C39.4641 80.1607 39.4908 80.1601 39.5183 80.1601C39.779 80.1594 40.0454 80.2046 40.3077 80.2996C40.3931 80.3307 40.4757 80.3662 40.555 80.4064C40.5811 80.4198 40.6076 80.4338 40.6333 80.4482C40.6849 80.4766 40.7351 80.5078 40.7839 80.5399C40.808 80.556 40.8321 80.5727 40.8559 80.5898C40.8559 80.5898 40.8559 80.5898 40.8565 80.5898C40.9037 80.6242 40.9493 80.66 40.9938 80.6972H40.9944C41.0383 80.7353 41.0814 80.7745 41.1219 80.8146C41.136 80.8287 41.1497 80.8424 41.1638 80.8571C41.219 80.914 41.2712 80.9739 41.3204 81.0362C41.3451 81.068 41.3686 81.0994 41.3913 81.1322C41.4027 81.1483 41.4137 81.1644 41.4245 81.1811C41.4271 81.1854 41.4305 81.1898 41.4332 81.1935C41.4606 81.2346 41.4864 81.2771 41.5105 81.32C41.5228 81.3414 41.5346 81.3635 41.5459 81.3849C41.5647 81.4197 41.5817 81.4558 41.5985 81.4916C41.6152 81.5275 41.6313 81.5639 41.6457 81.6004C41.6457 81.6004 41.6463 81.6004 41.6463 81.6011C41.7042 81.746 41.7481 81.8966 41.7762 82.0508C41.7809 82.0793 41.7859 82.1077 41.7902 82.1365C41.7909 82.1435 41.7919 82.1506 41.7929 82.1569C41.7936 82.1616 41.7939 82.1666 41.7946 82.1713C41.7973 82.1927 41.7993 82.2142 41.8016 82.2352C41.8026 82.2476 41.8036 82.26 41.805 82.2717C41.806 82.2841 41.807 82.2965 41.8076 82.3089C41.8093 82.3303 41.8103 82.3524 41.811 82.3738C41.8163 82.5294 41.805 82.687 41.7772 82.8446C41.7611 82.933 41.7407 83.0193 41.7159 83.103C41.7139 83.103 41.7143 83.1033 41.7139 83.104Z" fill="#C4D7F2"/>
<path id="Vector_15" d="M62.9425 87.5268C63.0877 87.741 63.4103 87.7968 63.6088 87.6432L64.8172 86.7032C64.9296 86.6155 65.0896 86.5871 65.2415 86.6279L67.1507 87.1382C67.2645 87.1687 67.3646 87.2356 67.4298 87.325L68.7684 89.1542C68.9003 89.3346 69.172 89.3878 69.3561 89.269L70.7841 88.346C70.9534 88.2369 71.1766 88.2075 71.3871 88.268C72.2187 88.509 74.2357 89.2593 73.8297 90.7773C73.801 90.8843 73.7705 90.9884 73.7394 91.0885C73.6092 91.5024 73.4573 91.8568 73.3016 92.1564C73.1972 92.3561 73.0922 92.5318 72.9911 92.6838C72.9513 92.7437 72.9121 92.7999 72.8733 92.8528C72.8572 92.8752 72.8415 92.8966 72.8261 92.917C72.7548 93.0114 72.6879 93.0934 72.6277 93.1627C72.6173 93.1744 72.6082 93.1847 72.5989 93.1951C72.5965 93.1981 72.5945 93.2005 72.5925 93.2028C72.5795 93.2172 72.5671 93.2313 72.5547 93.2443C72.5326 93.2677 72.5119 93.2895 72.4928 93.3096C72.3904 93.413 72.2411 93.4528 72.1006 93.415L50.2163 87.5639L51.4532 82.937L55.9506 84.1394L61.4315 85.6092C61.5932 85.6524 61.7337 85.7494 61.8217 85.8793L62.9425 87.5268Z" fill="#FF8200"/>
<path id="Vector_16" d="M50.7017 84.9288L73.7395 91.0881C73.6093 91.5021 73.4574 91.8565 73.3018 92.156C73.1974 92.3558 73.0923 92.5315 72.9912 92.6834C72.9514 92.7433 72.9122 92.7995 72.8734 92.8524C72.8573 92.8748 72.8416 92.8962 72.8262 92.9167C72.7549 93.011 72.688 93.093 72.6278 93.1623C72.6174 93.174 72.6084 93.1844 72.599 93.1947C72.5967 93.1978 72.5946 93.2001 72.5926 93.2024C72.5796 93.2168 72.5672 93.2309 72.5548 93.2439C72.5327 93.2674 72.512 93.2891 72.4929 93.3092C72.3905 93.4126 72.2413 93.4524 72.1007 93.4146L50.012 87.509L50.7017 84.9288Z" fill="white"/>
<path id="Vector_17" d="M51.7129 86.3842L73.3017 92.1559C73.1973 92.3557 73.0922 92.5314 72.9911 92.6833L51.5603 86.9537L51.7129 86.3842Z" fill="#FF8200"/>
<path id="Vector_18" d="M45.9731 74.6965C43.5573 74.0503 41.1089 74.4332 39.093 75.576C38.9283 75.6697 38.7664 75.7681 38.6078 75.8708C38.5847 75.8852 38.5622 75.9 38.5395 75.9147C38.3822 76.0191 38.2283 76.1285 38.0777 76.243C36.6223 77.3446 35.4841 78.8874 34.8904 80.7407C34.8439 80.8843 34.8014 81.0298 34.7616 81.1771C34.272 83.008 34.3734 84.8576 34.9483 86.5235C35.0166 86.7209 35.0916 86.9154 35.1725 87.1071C35.1759 87.1142 35.1786 87.1215 35.1816 87.1292C35.1986 87.169 35.2161 87.2085 35.2335 87.2484C35.2502 87.2865 35.2672 87.3247 35.285 87.3621C35.2984 87.3923 35.3128 87.422 35.3268 87.4522C35.3429 87.4866 35.3596 87.5208 35.376 87.5546C35.3991 87.6017 35.4222 87.6483 35.4456 87.6944C36.5838 89.9286 38.6292 91.6899 41.2425 92.3886C46.1281 93.6951 51.1472 90.7937 52.4537 85.9077C52.4938 85.7571 52.5303 85.6059 52.5631 85.4549C53.5791 80.7159 50.7081 75.9622 45.9731 74.6965ZM40.3068 80.2996C40.3921 80.3308 40.4748 80.3662 40.5541 80.4064C40.5802 80.4198 40.6066 80.4338 40.6324 80.4482C40.6839 80.4767 40.7341 80.5078 40.783 80.5399C40.8071 80.556 40.8312 80.5727 40.8549 80.5898C40.8549 80.5898 40.8549 80.5898 40.8556 80.5898C40.9028 80.6242 40.9483 80.66 40.9928 80.6972H40.9935C41.0373 80.7353 41.0805 80.7745 41.121 80.8147C41.135 80.8287 41.1488 80.8424 41.1628 80.8572C41.218 80.9141 41.2702 80.974 41.3194 81.0362C41.3442 81.068 41.3676 81.0994 41.3904 81.1322C41.4018 81.1483 41.4128 81.1644 41.4235 81.1811C41.4262 81.1855 41.4295 81.1898 41.4322 81.1935C41.4597 81.2347 41.4854 81.2772 41.5095 81.32C41.5219 81.3414 41.5336 81.3635 41.545 81.3849C41.5637 81.4197 41.5808 81.4559 41.5975 81.4917C41.6143 81.5275 41.6303 81.5639 41.6447 81.6004C41.6447 81.6004 41.6454 81.6004 41.6454 81.6011C41.7033 81.746 41.7471 81.8966 41.7752 82.0509C41.7799 82.0793 41.7849 82.1078 41.7893 82.1365C41.79 82.1436 41.791 82.1506 41.792 82.157C41.7926 82.1616 41.793 82.1667 41.7936 82.1713C41.7963 82.1928 41.7983 82.2142 41.8007 82.2353C41.8017 82.2476 41.8027 82.26 41.804 82.2717C41.805 82.2841 41.806 82.2965 41.8067 82.3089C41.8084 82.3303 41.8094 82.3524 41.81 82.3738C41.8154 82.5294 41.804 82.687 41.7762 82.8447C41.7602 82.933 41.7398 83.0194 41.715 83.103C41.715 83.103 41.7157 83.1037 41.715 83.104C41.6812 83.2155 41.6404 83.3229 41.5929 83.4253C41.4841 83.6559 41.3402 83.8623 41.1685 84.0397C40.5929 84.4075 39.8563 84.5179 39.1479 84.2616C39.1194 84.2515 39.0917 84.2402 39.0642 84.2288C39.0368 84.2181 39.01 84.2064 38.9839 84.1943C38.9829 84.1943 38.9822 84.1936 38.9819 84.1933C38.9545 84.1809 38.9277 84.1682 38.9016 84.1548C38.8765 84.1421 38.8517 84.1291 38.8276 84.1157C38.8259 84.115 38.8243 84.1147 38.8233 84.113C38.8072 84.104 38.7911 84.0949 38.7751 84.0856C38.7423 84.0665 38.7105 84.0461 38.679 84.0253C38.6583 84.0116 38.6382 83.9979 38.6181 83.9835C38.5987 83.9698 38.5796 83.956 38.5609 83.9417C38.5565 83.9386 38.5522 83.9353 38.5478 83.9319C38.5442 83.9293 38.5405 83.9266 38.5365 83.9239C38.5294 83.9179 38.5224 83.9125 38.5157 83.9068C38.498 83.8928 38.4803 83.8784 38.4625 83.864C38.4404 83.8453 38.4187 83.8259 38.3973 83.8061C38.3919 83.8014 38.3869 83.7971 38.3819 83.7917C38.3765 83.787 38.3712 83.7817 38.3658 83.7763C38.5723 83.2974 38.7466 82.7981 38.8855 82.2791C38.9752 81.9461 39.0468 81.6125 39.1027 81.2785C39.1643 80.9117 39.2061 80.5449 39.2292 80.1795C39.2372 80.1778 39.2453 80.1768 39.2533 80.1761C39.2674 80.1741 39.2811 80.1728 39.2951 80.1715C39.3015 80.1708 39.3075 80.1705 39.3139 80.1698C39.3333 80.1678 39.3524 80.1664 39.3711 80.1651C39.3758 80.1644 39.3811 80.1644 39.3862 80.1644C39.4032 80.1634 39.4206 80.1624 39.4377 80.1618C39.4651 80.1607 39.4919 80.1601 39.5193 80.1601C39.778 80.1597 40.0444 80.2049 40.3068 80.2996ZM37.6784 81.7165C37.7102 81.5395 37.7604 81.3719 37.8273 81.2139C37.8605 81.1349 37.8983 81.0593 37.9395 80.986C37.9395 80.986 37.9401 80.986 37.9401 80.9853C37.9676 80.9371 37.9963 80.8893 38.0271 80.8431C38.1038 80.7277 38.1901 80.6206 38.2855 80.5225C38.2855 80.5218 38.2855 80.5218 38.2865 80.5215C38.3317 80.4924 38.3782 80.4653 38.4254 80.4395C38.4438 80.4295 38.4618 80.4198 38.4806 80.4107C38.5124 80.394 38.5438 80.3789 38.576 80.3646C38.5796 80.3629 38.584 80.3609 38.5883 80.3592C38.5378 80.9438 38.4371 81.5315 38.2801 82.1181C38.1811 82.4909 38.0613 82.8524 37.9241 83.2037C37.9127 83.1833 37.9016 83.1626 37.8913 83.1415C37.8812 83.1218 37.8708 83.1013 37.8618 83.0809C37.8601 83.0782 37.8591 83.0756 37.8581 83.0729C37.8494 83.0552 37.8414 83.0374 37.834 83.0197C37.8119 82.9688 37.7915 82.9173 37.7728 82.8647C37.7654 82.8427 37.7577 82.8209 37.7507 82.7981C37.742 82.7717 37.734 82.7449 37.7269 82.7182C37.7216 82.7001 37.7166 82.6817 37.7126 82.6629C37.7079 82.6452 37.7035 82.6271 37.6992 82.6084C37.6938 82.5853 37.6891 82.5622 37.6848 82.5388C37.6828 82.5291 37.6811 82.5194 37.6794 82.5093C37.6761 82.4933 37.6734 82.4772 37.6707 82.4605C37.6664 82.432 37.662 82.4036 37.659 82.3751V82.3725C37.6557 82.3474 37.653 82.3219 37.6517 82.2968C37.6496 82.2754 37.648 82.254 37.6473 82.2326C37.6463 82.2185 37.6456 82.2041 37.6453 82.1901C37.6393 82.0335 37.65 81.8748 37.6784 81.7165Z" fill="white"/>
<path id="Vector_19" d="M41.1677 84.0398C40.5546 84.6743 39.5958 84.9323 38.6896 84.5836C37.6756 84.1937 37.0725 83.1185 37.2663 82.0489C37.3858 81.3866 37.7709 80.8515 38.2856 80.5226C38.1903 80.6206 38.1039 80.728 38.0273 80.8432C37.9968 80.8893 37.9677 80.9369 37.9403 80.9854C37.9403 80.986 37.9396 80.9861 37.9396 80.9861C37.8984 81.0597 37.8606 81.1353 37.8275 81.2139C37.7606 81.3716 37.71 81.5396 37.6786 81.7166C37.6501 81.8749 37.6394 82.0335 37.6454 82.1901C37.6461 82.2042 37.6465 82.2186 37.6475 82.2326C37.6481 82.254 37.6495 82.2755 37.6518 82.2969C37.6535 82.322 37.6562 82.3474 37.6592 82.3725V82.3752C37.6625 82.4036 37.6665 82.4321 37.6709 82.4605C37.6736 82.4773 37.6762 82.4933 37.6796 82.5094C37.6813 82.5194 37.6829 82.5291 37.6849 82.5388C37.6893 82.5626 37.694 82.5854 37.6993 82.6084C37.7037 82.6272 37.708 82.6456 37.7127 82.663C37.7171 82.6817 37.7218 82.7001 37.7271 82.7182C37.7341 82.745 37.7422 82.7718 37.7509 82.7982C37.7579 82.8206 37.7653 82.8427 37.773 82.8648C37.7917 82.9173 37.8121 82.9689 37.8342 83.0197C37.8416 83.0375 37.8496 83.0552 37.8583 83.0729C37.8593 83.0756 37.8603 83.0783 37.862 83.081C37.871 83.1014 37.8814 83.1218 37.8914 83.1415C37.9018 83.1623 37.9128 83.1834 37.9242 83.2038C38.0614 82.8524 38.1812 82.491 38.2803 82.1182C38.4376 81.5315 38.5383 80.9435 38.5885 80.3592C38.5999 80.3539 38.6109 80.3492 38.623 80.3442C38.6578 80.3291 38.6926 80.3147 38.7287 80.3023C38.7388 80.298 38.7495 80.2943 38.7598 80.291C38.7779 80.2839 38.797 80.2776 38.8151 80.2722C38.8224 80.2696 38.8294 80.2669 38.8365 80.2652C38.8532 80.2599 38.8693 80.2545 38.8857 80.2501C38.9071 80.2438 38.9292 80.2378 38.9506 80.2324C38.973 80.2264 38.9958 80.221 39.0182 80.2157C39.0256 80.214 39.0326 80.2123 39.0403 80.211C39.0563 80.2076 39.0724 80.2046 39.0891 80.2013C39.1015 80.1986 39.1142 80.1966 39.1266 80.1943C39.1437 80.1909 39.1614 80.1882 39.1792 80.1856C39.1855 80.1846 39.1915 80.1836 39.1979 80.1829C39.2026 80.1819 39.2079 80.1812 39.2133 80.1809C39.218 80.1799 39.223 80.1792 39.2274 80.1792C39.2043 80.5443 39.1624 80.9111 39.1009 81.2782C39.045 81.6122 38.9734 81.9458 38.8837 82.2788C38.7448 82.7979 38.5704 83.2972 38.3639 83.776C38.3693 83.7814 38.3747 83.7868 38.38 83.7914C38.3854 83.7968 38.3901 83.8011 38.3954 83.8058C38.4168 83.8256 38.4389 83.845 38.4607 83.8637C38.4784 83.8781 38.4961 83.8928 38.5139 83.9066C38.5209 83.9126 38.5279 83.9179 38.5346 83.9236C38.5383 83.9263 38.542 83.929 38.546 83.9317C38.5504 83.935 38.5547 83.9383 38.5591 83.9414C38.5778 83.9558 38.5969 83.9695 38.6163 83.9832C38.6364 83.9976 38.6568 84.0113 38.6772 84.025C38.7086 84.0458 38.7404 84.0662 38.7732 84.0853C38.7893 84.0943 38.8054 84.1037 38.8214 84.1127C38.8224 84.1144 38.8241 84.1147 38.8258 84.1154C38.8499 84.1288 38.8746 84.1418 38.8997 84.1545C38.9262 84.1679 38.9529 84.181 38.98 84.193C38.9807 84.1937 38.981 84.194 38.9821 84.194C39.0085 84.2057 39.0353 84.2178 39.0624 84.2285C39.0898 84.2399 39.1176 84.2509 39.146 84.2613C39.8552 84.5183 40.5921 84.4079 41.1677 84.0398Z" fill="#C4D7F2"/>
<path id="Vector_20" d="M49.7696 82.3417L48.348 87.6583C48.269 87.9532 47.9635 88.1299 47.6687 88.0512C47.3738 87.9722 47.1971 87.6667 47.2758 87.3719L48.6974 82.0553C48.7764 81.7604 49.0819 81.5837 49.3767 81.6624C49.6716 81.7414 49.8483 82.0469 49.7696 82.3417Z" fill="#FF8200"/>
<path id="Vector_21" opacity="0.18" d="M39.3841 80.1647C39.3794 80.1647 39.3741 80.1648 39.3691 80.1654C39.3503 80.1671 39.3309 80.1681 39.3118 80.1701C39.3055 80.1708 39.2995 80.1711 39.2931 80.1718C39.279 80.1734 39.2653 80.1744 39.2513 80.1765C39.2432 80.1771 39.2352 80.1781 39.2272 80.1798C39.2041 80.5449 39.1622 80.9117 39.1007 81.2788L38.5445 81.1295C38.6181 80.8538 38.679 80.5784 38.7285 80.3026C38.9973 78.8054 38.9166 77.3122 38.5398 75.9153C38.5622 75.9003 38.585 75.8859 38.6081 75.8715C38.7667 75.7684 38.9287 75.6704 39.0933 75.5767C39.5133 77.0331 39.6288 78.5942 39.3841 80.1647Z" fill="#003889"/>
<path id="Vector_22" d="M39.2271 80.1793C39.204 80.5444 39.1621 80.9112 39.1006 81.2783C39.0447 81.6123 38.9731 81.946 38.8834 82.2789C38.7445 82.798 38.5701 83.2973 38.3636 83.7762C38.3536 83.7671 38.3432 83.7574 38.3335 83.7477C38.3329 83.7477 38.3319 83.7471 38.3315 83.7457C38.3111 83.726 38.2914 83.7056 38.2716 83.6845C38.2522 83.6637 38.2325 83.642 38.2137 83.6206C38.195 83.5985 38.1762 83.5767 38.1578 83.554C38.1398 83.5319 38.122 83.5088 38.1046 83.4857C38.0876 83.4626 38.0708 83.4395 38.0541 83.4154C38.0374 83.3916 38.022 83.3682 38.0062 83.3435C37.9908 83.3194 37.9758 83.2953 37.9611 83.2698C37.9483 83.2478 37.936 83.226 37.9236 83.2032V83.2026C38.0608 82.8512 38.1806 82.4898 38.2797 82.117C38.4369 81.5303 38.5377 80.9423 38.5879 80.358C38.5992 80.3527 38.6103 80.348 38.6223 80.343C38.6571 80.3279 38.6919 80.3135 38.7281 80.3011C38.7381 80.2968 38.7488 80.2931 38.7592 80.2898C38.7773 80.2827 38.7964 80.2764 38.8144 80.271C38.8218 80.2683 38.8288 80.2657 38.8358 80.264C38.8526 80.2586 38.8686 80.2533 38.885 80.2489C38.9065 80.2426 38.9285 80.2365 38.95 80.2312C38.9724 80.2252 38.9951 80.2198 39.0176 80.2145C39.0249 80.2128 39.032 80.2111 39.0396 80.2098C39.0557 80.2064 39.0718 80.2034 39.0885 80.2001C39.1009 80.1974 39.1136 80.1954 39.126 80.193C39.1431 80.1897 39.1608 80.187 39.1785 80.1843C39.1849 80.1833 39.1909 80.1823 39.1973 80.1817C39.202 80.1807 39.2073 80.18 39.2127 80.1797C39.218 80.18 39.2227 80.1793 39.2271 80.1793Z" fill="white"/>
<path id="Vector_23" d="M38.546 83.9327C38.5504 83.936 38.5547 83.9394 38.5591 83.9424C38.5511 83.9364 38.5427 83.9307 38.5347 83.9247C38.5096 83.9052 38.4848 83.8848 38.4607 83.8647C38.4784 83.8791 38.4962 83.8939 38.5139 83.9076C38.5243 83.9159 38.535 83.9246 38.546 83.9327Z" fill="white"/>
<path id="Vector_24" d="M38.6163 83.9838C38.6123 83.9807 38.6079 83.9781 38.6039 83.9754C38.5895 83.9654 38.5748 83.9546 38.5604 83.9433C38.5601 83.9429 38.5594 83.9426 38.5591 83.9423C38.5778 83.9563 38.5969 83.9704 38.6163 83.9838Z" fill="white"/>
<path id="Vector_25" d="M38.6774 84.0256C38.6566 84.0122 38.6365 83.9982 38.6165 83.9838C38.6365 83.9982 38.6569 84.0122 38.6774 84.0256Z" fill="white"/>
<path id="Vector_26" d="M38.7735 84.0859C38.7407 84.0668 38.7089 84.0464 38.6775 84.0256C38.7089 84.0464 38.7407 84.0671 38.7735 84.0859Z" fill="white"/>
<path id="Vector_27" d="M38.4255 80.4398C38.3783 80.4656 38.3318 80.493 38.2866 80.5218V80.5211C38.3315 80.4924 38.3783 80.4649 38.4255 80.4398Z" fill="white"/>
<path id="Vector_28" d="M39.2511 80.1764C39.2431 80.1771 39.2351 80.1781 39.2271 80.1797C39.204 80.5448 39.1621 80.9116 39.1006 81.2787C39.0447 81.6127 38.9731 81.9464 38.8834 82.2794C38.7445 82.7984 38.5701 83.2977 38.3636 83.7766C38.369 83.7819 38.3744 83.7873 38.3797 83.792C38.3744 83.7873 38.3683 83.7823 38.363 83.7769C38.3529 83.7679 38.3432 83.7582 38.3335 83.7478C38.3329 83.7478 38.3319 83.7471 38.3315 83.7458C38.3111 83.7261 38.2914 83.7056 38.2716 83.6846C38.2522 83.6638 38.2325 83.6421 38.2137 83.6206C38.195 83.5986 38.1762 83.5768 38.1578 83.554C38.1398 83.532 38.122 83.5089 38.1046 83.4858C38.0876 83.4627 38.0708 83.4396 38.0541 83.4155C38.0374 83.3917 38.022 83.3683 38.0062 83.3435C37.9908 83.3195 37.9758 83.2954 37.9611 83.2699C37.9483 83.2478 37.936 83.2261 37.9236 83.2033V83.2027C38.0608 82.8513 38.1806 82.4898 38.2797 82.117C38.4369 81.5304 38.5377 80.9424 38.5879 80.3581C38.5835 80.3598 38.5792 80.3618 38.5755 80.3635C38.5798 80.3615 38.5835 80.3591 38.5879 80.3574C38.5992 80.3528 38.6103 80.3474 38.6223 80.343C38.6571 80.328 38.6919 80.3136 38.7281 80.3012C38.7381 80.2969 38.7488 80.2932 38.7592 80.2898C38.7773 80.2828 38.7964 80.2765 38.8144 80.2711C38.8218 80.2684 38.8288 80.2657 38.8358 80.2641C38.8526 80.2587 38.8686 80.2534 38.885 80.249C38.9065 80.2427 38.9285 80.2366 38.95 80.2313C38.9724 80.2253 38.9951 80.2199 39.0176 80.2145C39.0249 80.2129 39.032 80.2112 39.0396 80.2099C39.0557 80.2065 39.0718 80.2035 39.0885 80.2002C39.1009 80.1975 39.1136 80.1955 39.126 80.1931C39.1431 80.1898 39.1608 80.1871 39.1785 80.1844C39.1849 80.1834 39.1909 80.1824 39.1973 80.1818C39.202 80.1807 39.2073 80.1801 39.2127 80.1797C39.2173 80.1787 39.2217 80.1781 39.2267 80.1777C39.2351 80.1781 39.2431 80.1767 39.2511 80.1764Z" fill="white"/>
<path id="Vector_29" d="M40.7832 80.5399C40.7343 80.5078 40.6841 80.4767 40.6326 80.4482C40.6838 80.4767 40.7343 80.5075 40.7832 80.5399Z" fill="white"/>
<path id="Vector_30" d="M40.9922 80.6973C40.9477 80.6601 40.9022 80.6243 40.855 80.5898C40.9022 80.6236 40.9477 80.6598 40.9922 80.6973Z" fill="white"/>
<path id="Vector_31" d="M41.1204 80.8146C41.0796 80.7744 41.0368 80.7353 40.9929 80.6971C41.0368 80.7346 41.0796 80.7731 41.1204 80.8146Z" fill="white"/>
<path id="Vector_32" d="M41.1624 80.8568C41.2182 80.9137 41.2701 80.9736 41.319 81.0359C41.2698 80.9739 41.2176 80.9137 41.1624 80.8568Z" fill="white"/>
<path id="Vector_33" d="M41.5088 81.3196C41.4887 81.2841 41.467 81.2493 41.4449 81.2148C41.4378 81.2035 41.4305 81.1921 41.4228 81.1807C41.4121 81.164 41.4007 81.1479 41.3896 81.1318C41.404 81.1522 41.4181 81.1727 41.4315 81.1931C41.4375 81.2028 41.4439 81.2128 41.4499 81.2225C41.4572 81.2332 41.4643 81.2446 41.4706 81.2557C41.4803 81.271 41.4894 81.2868 41.4984 81.3022C41.5024 81.3085 41.5058 81.3142 41.5088 81.3196Z" fill="white"/>
<path id="Vector_34" d="M41.7139 83.1039C41.6808 83.2153 41.64 83.3227 41.5918 83.4252C41.6393 83.3227 41.6801 83.2153 41.7139 83.1039Z" fill="white"/>
<path id="Vector_35" d="M41.7754 82.845C41.7594 82.9333 41.739 83.0193 41.7139 83.103C41.7386 83.0193 41.759 82.933 41.7751 82.8446C41.8029 82.687 41.8143 82.5294 41.8089 82.3738C41.8139 82.5291 41.8032 82.6873 41.7754 82.845Z" fill="white"/>
<path id="Vector_36" d="M38.6078 75.8714V75.8707C38.5382 75.6793 38.4636 75.4895 38.3829 75.3021C37.1313 72.3756 34.5977 70.031 31.292 69.1472C25.5788 67.6198 19.6879 71.0253 18.1605 76.7384C16.6325 82.4526 20.0379 88.3439 25.7511 89.8712C29.2693 90.8119 32.8548 89.8819 35.446 87.6943C35.4222 87.6481 35.3995 87.6016 35.3764 87.5544C35.3597 87.5206 35.3433 87.4865 35.3272 87.452C35.3131 87.4219 35.2988 87.3921 35.2854 87.362C35.2676 87.3245 35.2506 87.2864 35.2338 87.2482C35.2161 87.2084 35.199 87.1689 35.182 87.1291C35.1786 87.1217 35.1759 87.114 35.1729 87.107C32.7226 89.2458 29.2844 90.1691 25.9128 89.2678C20.5322 87.8295 17.3252 82.2806 18.7636 76.9001C20.2026 71.5195 25.7504 68.3119 31.131 69.7509C34.3042 70.5992 36.7224 72.8776 37.8762 75.7071C37.9485 75.8841 38.0158 76.0624 38.078 76.2435V76.2442C38.5231 77.5426 38.7089 78.9401 38.5887 80.359V80.3597C38.5382 80.9444 38.4375 81.532 38.2805 82.1187C38.1815 82.4915 38.0616 82.8529 37.9244 83.2043V83.2049C37.9368 83.2274 37.9492 83.2494 37.9619 83.2715C37.9763 83.2966 37.9914 83.3207 38.0071 83.3452C38.0225 83.3699 38.0382 83.3933 38.055 83.4171C38.0717 83.4412 38.0881 83.4643 38.1055 83.4874C38.1226 83.5105 38.1403 83.5336 38.1587 83.5557C38.1768 83.5781 38.1958 83.6002 38.2146 83.6222C38.2333 83.6437 38.2531 83.6651 38.2725 83.6862C38.2922 83.7073 38.3123 83.7273 38.3324 83.7474C38.333 83.7491 38.3341 83.7494 38.3344 83.7494C38.3441 83.7595 38.3538 83.7692 38.3638 83.7785L38.3645 83.7779C38.571 83.299 38.7453 82.7997 38.8842 82.2806C38.9739 81.9477 39.0455 81.614 39.1014 81.28C39.163 80.9132 39.2048 80.5465 39.2279 80.181V80.1804C39.3209 78.6898 39.0991 77.227 38.6078 75.8714Z" fill="#FF8200"/>
</g>
<g id="Group_5">
<path id="Vector_37" d="M114.312 23.5334H103.379C100.25 23.5334 97.6904 26.0932 97.6904 29.2215C97.6904 32.3499 100.25 34.9096 103.379 34.9096H103.911C103.911 34.9096 102.356 38.8773 102.356 39.0382C102.356 39.1992 110.562 34.9096 110.562 34.9096H114.312C117.44 34.9096 120 32.3499 120 29.2215C120 26.0932 117.441 23.5334 114.312 23.5334Z" fill="#FF8200"/>
<path id="Vector_38" d="M104.683 29.0034L103.488 29.0141L104.325 28.1614L103.768 27.6149L102.931 28.4676L102.92 27.2726L102.14 27.2796L102.151 28.4747L101.299 27.6374L100.752 28.1939L101.604 29.0312L100.409 29.0419L100.416 29.822L101.611 29.8113L100.774 30.6636L101.331 31.2104L102.168 30.3577L102.179 31.5528L102.959 31.5458L102.948 30.3507L103.801 31.188L104.347 30.6315L103.495 29.7942L104.69 29.7835L104.683 29.0034Z" fill="white"/>
<path id="Vector_39" d="M110.978 29.0034L109.783 29.0141L110.621 28.1614L110.064 27.6149L109.227 28.4676L109.216 27.2726L108.436 27.2796L108.447 28.4747L107.594 27.6374L107.047 28.1939L107.9 29.0312L106.705 29.0419L106.712 29.822L107.907 29.8113L107.07 30.6636L107.626 31.2104L108.464 30.3577L108.474 31.5528L109.254 31.5458L109.244 30.3507L110.096 31.188L110.643 30.6315L109.79 29.7942L110.985 29.7835L110.978 29.0034Z" fill="white"/>
<path id="Vector_40" d="M117.274 29.0034L116.079 29.0141L116.916 28.1614L116.36 27.6149L115.522 28.4676L115.511 27.2726L114.732 27.2796L114.742 28.4747L113.89 27.6374L113.343 28.1939L114.196 29.0312L113.001 29.0419L113.008 29.822L114.203 29.8113L113.365 30.6636L113.922 31.2104L114.759 30.3577L114.77 31.5528L115.55 31.5458L115.539 30.3507L116.392 31.188L116.938 30.6315L116.086 29.7942L117.281 29.7835L117.274 29.0034Z" fill="white"/>
</g>
<g id="Group_6">
<path id="Vector_41" d="M5.68809 43.8734H16.6215C19.7499 43.8734 22.3096 46.4332 22.3096 49.5615C22.3096 52.6898 19.7499 55.2496 16.6215 55.2496H16.0888C16.0888 55.2496 17.6439 59.2172 17.6439 59.3782C17.6439 59.5392 9.43854 55.2496 9.43854 55.2496H5.68809C2.55976 55.2496 0 52.6898 0 49.5615C0 46.4332 2.55976 43.8734 5.68809 43.8734Z" fill="#FF8200"/>
<path id="Vector_42" d="M15.3173 49.3435L16.512 49.3542L15.6747 48.5015L16.2313 47.955L17.0686 48.8077L17.0796 47.6127L17.8594 47.6197L17.8486 48.8147L18.7013 47.9774L19.2478 48.534L18.3951 49.3713L19.5902 49.382L19.5831 50.1621L18.3881 50.1513L19.2257 51.0037L18.6692 51.5505L17.8316 50.6978L17.8209 51.8929L17.0408 51.8858L17.0518 50.6908L16.1991 51.5281L15.6527 50.9716L16.505 50.1343L15.3103 50.1236L15.3173 49.3435Z" fill="white"/>
<path id="Vector_43" d="M9.02192 49.3435L10.217 49.3542L9.37933 48.5015L9.93586 47.955L10.7735 48.8077L10.7842 47.6127L11.5643 47.6197L11.5532 48.8147L12.4059 47.9774L12.9524 48.534L12.1001 49.3713L13.2951 49.382L13.2881 50.1621L12.093 50.1513L12.9303 51.0037L12.3738 51.5505L11.5365 50.6978L11.5255 51.8929L10.7457 51.8858L10.7564 50.6908L9.90373 51.5281L9.35724 50.9716L10.2099 50.1343L9.01489 50.1236L9.02192 49.3435Z" fill="white"/>
<path id="Vector_44" d="M2.72627 49.3435L3.92131 49.3542L3.08401 48.5015L3.64054 47.955L4.47784 48.8077L4.48855 47.6127L5.26862 47.6197L5.25791 48.8147L6.11027 47.9774L6.65709 48.534L5.8044 49.3713L6.99944 49.382L6.99242 50.1621L5.79737 50.1513L6.63467 51.0037L6.07815 51.5505L5.24084 50.6978L5.23014 51.8929L4.45006 51.8858L4.46077 50.6908L3.60808 51.5281L3.06159 50.9716L3.91428 50.1343L2.71924 50.1236L2.72627 49.3435Z" fill="white"/>
</g>
<path id="Vector_45" d="M90.7406 49.9459C92.3256 49.9459 93.6106 48.661 93.6106 47.0759C93.6106 45.4909 92.3256 44.2059 90.7406 44.2059C89.1555 44.2059 87.8706 45.4909 87.8706 47.0759C87.8706 48.661 89.1555 49.9459 90.7406 49.9459Z" fill="white"/>
<path id="Vector_46" d="M17.3332 12.2487C19.5634 10.0185 19.5634 6.40264 17.3332 4.17243C15.103 1.94223 11.4871 1.94223 9.25689 4.17243C7.02669 6.40264 7.02669 10.0185 9.25689 12.2487C11.4871 14.4789 15.103 14.4789 17.3332 12.2487Z" fill="#FF8200"/>
<g id="Group_7">
<path id="Vector_47" d="M104.69 73.4924C106.929 73.4924 108.744 71.6775 108.744 69.4388C108.744 67.2 106.929 65.3851 104.69 65.3851C102.451 65.3851 100.636 67.2 100.636 69.4388C100.636 71.6775 102.451 73.4924 104.69 73.4924Z" fill="white"/>
<g id="Group_8">
<path id="Vector_48" d="M106.827 69.426C106.759 69.1754 106.647 68.9482 106.502 68.7504C106.431 68.6533 106.309 68.6085 106.193 68.6399L105.963 68.7025L105.749 67.9151C105.543 67.1588 104.761 66.7107 104.004 66.9165C103.248 67.1223 102.8 67.905 103.006 68.6614L103.22 69.4488L102.99 69.5114C102.874 69.5428 102.792 69.6439 102.78 69.7637C102.751 70.0515 102.782 70.3513 102.884 70.6462C103.219 71.6143 104.235 72.196 105.239 71.9935C106.422 71.7545 107.139 70.5719 106.827 69.426ZM103.466 68.5362C103.329 68.0336 103.627 67.5132 104.13 67.3766C104.632 67.2398 105.153 67.5376 105.289 68.0402L105.503 68.8277L103.68 69.3236L103.466 68.5362Z" fill="#ECF3FE"/>
<path id="Vector_49" d="M105.252 69.9882C105.195 69.776 104.976 69.6508 104.764 69.7087C104.552 69.7666 104.426 69.9851 104.484 70.1973C104.525 70.3479 104.647 70.454 104.791 70.4828L104.9 70.8867C104.926 70.9807 105.024 71.037 105.118 71.0115C105.212 70.9858 105.268 70.888 105.243 70.7937L105.133 70.3897C105.242 70.292 105.293 70.1388 105.252 69.9882Z" fill="white"/>
</g>
</g>
<g id="Group_9">
<path id="Vector_50" d="M50.0507 13.3326C51.6337 11.7496 51.6337 9.18301 50.0507 7.59998C48.4676 6.01695 45.901 6.01694 44.318 7.59998C42.735 9.18301 42.735 11.7496 44.318 13.3326C45.901 14.9157 48.4676 14.9157 50.0507 13.3326Z" fill="white"/>
<g id="Group_10">
<path id="Vector_51" d="M49.3215 10.4535C49.2532 10.2028 49.1415 9.97562 48.9966 9.77784C48.9256 9.68079 48.8035 9.63595 48.6877 9.6674L48.4578 9.72998L48.2436 8.94255C48.0378 8.18623 47.255 7.73813 46.4987 7.94394C45.7424 8.14975 45.2943 8.93251 45.5001 9.68882L45.7143 10.4763L45.4844 10.5388C45.3683 10.5703 45.2859 10.6714 45.2739 10.7915C45.2451 11.0793 45.2762 11.3792 45.3783 11.674C45.713 12.6421 46.7296 13.2238 47.7336 13.0213C48.9162 12.782 49.6331 11.5994 49.3215 10.4535ZM45.9599 9.56366C45.8231 9.06101 46.1209 8.54063 46.6235 8.40409C47.1262 8.26722 47.6466 8.56506 47.7831 9.06771L47.9973 9.85514L46.1741 10.3511L45.9599 9.56366Z" fill="#ECF3FE"/>
<path id="Vector_52" d="M47.7468 11.0155C47.6892 10.8033 47.4703 10.6782 47.2582 10.7361C47.046 10.7936 46.9208 11.0125 46.9787 11.2247C47.0196 11.3752 47.1417 11.4813 47.2849 11.5101L47.3947 11.914C47.4205 12.0081 47.5182 12.0643 47.6126 12.0389C47.7066 12.0131 47.7628 11.9154 47.7374 11.821L47.6276 11.4171C47.7361 11.3194 47.7876 11.1661 47.7468 11.0155Z" fill="white"/>
</g>
</g>
</g>
</svg>
