<svg width="50" height="45" viewBox="0 0 50 45" fill="none" xmlns="http://www.w3.org/2000/svg">
<g clip-path="url(#clip0_417_664)">
<path d="M45.0116 11.9597C45.3926 8.97603 43.9237 6.06044 41.2996 4.59087C38.6755 3.1213 35.4218 3.39257 33.077 5.2763C30.481 1.43788 25.8761 -0.522625 21.3099 0.266134C16.7434 1.05532 13.0632 4.44722 11.9058 8.93442C9.0334 7.52872 5.59247 8.0289 3.23921 10.194C0.88594 12.3594 0.101804 15.7473 1.26441 18.7263C2.4269 21.7056 5.29798 23.6667 8.49624 23.6658H44.1065C47.1837 23.6691 49.7449 21.3017 49.9826 18.2332C50.2199 15.1646 48.0544 12.4309 45.0128 11.9605L45.0116 11.9597Z" fill="#00A0F3"/>
<path d="M37.857 27.1612H32.5939L27.447 33.6161H31.9602L26.8917 39.9727L39.0521 31.9669H34.0249L37.857 27.1612ZM28.515 16.1641H20.3003L12.2657 26.2405H19.3104L11.3988 36.1622L30.3805 23.6652H22.5338L28.515 16.1641Z" fill="#FFC100"/>
<path d="M2.59048 36.9124C2.44884 36.9123 2.31009 36.8723 2.19017 36.7969C2.07026 36.7215 1.97404 36.6138 1.91257 36.4862C1.85118 36.3585 1.82708 36.216 1.84306 36.0752C1.85903 35.9344 1.91444 35.801 2.00289 35.6903L3.95715 33.2421C4.08249 33.0883 4.26346 32.9902 4.46072 32.9691C4.65799 32.948 4.8556 33.0057 5.0106 33.1295C5.1656 33.2533 5.26547 33.4333 5.28848 33.6303C5.3115 33.8274 5.25581 34.0256 5.13352 34.1818L3.17936 36.6289C3.10892 36.7175 3.01937 36.789 2.9174 36.8381C2.81542 36.8873 2.70367 36.9126 2.59048 36.9124Z" fill="#00A0F3"/>
<path d="M9.29521 33.6855C9.15341 33.6855 9.01449 33.6454 8.89445 33.57C8.77442 33.4945 8.67815 33.3866 8.61674 33.2588C8.55533 33.131 8.53128 32.9884 8.54736 32.8475C8.56344 32.7066 8.61899 32.5731 8.70762 32.4625L11.8819 28.4864C12.141 28.1613 12.6147 28.1084 12.9399 28.3675C13.2645 28.627 13.3178 29.1008 13.0583 29.4255L9.8843 33.4015C9.8139 33.4903 9.72431 33.5619 9.62227 33.6111C9.52023 33.6603 9.40848 33.6857 9.29521 33.6855ZM8.28539 43.3446C8.14373 43.3446 8.00495 43.3045 7.88503 43.2291C7.76512 43.1537 7.66894 43.0459 7.60759 42.9182C7.54603 42.7906 7.5218 42.6482 7.53771 42.5073C7.55361 42.3665 7.609 42.2331 7.69748 42.1224L10.8105 38.2222C10.9361 38.0693 11.1168 37.972 11.3136 37.9513C11.5104 37.9307 11.7075 37.9883 11.8621 38.1118C12.0167 38.2353 12.1165 38.4147 12.1398 38.6113C12.1632 38.8078 12.1082 39.0056 11.9868 39.1618L8.87427 43.061C8.80382 43.1496 8.71426 43.2211 8.61229 43.2702C8.51032 43.3193 8.39857 43.3447 8.28539 43.3446Z" fill="#00A0F3"/>
<path d="M21.3478 35.3763C21.2062 35.3762 21.0674 35.3362 20.9475 35.2607C20.8276 35.1853 20.7314 35.0775 20.67 34.9498C20.6086 34.8222 20.5845 34.6797 20.6005 34.539C20.6165 34.3982 20.6718 34.2648 20.7602 34.1541L24.2869 29.7344C24.3481 29.6561 24.4243 29.5906 24.511 29.5419C24.5978 29.4931 24.6933 29.462 24.7921 29.4504C24.8909 29.4388 24.991 29.447 25.0867 29.4743C25.1823 29.5017 25.2716 29.5477 25.3494 29.6098C25.4271 29.6719 25.4918 29.7487 25.5396 29.836C25.5874 29.9232 25.6175 30.019 25.6281 30.118C25.6386 30.2169 25.6295 30.3169 25.6011 30.4123C25.5728 30.5076 25.5258 30.5964 25.4629 30.6735L21.9363 35.0936C21.8658 35.182 21.7763 35.2534 21.6744 35.3023C21.5725 35.3513 21.4609 35.3766 21.3478 35.3763Z" fill="#00A0F3"/>
<path d="M21.6875 43.3462C21.5458 43.3461 21.407 43.3061 21.2871 43.2307C21.1671 43.1553 21.0709 43.0475 21.0095 42.9199C20.948 42.7922 20.9239 42.6498 20.9398 42.509C20.9557 42.3682 21.0111 42.2347 21.0995 42.124L25.9593 36.0336C26.0853 35.8819 26.2657 35.7857 26.4618 35.7656C26.658 35.7456 26.8542 35.8032 27.0082 35.9262C27.1623 36.0491 27.262 36.2277 27.286 36.4233C27.3099 36.619 27.2561 36.8163 27.1361 36.9728L22.2763 43.0626C22.2058 43.1512 22.1163 43.2227 22.0143 43.2718C21.9124 43.3208 21.8007 43.3463 21.6875 43.3462Z" fill="#00A0F3"/>
<path d="M28.3889 43.3442C28.2473 43.3441 28.1085 43.3041 27.9886 43.2286C27.8687 43.1532 27.7725 43.0455 27.711 42.9179C27.6497 42.7903 27.6256 42.6479 27.6415 42.5072C27.6574 42.3665 27.7126 42.2332 27.8009 42.1225L28.5696 41.159C28.6954 41.0072 28.8759 40.9108 29.0721 40.8907C29.2682 40.8705 29.4645 40.9281 29.6186 41.0512C29.7727 41.1742 29.8724 41.3528 29.8962 41.5486C29.92 41.7444 29.8661 41.9417 29.7459 42.0981L28.9778 43.0611C28.9073 43.1496 28.8177 43.221 28.7157 43.27C28.6138 43.319 28.5021 43.3444 28.3889 43.3442Z" fill="#00A0F3"/>
<path d="M38.7221 30.4002C38.5804 30.4001 38.4416 30.3601 38.3217 30.2846C38.2018 30.2092 38.1056 30.1014 38.0442 29.9737C37.9829 29.846 37.9588 29.7036 37.9748 29.5628C37.9908 29.422 38.0462 29.2886 38.1346 29.1779L40.523 26.1855C40.6485 26.0325 40.8293 25.9351 41.0261 25.9143C41.2229 25.8936 41.4199 25.9511 41.5746 26.0746C41.7293 26.198 41.8292 26.3774 41.8526 26.5739C41.876 26.7704 41.8211 26.9682 41.6998 27.1245L39.311 30.1163C39.2405 30.2048 39.1509 30.2763 39.0489 30.3255C38.947 30.3746 38.8353 30.4002 38.7221 30.4002ZM35.0901 43.3449C34.9484 43.3448 34.8096 43.3048 34.6897 43.2294C34.5697 43.154 34.4735 43.0462 34.4121 42.9185C34.3506 42.7909 34.3265 42.6484 34.3424 42.5076C34.3583 42.3669 34.4137 42.2334 34.5021 42.1227L37.4214 38.467C37.483 38.3898 37.5593 38.3254 37.6458 38.2776C37.7323 38.2298 37.8274 38.1996 37.9256 38.1885C38.0238 38.1775 38.1232 38.1859 38.2181 38.2133C38.3131 38.2407 38.4017 38.2865 38.479 38.3481C38.5563 38.4097 38.6207 38.486 38.6685 38.5725C38.7163 38.659 38.7466 38.7541 38.7576 38.8523C38.7687 38.9505 38.7602 39.0499 38.7328 39.1449C38.7054 39.2398 38.6595 39.3285 38.5978 39.4057L35.6789 43.0613C35.6083 43.1498 35.5188 43.2213 35.4168 43.2704C35.3149 43.3195 35.2031 43.3449 35.09 43.3449H35.0901Z" fill="#00A0F3"/>
</g>
<defs>
<clipPath id="clip0_417_664">
<rect width="50" height="44.1176" fill="white"/>
</clipPath>
</defs>
</svg>
