<svg width="45" height="45" viewBox="0 0 45 45" fill="none" xmlns="http://www.w3.org/2000/svg">
<g id="fi_11259257">
<g id="Layer 14">
<path id="Vector" d="M41.8359 13.2328V39.375C41.8328 40.0267 41.5726 40.6509 41.1117 41.1117C40.6509 41.5726 40.0267 41.8328 39.375 41.8359H12.6562C12.0045 41.8328 11.3804 41.5726 10.9195 41.1117C10.4587 40.6509 10.1984 40.0267 10.1953 39.375V5.625C10.1984 4.97328 10.4587 4.34913 10.9195 3.88829C11.3804 3.42744 12.0045 3.16717 12.6562 3.16406H31.7673C32.4156 3.16707 33.0368 3.42463 33.497 3.88125L41.1187 11.5031C41.3464 11.7299 41.527 11.9995 41.6501 12.2963C41.7732 12.5932 41.8364 12.9115 41.8359 13.2328Z" fill="#DBD8D8"/>
<path id="Vector_2" d="M41.8359 13.2328V13.7109H33.75C33.0983 13.7078 32.4741 13.4476 32.0133 12.9867C31.5524 12.5259 31.2922 11.9017 31.2891 11.25V3.16406H31.7673C32.4156 3.16707 33.0368 3.42463 33.497 3.88125L41.1187 11.5031C41.3464 11.7299 41.527 11.9995 41.6501 12.2963C41.7732 12.5932 41.8364 12.9115 41.8359 13.2328Z" fill="#8D8D8D"/>
<path id="Vector_3" d="M35.1562 22.1484H16.875C16.5953 22.1484 16.327 22.0373 16.1292 21.8395C15.9314 21.6417 15.8203 21.3735 15.8203 21.0938C15.8203 20.814 15.9314 20.5458 16.1292 20.348C16.327 20.1502 16.5953 20.0391 16.875 20.0391H35.1562C35.436 20.0391 35.7042 20.1502 35.902 20.348C36.0998 20.5458 36.2109 20.814 36.2109 21.0938C36.2109 21.3735 36.0998 21.6417 35.902 21.8395C35.7042 22.0373 35.436 22.1484 35.1562 22.1484Z" fill="#BBBBBB"/>
<path id="Vector_4" d="M35.1562 27.7734H16.875C16.5953 27.7734 16.327 27.6623 16.1292 27.4645C15.9314 27.2667 15.8203 26.9985 15.8203 26.7188C15.8203 26.439 15.9314 26.1708 16.1292 25.973C16.327 25.7752 16.5953 25.6641 16.875 25.6641H35.1562C35.436 25.6641 35.7042 25.7752 35.902 25.973C36.0998 26.1708 36.2109 26.439 36.2109 26.7188C36.2109 26.9985 36.0998 27.2667 35.902 27.4645C35.7042 27.6623 35.436 27.7734 35.1562 27.7734Z" fill="#BBBBBB"/>
<path id="Vector_5" d="M25.3126 37.6181C25.1389 37.6181 24.968 37.5753 24.8149 37.4934C24.6618 37.4114 24.5313 37.2929 24.4351 37.1484L22.3359 34.0002L20.4333 35.9028C20.2353 36.0994 19.9674 36.2095 19.6884 36.209C19.4094 36.2085 19.1419 36.0974 18.9446 35.9001C18.7473 35.7028 18.6363 35.4354 18.6357 35.1563C18.6352 34.8773 18.7453 34.6095 18.9419 34.4114L21.7544 31.5989C21.8647 31.4885 21.9981 31.4039 22.145 31.3514C22.292 31.2988 22.4487 31.2795 22.6041 31.2948C22.7594 31.3102 22.9093 31.3599 23.0431 31.4403C23.1768 31.5207 23.2911 31.6297 23.3776 31.7597L25.3126 34.6622L27.2476 31.7597C27.3341 31.6299 27.4483 31.5209 27.582 31.4405C27.7157 31.3601 27.8655 31.3104 28.0207 31.2948C28.1762 31.2784 28.3333 31.2972 28.4805 31.3499C28.6276 31.4026 28.761 31.4877 28.8708 31.599L31.3743 34.1025H35.1563C35.436 34.1025 35.7043 34.2136 35.9021 34.4114C36.0999 34.6092 36.211 34.8774 36.211 35.1572C36.211 35.4369 36.0999 35.7051 35.9021 35.9029C35.7043 36.1007 35.436 36.2118 35.1563 36.2118H30.9376C30.7991 36.2119 30.6619 36.1846 30.534 36.1316C30.406 36.0785 30.2898 36.0008 30.1919 35.9029L28.2885 34.0002L26.1901 37.1484C26.0938 37.2929 25.9633 37.4114 25.8102 37.4934C25.6572 37.5753 25.4862 37.6181 25.3126 37.6181Z" fill="#2D3243"/>
<path id="Vector_6" d="M11.25 19.3359C15.7157 19.3359 19.3359 15.7157 19.3359 11.25C19.3359 6.78426 15.7157 3.16406 11.25 3.16406C6.78426 3.16406 3.16406 6.78426 3.16406 11.25C3.16406 15.7157 6.78426 19.3359 11.25 19.3359Z" fill="#8D8D8D"/>
<g id="Group">
<path id="Vector_7" d="M14.0621 15.1163C13.9236 15.1165 13.7864 15.0893 13.6584 15.0362C13.5305 14.9832 13.4142 14.9054 13.3164 14.8073L7.69142 9.18232C7.49484 8.9843 7.38475 8.71644 7.38526 8.43742C7.38576 8.15839 7.49683 7.89094 7.69413 7.69364C7.89143 7.49634 8.15888 7.38528 8.43791 7.38477C8.71693 7.38426 8.98479 7.49435 9.18281 7.69093L14.8078 13.3159C14.9553 13.4634 15.0557 13.6513 15.0964 13.8559C15.1371 14.0605 15.1162 14.2725 15.0364 14.4652C14.9565 14.6579 14.8214 14.8226 14.648 14.9385C14.4746 15.0544 14.2707 15.1163 14.0621 15.1163Z" fill="#EDEDED"/>
<path id="Vector_8" d="M8.43733 15.1163C8.22876 15.1163 8.02488 15.0544 7.85147 14.9385C7.67806 14.8226 7.5429 14.6579 7.46309 14.4652C7.38327 14.2725 7.36239 14.0605 7.40307 13.8559C7.44375 13.6513 7.54417 13.4634 7.69164 13.3159L13.3166 7.69093C13.5147 7.49435 13.7825 7.38426 14.0615 7.38477C14.3406 7.38528 14.608 7.49634 14.8053 7.69364C15.0026 7.89094 15.1137 8.15839 15.1142 8.43742C15.1147 8.71644 15.0046 8.9843 14.808 9.18232L9.18302 14.8073C9.08522 14.9054 8.96899 14.9832 8.84102 15.0362C8.71305 15.0893 8.57585 15.1165 8.43733 15.1163Z" fill="#EDEDED"/>
</g>
</g>
</g>
</svg>
