<svg width="94" height="79" viewBox="0 0 94 79" fill="none" xmlns="http://www.w3.org/2000/svg">
<g id="Object">
<g id="Object_2">
<path id="Vector" d="M45.3951 77.1595C65.6888 77.1595 82.1408 60.7761 82.1408 40.567C82.1408 20.3579 65.6909 3.97456 45.3951 3.97456C25.0993 3.97456 8.64941 20.3579 8.64941 40.567C8.64941 60.7761 25.1014 77.1595 45.3951 77.1595Z" fill="#F4F4F4"/>
<path id="Vector_2" d="M78.8188 34.6786H32.1668C30.8609 34.6786 29.8027 35.7323 29.8027 37.0327V65.2827C29.8027 66.5831 30.8609 67.6368 32.1668 67.6368H78.8209C80.1267 67.6368 81.1849 66.5831 81.1849 65.2827V37.0327C81.1849 35.7323 80.1267 34.6786 78.8209 34.6786H78.8188Z" fill="url(#paint0_linear_2213_8249)"/>
<path id="Vector_3" d="M60.4817 37.846V65.2827C60.4817 65.9084 60.232 66.5077 59.7878 66.95C59.3437 67.3923 58.7419 67.6409 58.1136 67.6409H17.958C17.3296 67.6409 16.7278 67.3923 16.2837 66.95C15.8395 66.5077 15.5898 65.9084 15.5898 65.2827V35.7364C15.5898 35.4042 15.6594 35.076 15.7945 34.7723C15.9296 34.4686 16.1302 34.1975 16.3779 33.9754L34.1049 18.2789C34.5307 17.9018 35.0792 17.6919 35.6502 17.6837C36.2192 17.6776 36.7739 17.8774 37.2078 18.2443L60.3773 37.846H60.4796H60.4817Z" fill="url(#paint1_linear_2213_8249)"/>
<path id="Vector_4" d="M60.4818 37.846V34.6765L37.562 15.2195H55.7066C56.2818 15.2216 56.8385 15.4213 57.2847 15.7821L83.2951 36.9288C83.3728 36.9981 83.4301 37.0898 83.4568 37.1917C83.4834 37.2936 83.4793 37.3996 83.4424 37.4995C83.4076 37.5973 83.3421 37.6829 83.2582 37.7461C83.1722 37.8072 83.072 37.8439 82.9655 37.846H60.4818Z" fill="url(#paint2_linear_2213_8249)"/>
<path id="Vector_5" d="M44.0891 47.3034H31.2988C30.9448 47.3034 30.6582 47.5887 30.6582 47.9414V67.6368H44.7298V47.9414C44.7298 47.5887 44.4432 47.3034 44.0891 47.3034Z" fill="#A4A4A4"/>
<path id="Vector_6" d="M81.187 37.846H60.4941V42.6277H81.187V37.846Z" fill="#7E7E7E"/>
<path id="Vector_7" d="M38.6716 16.1632L37.6032 15.2195L37.5827 15.2399L37.5581 15.2195L36.0558 16.5505L12.3603 36.9227C12.2825 36.9899 12.2252 37.0796 12.1986 37.1795C12.172 37.2793 12.1782 37.3853 12.213 37.4811C12.2478 37.579 12.3132 37.6625 12.3972 37.7216C12.4811 37.7808 12.5814 37.8134 12.6858 37.8154L15.1255 37.846L37.6052 18.5724L60.3817 37.846H60.484L64.1661 37.7991L38.6736 16.1632H38.6716Z" fill="url(#paint3_linear_2213_8249)"/>
<path id="Vector_8" d="M37.4906 40.2368C39.9815 40.2368 41.9996 38.2271 41.9996 35.7466C41.9996 33.2661 39.9794 31.2543 37.4906 31.2543C35.0017 31.2543 32.9795 33.2661 32.9795 35.7466C32.9795 38.2271 34.9997 40.2368 37.4906 40.2368Z" fill="#A4A4A4"/>
<path id="Vector_9" d="M26.3603 47.3034H19.1475C18.7934 47.3034 18.5068 47.5888 18.5068 47.9414V59.3861C18.5068 59.7387 18.7934 60.024 19.1475 60.024H26.3603C26.7144 60.024 27.0009 59.7387 27.0009 59.3861V47.9393C27.0009 47.5867 26.7144 47.3014 26.3603 47.3014V47.3034Z" fill="#A4A4A4"/>
<path id="Vector_10" d="M55.5063 51.5633H48.2935C47.9394 51.5633 47.6528 51.8486 47.6528 52.2013V59.384C47.6528 59.7366 47.9394 60.022 48.2935 60.022H55.5063C55.8604 60.022 56.1469 59.7366 56.1469 59.384V52.2013C56.1469 51.8486 55.8604 51.5633 55.5063 51.5633Z" fill="#A4A4A4"/>
<path id="Vector_11" d="M55.5063 47.334H48.2935C47.9394 47.334 47.6528 47.6193 47.6528 47.9719V49.1623C47.6528 49.5149 47.9394 49.8002 48.2935 49.8002H55.5063C55.8604 49.8002 56.1469 49.5149 56.1469 49.1623V47.9719C56.1469 47.6193 55.8604 47.334 55.5063 47.334Z" fill="#A4A4A4"/>
<path id="Vector_12" d="M81.0681 55.8049C80.9023 55.12 79.926 55.12 79.7602 55.8049L79.2014 58.1061C79.142 58.3506 78.9496 58.5402 78.704 58.5993L76.3932 59.1558C75.7055 59.3209 75.7055 60.2931 76.3932 60.4582L78.704 61.0146C78.9496 61.0737 79.142 61.2653 79.2014 61.5079L79.7602 63.809C79.926 64.4939 80.9023 64.4939 81.0681 63.809L81.6268 61.5079C81.6862 61.2633 81.8786 61.0737 82.1242 61.0146L84.435 60.4582C85.1227 60.2931 85.1227 59.3209 84.435 59.1558L82.1242 58.5993C81.8786 58.5402 81.6862 58.3486 81.6268 58.1061L81.0681 55.8049Z" fill="#7B7B7B"/>
<path id="Vector_13" d="M41.6638 70.4802C41.498 69.7953 40.5217 69.7953 40.3559 70.4802L39.7971 72.7814C39.7377 73.0259 39.5453 73.2155 39.2997 73.2746L36.9889 73.831C36.3012 73.9961 36.3012 74.9684 36.9889 75.1335L39.2997 75.6899C39.5453 75.749 39.7377 75.9406 39.7971 76.1832L40.3559 78.4843C40.5217 79.1692 41.498 79.1692 41.6638 78.4843L42.2225 76.1832C42.2819 75.9386 42.4743 75.749 42.7199 75.6899L45.0307 75.1335C45.7184 74.9684 45.7184 73.9961 45.0307 73.831L42.7199 73.2746C42.4743 73.2155 42.2819 73.0239 42.2225 72.7814L41.6638 70.4802Z" fill="#DCDCDC"/>
<path id="Vector_14" d="M20.1994 12.7349C20.0336 12.0501 19.0573 12.0501 18.8915 12.7349L18.3327 15.0381C18.2734 15.2827 18.081 15.4723 17.8354 15.5314L15.5246 16.0878C14.8369 16.2529 14.8369 17.2251 15.5246 17.3902L17.8354 17.9467C18.081 18.0058 18.2734 18.1974 18.3327 18.4399L18.8915 20.7411C19.0573 21.4259 20.0336 21.4259 20.1994 20.7411L20.7582 18.4399C20.8175 18.1953 21.0099 18.0058 21.2555 17.9467L23.5663 17.3902C24.2541 17.2251 24.2541 16.2529 23.5663 16.0878L21.2555 15.5314C21.0099 15.4723 20.8175 15.2807 20.7582 15.0381L20.1994 12.7349Z" fill="#DCDCDC"/>
<path id="Vector_15" d="M38.4852 9.69997C39.3375 9.69997 40.0284 9.01191 40.0284 8.16314C40.0284 7.31437 39.3375 6.62631 38.4852 6.62631C37.6328 6.62631 36.9419 7.31437 36.9419 8.16314C36.9419 9.01191 37.6328 9.69997 38.4852 9.69997Z" stroke="#CACACA" stroke-width="4.11"/>
<path id="Vector_16" d="M86.1421 25.5065C86.4901 25.2538 86.4328 24.7177 86.0378 24.5444L83.3729 23.3684C82.9778 23.1951 82.5419 23.5111 82.589 23.9391L82.898 26.8252C82.9451 27.2533 83.4384 27.4714 83.7863 27.2166L86.1421 25.5065Z" fill="#DCDCDC"/>
<path id="Vector_17" d="M67.9319 70.0196C67.5144 69.9136 67.1378 70.2988 67.2544 70.7126L68.0465 73.507C68.1632 73.9207 68.6872 74.0532 68.988 73.7454L71.0205 71.6664C71.3214 71.3587 71.174 70.841 70.7564 70.735L67.9319 70.0216V70.0196Z" fill="#DCDCDC"/>
<path id="Vector_18" d="M14.137 75.1008C14.9893 75.1008 15.6803 74.4128 15.6803 73.564C15.6803 72.7153 14.9893 72.0272 14.137 72.0272C13.2847 72.0272 12.5938 72.7153 12.5938 73.564C12.5938 74.4128 13.2847 75.1008 14.137 75.1008Z" stroke="#CACACA" stroke-width="4.11"/>
<path id="Vector_19" d="M75.0792 7.63523C73.407 5.96999 71.4217 4.64718 69.2378 3.74628C67.0518 2.84538 64.7103 2.38066 62.3463 2.38066C59.9823 2.38066 57.6387 2.84538 55.4548 3.74628C53.2709 4.64718 51.2855 5.96999 49.6133 7.63523C48.0005 9.20264 46.7212 11.0778 45.8493 13.1466C44.9774 15.2154 44.5291 17.4371 44.5332 19.6812C44.5332 24.2326 46.2975 28.9226 49.6133 32.9827L59.8922 46.2537C60.1828 46.6267 60.5533 46.9304 60.979 47.1383C61.4048 47.3462 61.8735 47.4542 62.3463 47.4542C62.8191 47.4542 63.2878 47.3462 63.7135 47.1383C64.1393 46.9304 64.5118 46.6267 64.8004 46.2537L75.0792 32.9827C78.395 28.9246 80.1573 24.2346 80.1573 19.6812C80.1614 17.4371 79.7152 15.2154 78.8433 13.1466C77.9713 11.0778 76.6921 9.20468 75.0792 7.63523Z" fill="#7B7B7B"/>
<path id="Vector_20" d="M62.3446 27.4836C66.4689 27.4836 69.8133 24.1531 69.8133 20.0461C69.8133 15.939 66.4689 12.6085 62.3446 12.6085C58.2204 12.6085 54.876 15.939 54.876 20.0461C54.876 24.1531 58.2204 27.4836 62.3446 27.4836Z" fill="white"/>
</g>
</g>
<defs>
<linearGradient id="paint0_linear_2213_8249" x1="55.9953" y1="51.8283" x2="89.1053" y2="96.4454" gradientUnits="userSpaceOnUse">
<stop stop-color="#9E9E9E"/>
<stop offset="1" stop-color="#E2E2E2"/>
</linearGradient>
<linearGradient id="paint1_linear_2213_8249" x1="77.738" y1="94.6109" x2="14.4342" y2="26.1395" gradientUnits="userSpaceOnUse">
<stop stop-color="#B4B4B4"/>
<stop offset="1" stop-color="#EFEFEF"/>
</linearGradient>
<linearGradient id="paint2_linear_2213_8249" x1="56.7955" y1="35.82" x2="66.3092" y2="11.3424" gradientUnits="userSpaceOnUse">
<stop stop-color="#989898"/>
<stop offset="1" stop-color="#F7F7FF"/>
</linearGradient>
<linearGradient id="paint3_linear_2213_8249" x1="37.6441" y1="35.2839" x2="30.1573" y2="2.50156" gradientUnits="userSpaceOnUse">
<stop stop-color="#B4B4B4"/>
<stop offset="1" stop-color="#F1F1F1"/>
</linearGradient>
</defs>
</svg>
