<svg width="360" height="390" viewBox="0 0 360 390" fill="none" xmlns="http://www.w3.org/2000/svg">
<path d="M294.608 114.653C294.608 52.0018 244.216 1.08915 181.647 0.0160351C118.732 -1.05982 66.248 49.0288 64.6915 111.759C63.6648 153.121 84.6961 189.949 117.222 210.951C121.521 213.727 125.232 217.319 128.01 221.611C141.166 241.926 154.142 263.733 167.624 302.19C171.602 313.54 187.67 313.518 191.648 302.168C209.259 251.924 232.777 219.227 232.291 219.974C234.38 216.766 237.125 214.028 240.379 212.005C272.962 191.745 294.608 155.689 294.608 114.653Z" fill="#FF6B6B"/>
<path d="M195.313 343.177C195.313 351.814 188.293 358.814 179.632 358.814C170.971 358.814 163.951 351.814 163.951 343.177C163.951 334.54 170.971 327.54 179.632 327.54C188.293 327.54 195.313 334.54 195.313 343.177Z" fill="#FF6B6B"/>
<path d="M189.345 302.19C175.865 263.733 162.886 241.926 149.734 221.611C146.955 217.319 143.244 213.727 138.942 210.951C106.416 189.946 85.3879 153.121 86.4146 111.757C87.8613 53.3349 133.49 5.8853 190.572 0.514266C187.629 0.237775 184.653 0.0680482 181.647 0.0160351C118.732 -1.05982 66.248 49.0288 64.6915 111.759C63.6648 153.121 84.6961 189.949 117.222 210.951C121.521 213.727 125.232 217.319 128.01 221.611C141.166 241.926 154.142 263.733 167.624 302.19C171.289 312.648 185.21 313.444 190.489 304.627C190.045 303.882 189.655 303.074 189.345 302.19Z" fill="black" fill-opacity="0.1"/>
<path d="M185.672 343.177C185.672 338.745 187.522 334.748 190.492 331.904C187.676 329.202 183.849 327.54 179.632 327.54C170.971 327.54 163.951 334.54 163.951 343.177C163.951 351.811 170.971 358.814 179.632 358.814C183.849 358.814 187.676 357.152 190.492 354.45C187.522 351.606 185.672 347.609 185.672 343.177Z" fill="black" fill-opacity="0.1"/>
<path d="M263.543 113.53C263.543 159.685 226.021 197.102 179.736 197.102C133.452 197.102 95.9297 159.685 95.9297 113.53C95.9297 67.3756 133.452 29.959 179.736 29.959C226.021 29.959 263.543 67.3756 263.543 113.53Z" fill="white"/>
<path d="M231.702 80.8617C220.589 69.7798 194.029 87.2331 199.406 103.092C198.058 104.437 199.151 103.347 189.711 112.761C164.623 137.779 170.213 132.204 154.005 148.367C151.253 151.122 151.255 155.582 154.015 158.332C156.777 161.085 161.255 161.086 164.017 158.331C183.189 139.212 173.405 149.135 195.421 127.08L195.529 127.188C201.399 121.037 198.523 123.975 209.41 113.067C225.313 118.43 242.813 91.943 231.702 80.8617Z" fill="#FCD170"/>
<path d="M161.607 151.362C187.901 125.14 179.028 133.99 207.008 106.087C202.691 93.3545 218.976 79.5989 231.22 80.4141C219.746 70.2473 194.129 87.5287 199.405 103.092C197.317 105.176 156.333 146.045 154.005 148.367C148.981 153.396 153.772 161.865 160.692 160.189C158.904 157.458 159.209 153.763 161.607 151.362Z" fill="#F9A832"/>
<path d="M161.442 112.947C162.014 113.809 158.892 110.605 206.752 158.331C209.515 161.086 213.993 161.085 216.756 158.332C219.518 155.577 219.517 151.111 216.755 148.358C168.95 100.685 172.116 103.75 171.244 103.172L161.442 112.947Z" fill="#FF7648"/>
<path d="M210.728 152.374C210.727 152.373 166.318 108.089 166.318 108.089L161.442 112.946C162.014 113.808 158.892 110.604 206.752 158.331C211.074 162.64 218.477 159.802 218.809 153.731C216.175 155.002 212.915 154.555 210.728 152.374Z" fill="#E13303"/>
<path d="M177.025 87.8317L156.553 67.4156C154.963 65.8288 152.384 65.8293 150.793 67.415C149.202 69.0013 149.202 71.5726 150.792 73.1583C172.99 95.2948 172.061 93.9434 172.062 95.4914C172.062 96.9441 171.623 97.0519 166.344 102.315L143.844 79.8798C142.254 78.294 139.675 78.294 138.085 79.8798C136.494 81.4666 136.494 84.0373 138.085 85.6236L160.584 108.059L155.663 112.966C154.598 114.028 152.88 114.025 151.819 112.967L131.345 92.5516C129.754 90.9659 127.176 90.9654 125.585 92.5522C123.994 94.1384 123.994 96.7097 125.586 98.2955L146.059 118.71C148.111 120.757 150.838 121.883 153.74 121.883C156.642 121.883 159.37 120.757 161.422 118.711L177.026 103.15C179.078 101.104 180.207 98.3843 180.207 95.4908C180.207 92.5968 179.076 89.8768 177.025 87.8317Z" fill="#E2E1E0"/>
<path d="M117.546 113.482C117.546 70.995 149.338 35.919 190.492 30.6082C186.937 30.1483 183.313 29.9102 179.632 29.9102C133.347 29.9102 95.8252 67.3267 95.8252 113.482C95.8252 159.636 133.347 197.053 179.632 197.053C183.313 197.053 186.937 196.815 190.492 196.355C149.338 191.044 117.546 155.965 117.546 113.482Z" fill="#FFEEEF"/>
<ellipse cx="179.473" cy="374.232" rx="88.8141" ry="15.7682" fill="black" fill-opacity="0.1"/>
</svg>
