<svg width="70" height="70" viewBox="0 0 70 70" fill="none" xmlns="http://www.w3.org/2000/svg">
<g id="fi_2121288" clip-path="url(#clip0_2789_18082)">
<path id="Vector" d="M69.0871 17.9175L52.6121 6.93417C51.9232 6.47507 51.0259 6.47507 50.337 6.93417L35 17.1588L19.6629 6.93417C18.974 6.47507 18.0767 6.47507 17.3878 6.93417L9.69924 12.0599L0 39.3931V53.9028L49.6482 60.6484L51.4746 59.4308L66.8117 69.6554C67.441 70.075 68.2501 70.1141 68.9169 69.7573C69.5837 69.4004 70 68.7055 70 67.9492V19.6236C70 18.9381 69.6574 18.2978 69.0871 17.9175Z" fill="#E7DFDD"/>
<path id="Vector_2" d="M50.3371 6.93424L35 17.1589L19.6629 6.93424C19.3664 6.73668 19.0313 6.62457 18.6909 6.59709V56.4424L49.6481 60.6484L51.4746 59.4308V6.58984C51.0781 6.58984 50.6815 6.70469 50.3371 6.93424Z" fill="#F4F1F1"/>
<path id="Vector_3" d="M69.0871 17.9175L52.6121 6.93417C51.9232 6.47507 51.0259 6.47507 50.337 6.93417L35 17.1588V58.6582L49.6482 60.6484L51.4746 59.4308L66.8117 69.6554C67.441 70.075 68.2501 70.1141 68.9169 69.7573C69.5837 69.4004 70 68.7055 70 67.9492V19.6236C70 18.9381 69.6574 18.2978 69.0871 17.9175Z" fill="#D0C8C3"/>
<path id="Vector_4" d="M69.0871 17.9175L52.6121 6.93424C52.2676 6.70469 51.8711 6.58984 51.4746 6.58984V59.4308L66.8117 69.6555C67.441 70.0751 68.2501 70.1142 68.9169 69.7573C69.5837 69.4005 70 68.7055 70 67.9492V19.6237C70 18.9381 69.6574 18.2979 69.0871 17.9175Z" fill="#E7DFDD"/>
<path id="Vector_5" d="M51.4746 32.6576C50.7463 32.6576 50.0725 32.2714 49.7048 31.6427L45.6329 24.6858C41.2415 22.4823 38.4409 17.9819 38.4409 13.0339C38.4408 5.84705 44.2878 0 51.4746 0C58.6613 0 64.5084 5.84705 64.5084 13.0338C64.5084 17.9821 61.7074 22.4824 57.3164 24.6858L53.2444 31.6427C52.8766 32.2714 52.2029 32.6576 51.4746 32.6576Z" fill="#FF7D47"/>
<path id="Vector_6" d="M1.08309 41.2014C0.416309 40.8445 0 40.1496 0 39.3933V19.6237C0 18.9381 0.342617 18.2978 0.913145 17.9175L9.69965 12.0591C10.329 11.6395 11.1383 11.6004 11.8048 11.9572C12.4718 12.3141 12.8881 13.009 12.8881 13.7653V30.0082C12.8881 32.9049 11.4498 35.5925 9.0408 37.1976L3.18828 41.0995C2.55801 41.5199 1.74877 41.5577 1.08309 41.2014Z" fill="#7DD5F4"/>
<path id="Vector_7" d="M53.2444 31.6427L57.3165 24.6858C61.7073 22.4826 64.5084 17.9821 64.5084 13.0338C64.5084 5.84705 58.6614 0 51.4746 0V32.6576C52.2029 32.6576 52.8767 32.2714 53.2444 31.6427Z" fill="#E14753"/>
<path id="Vector_8" d="M51.4749 19.4779C47.9217 19.4779 45.0308 16.5871 45.0308 13.0339C45.0308 9.48076 47.9215 6.58984 51.4749 6.58984C55.0282 6.58984 57.9188 9.48062 57.9188 13.0338C57.9188 16.587 55.028 19.4779 51.4749 19.4779Z" fill="#E14753"/>
<path id="Vector_9" d="M57.9186 13.0338C57.9186 9.48062 55.0278 6.58984 51.4746 6.58984V19.4779C55.0279 19.4779 57.9186 16.5871 57.9186 13.0338Z" fill="#C1126B"/>
<path id="Vector_10" d="M22.2832 30.7139C21.1525 30.7139 20.2324 29.7951 20.2324 28.6645V24.5629C20.2324 23.4309 21.1525 22.5107 22.2832 22.5107C23.414 22.5107 24.334 23.4309 24.334 24.5629V28.6645C24.334 29.7951 23.4139 30.7139 22.2832 30.7139Z" fill="#005293"/>
<path id="Vector_11" d="M22.2832 17.8638C23.4158 17.8638 24.334 16.9456 24.334 15.813C24.334 14.6804 23.4158 13.7622 22.2832 13.7622C21.1506 13.7622 20.2324 14.6804 20.2324 15.813C20.2324 16.9456 21.1506 17.8638 22.2832 17.8638Z" fill="#005293"/>
<path id="Vector_12" d="M48.9537 42.3778C47.1585 41.263 44.9039 41.3089 43.1639 42.4689L37.5193 46.2325C35.9894 47.2518 34.0119 47.2518 32.4827 46.233L23.3188 40.1225C20.4072 38.1831 16.6448 38.1829 13.7322 40.1232L3.84768 46.7129C1.43842 48.3196 0 51.0075 0 53.9031V67.8854C0 68.6069 0.346719 69.2999 0.957305 69.6842C1.29295 69.8956 1.67234 70.0001 2.05064 70.0001C2.4485 70.0001 2.84525 69.8844 3.18828 69.6557L18.5254 59.4309L33.8625 69.6557C34.5514 70.1148 35.4487 70.1148 36.1376 69.6557L49.6483 60.6485C50.7894 59.8878 51.4747 58.6072 51.4747 57.2359V47.0109C51.4746 45.1389 50.544 43.3653 48.9537 42.3778Z" fill="#00CB75"/>
<path id="Vector_13" d="M48.9536 42.3778C47.1585 41.263 44.9039 41.3089 43.1638 42.4688L37.5193 46.2324C35.9894 47.2518 34.0119 47.2518 32.4827 46.2329L23.3187 40.1224C21.9109 39.1848 20.3043 38.7018 18.6909 38.6709V59.5412L33.8625 69.6555C34.5514 70.1146 35.4487 70.1146 36.1376 69.6555L49.6483 60.6483C50.7893 59.8876 51.4747 58.607 51.4747 57.2357V47.0107C51.4746 45.1388 50.5439 43.3653 48.9536 42.3778Z" fill="#BEE75E"/>
<path id="Vector_14" d="M51.4747 47.011C51.4747 45.139 50.5441 43.3655 48.9537 42.3778C47.1585 41.263 44.9039 41.309 43.1639 42.4689L37.5193 46.2325C36.7541 46.7423 35.8771 46.9972 35 46.997V70.0001C35.3965 70.0001 35.7931 69.8852 36.1375 69.6557L49.6482 60.6485C50.7892 59.8878 51.4746 58.6072 51.4746 57.2359V47.011H51.4747Z" fill="#009884"/>
<path id="Vector_15" d="M32.4973 35.2594L29.0847 32.9842C28.1428 32.3563 26.8668 32.6114 26.2397 33.5523C25.6125 34.4931 25.8677 35.7691 26.8095 36.397L30.2222 38.6721C31.1629 39.2994 32.4378 39.0433 33.0649 38.1026C33.6922 37.1618 33.4381 35.8866 32.4973 35.2594Z" fill="#005293"/>
<path id="Vector_16" d="M43.7602 33.5525C43.133 32.6117 41.8571 32.3565 40.9152 32.9844L37.5026 35.2596C36.5618 35.8868 36.3077 37.162 36.935 38.1028C37.5621 39.0435 38.837 39.2995 39.7777 38.6724L43.1904 36.3972C44.1322 35.7693 44.3874 34.4933 43.7602 33.5525Z" fill="#002349"/>
</g>
<defs>
<clipPath id="clip0_2789_18082">
<rect width="70" height="70" fill="white"/>
</clipPath>
</defs>
</svg>
