<svg width="70" height="70" viewBox="0 0 70 70" fill="none" xmlns="http://www.w3.org/2000/svg">
<g id="fi_604507" clip-path="url(#clip0_2789_18067)">
<path id="Vector" d="M37.7955 65.8228C55.5815 65.8228 69.9998 51.4045 69.9998 33.6185C69.9998 15.8326 55.5815 1.41431 37.7955 1.41431C20.0096 1.41431 5.59131 15.8326 5.59131 33.6185C5.59131 51.4045 20.0096 65.8228 37.7955 65.8228Z" fill="#F9A825"/>
<path id="Vector_2" d="M37.7958 60.2058C52.4795 60.2058 64.3831 48.3023 64.3831 33.6185C64.3831 18.9348 52.4795 7.03125 37.7958 7.03125C23.112 7.03125 11.2085 18.9348 11.2085 33.6185C11.2085 48.3023 23.112 60.2058 37.7958 60.2058Z" fill="white"/>
<path id="Vector_3" d="M37.7953 7.03125C37.0843 7.03125 36.3797 7.05996 35.6826 7.11479C49.3788 8.19172 60.1577 19.6462 60.1577 33.6189C60.1577 47.5917 49.3788 59.0464 35.6826 60.1231C36.3796 60.1779 37.0841 60.2066 37.7953 60.2066C52.4793 60.2066 64.383 48.3029 64.383 33.6189C64.383 18.9349 52.4793 7.03125 37.7953 7.03125Z" fill="#E6E6E6"/>
<g id="Group">
<path id="Vector_4" d="M13.8098 7.38159L9.33291 9.40503L9.27344 20.4266L17.0229 26.6297L21.5022 24.6079L13.8098 7.38159Z" fill="#FF6A66"/>
<path id="Vector_5" d="M31.6505 47.3469L27.1738 49.369L27.4329 60.0682L34.8623 66.5949L39.3417 64.5729L31.6505 47.3469Z" fill="#FF6A66"/>
</g>
<g id="Group_2">
<path id="Vector_6" d="M34.8566 66.5795C33.4519 67.1802 31.8552 67.8653 31.6845 67.93C13.1937 75.2515 -11.8539 19.0131 6.28931 10.7151C6.33744 10.694 7.90984 10.0173 9.33281 9.40479L17.023 26.6308L13.9952 27.9315C8.47462 30.5352 18.4539 53.0671 24.0845 50.6858C24.2137 50.6382 25.7895 49.9619 27.1734 49.369L34.8566 66.5795Z" fill="#EF5350"/>
<path id="Vector_7" d="M25.104 39.0642L30.9123 34.3068C33.4516 32.2346 34.444 31.0961 34.444 29.4033C34.444 27.6811 33.3057 26.7472 31.7004 26.7472C30.4162 26.7472 29.5114 27.3017 28.373 28.5277C28.081 28.8489 27.5559 29.1699 26.8553 29.1699C25.717 29.1699 24.8122 28.2651 24.8122 27.1267C24.8122 26.6306 25.0166 26.1052 25.3376 25.7258C26.9721 23.8285 28.8985 22.7195 31.9923 22.7195C36.2245 22.7195 39.0264 25.2005 39.0264 29.024V29.0825C39.0264 32.4975 37.2752 34.1903 33.6559 36.9922L30.3285 39.5606H37.4504C38.5302 39.5606 39.4058 40.4363 39.4058 41.5163C39.4058 42.5961 38.5302 43.4426 37.4504 43.4426H26.359C24.9581 43.4426 23.9365 42.6546 23.9365 41.3119C23.9365 40.4359 24.3452 39.6771 25.104 39.0642Z" fill="#EF5350"/>
<path id="Vector_8" d="M52.0433 39.0349H43.6374C42.4408 39.0349 41.4482 38.1592 41.4482 36.9627C41.4482 36.0287 41.8276 35.2991 42.4991 34.511L51.372 24.2079C52.2184 23.2155 52.8604 22.6902 54.1739 22.6902C55.3705 22.6902 56.3338 23.6241 56.3338 24.8209V35.3867H57.4137C58.4353 35.3867 59.2526 36.2039 59.2526 37.2254C59.2526 38.2471 58.4353 39.035 57.4137 39.035H56.3338V41.4868C56.3338 42.6834 55.3707 43.6176 54.1739 43.6176C52.9772 43.6176 52.0431 42.6837 52.0431 41.4868V39.0349H52.0433ZM52.0433 35.3866V29.0238L46.6146 35.3866H52.0433Z" fill="#EF5350"/>
</g>
</g>
<defs>
<clipPath id="clip0_2789_18067">
<rect width="70" height="70" fill="white"/>
</clipPath>
</defs>
</svg>
