<svg width="70" height="70" viewBox="0 0 70 70" fill="none" xmlns="http://www.w3.org/2000/svg">
<g id="fi_8898833">
<g id="Group 1597885571">
<path id="Vector" d="M56.5964 65.1797H12.8374C9.06724 65.1797 6 62.1124 6 58.3423V29.3519C6 27.2638 6.93535 25.3179 8.56538 24.0133L30.4449 6.50969C32.9597 4.49677 36.4727 4.49677 38.9875 6.50969L60.8671 24.0133C62.4971 25.3179 63.4324 27.2624 63.4324 29.3519V58.3423C63.4324 62.1124 60.3666 65.1797 56.5964 65.1797Z" fill="url(#paint0_linear_2789_18103)"/>
<path id="Vector_2" d="M55.229 54.24H14.2049C13.45 54.24 12.8374 53.6274 12.8374 52.8726V14.5834C12.8374 12.3216 14.678 10.481 16.9398 10.481H52.4941C54.7559 10.481 56.5965 12.3216 56.5965 14.5834V52.8726C56.5965 53.6274 55.9839 54.24 55.229 54.24Z" fill="url(#paint1_linear_2789_18103)"/>
<path id="Vector_3" d="M40.3509 34.9027C40.9977 34.513 41.2069 33.6733 40.8172 33.0252C40.4261 32.377 39.5851 32.1705 38.9396 32.5589C37.6692 33.3246 36.2088 33.728 34.7155 33.728C30.1905 33.728 26.5107 30.0482 26.5107 25.5232C26.5107 20.9983 30.1905 17.3184 34.7155 17.3184C39.2405 17.3184 42.9203 20.9983 42.9203 25.5615C42.9135 27.0233 41.5952 28.2595 40.0404 28.2595C39.6822 28.2595 39.3485 28.1159 39.101 27.8561C38.8548 27.5963 38.729 27.2572 38.7482 26.8975L38.956 22.9319C38.9943 22.1866 38.7222 21.4482 38.208 20.9066C37.6939 20.3651 36.9718 20.0547 36.2252 20.0547H35.6153C32.2609 20.0547 29.3878 22.7801 29.2128 26.1413C29.1458 27.4281 29.5902 28.6438 30.4654 29.5655C31.3392 30.4871 32.5303 30.9945 33.8184 30.9945C35.0628 30.9945 36.2143 30.5022 37.099 29.7131C37.1058 29.7214 37.1113 29.7309 37.1181 29.7391C37.8744 30.5364 38.9396 30.9945 40.0404 30.9958C43.1227 30.9958 45.643 28.5645 45.6566 25.526C45.6566 19.494 40.7488 14.5862 34.7169 14.5862C28.685 14.5862 23.7771 19.494 23.7771 25.526C23.7771 31.5579 28.685 36.4657 34.7169 36.4657C36.7065 36.4657 38.6552 35.9256 40.3509 34.9054V34.9027ZM36.0502 26.1358V26.1413C35.9886 27.2886 34.9671 28.2568 33.8184 28.2568C33.2879 28.2568 32.801 28.0517 32.4496 27.6811C32.0968 27.3091 31.9177 26.8127 31.945 26.2712C32.0435 24.3827 33.7255 22.7883 35.6167 22.7883H36.2266L36.0502 26.1358Z" fill="url(#paint2_linear_2789_18103)"/>
<path id="Vector_4" d="M38.9902 45.9143C36.5124 47.8985 32.9187 47.8985 30.4435 45.9143L6.51417 26.7683C6.18461 27.5779 6 28.4489 6 29.3515V58.3419C6 62.112 9.06724 65.1792 12.8374 65.1792H56.5964C60.3666 65.1792 63.4338 62.112 63.4338 58.3419V29.3515C63.4338 28.4489 63.2492 27.5779 62.9196 26.7683L38.9902 45.9143Z" fill="url(#paint3_linear_2789_18103)"/>
<path id="Vector_5" d="M38.9902 42.234C36.5123 40.2498 32.9186 40.2498 30.4435 42.234L6.67407 61.2514C7.77078 63.5652 10.1119 65.1802 12.8373 65.1802H56.5963C59.3217 65.1802 61.6628 63.5652 62.7595 61.2514L38.9902 42.234Z" fill="url(#paint4_linear_2789_18103)"/>
</g>
</g>
<defs>
<linearGradient id="paint0_linear_2789_18103" x1="34.7169" y1="8.12057" x2="34.7169" y2="44.0454" gradientUnits="userSpaceOnUse">
<stop stop-color="#FD9B02"/>
<stop offset="1" stop-color="#FF7302"/>
</linearGradient>
<linearGradient id="paint1_linear_2789_18103" x1="34.7169" y1="10.6286" x2="34.7169" y2="44.5064" gradientUnits="userSpaceOnUse">
<stop stop-color="#EDF1F2"/>
<stop offset="0.336" stop-color="#E9EDEE"/>
<stop offset="0.636" stop-color="#DEE2E3"/>
<stop offset="0.921" stop-color="#CCD1D2"/>
<stop offset="1" stop-color="#C6CBCC"/>
</linearGradient>
<linearGradient id="paint2_linear_2789_18103" x1="24.8095" y1="15.6159" x2="42.588" y2="33.3944" gradientUnits="userSpaceOnUse">
<stop stop-color="#4793EB"/>
<stop offset="1" stop-color="#2367EC"/>
</linearGradient>
<linearGradient id="paint3_linear_2789_18103" x1="-6.81594" y1="-2.99744" x2="48.9974" y2="60.3425" gradientUnits="userSpaceOnUse">
<stop stop-color="#FED200"/>
<stop offset="1" stop-color="#F59815"/>
</linearGradient>
<linearGradient id="paint4_linear_2789_18103" x1="23.0427" y1="41.6227" x2="50.3224" y2="87.5588" gradientUnits="userSpaceOnUse">
<stop stop-color="#FED200"/>
<stop offset="1" stop-color="#F59815"/>
</linearGradient>
</defs>
</svg>
