<svg width="300" height="181" viewBox="0 0 300 181" fill="none" xmlns="http://www.w3.org/2000/svg">
<g clip-path="url(#clip0_2789_18113)">
<path d="M108.102 4.76995L107.002 3.20105C106.695 2.76441 106.105 2.63813 105.64 2.90353C104.19 3.72758 102.906 4.76781 101.806 6.00924C101.452 6.40735 101.452 7.00666 101.814 7.39621L103.135 8.81743C103.444 9.14919 103.5 9.64576 103.264 10.031C102.861 10.6903 102.526 11.3838 102.261 12.1051C102.121 12.4861 101.754 12.7386 101.347 12.7536L99.1276 12.8392C98.6344 12.8585 98.2291 13.2245 98.1497 13.7104C97.8795 15.3863 97.8924 17.1072 98.1862 18.7745C98.2762 19.2796 98.7223 19.6457 99.2348 19.6264L101.285 19.5558C101.718 19.5408 102.121 19.7976 102.271 20.2043C102.406 20.566 102.561 20.9256 102.734 21.2809C102.9 21.6127 103.075 21.9359 103.266 22.2441C103.487 22.6015 103.453 23.0596 103.195 23.3913L101.885 25.0758C101.576 25.4718 101.604 26.0326 101.943 26.4029C103.084 27.6507 104.441 28.7102 105.932 29.5171C106.378 29.759 106.937 29.6434 107.246 29.241L108.516 27.5801C108.777 27.2397 109.223 27.0942 109.633 27.2248C110.411 27.4752 111.216 27.6443 112.033 27.7299C112.494 27.777 112.865 28.1302 112.935 28.5882L113.225 30.461C113.306 30.9918 113.787 31.3664 114.323 31.3279C116.006 31.208 117.642 30.8121 119.21 30.1421C119.654 29.9516 119.92 29.4893 119.834 29.0141L119.433 26.7453C119.364 26.36 119.519 25.9598 119.842 25.7393C120.464 25.3134 121.035 24.8361 121.549 24.3117C121.869 23.9885 122.366 23.92 122.765 24.1405L124.457 25.0737C124.922 25.3305 125.506 25.1893 125.804 24.7526C126.752 23.3699 127.472 21.8246 127.925 20.2086C128.058 19.7313 127.837 19.224 127.391 19.0057L125.433 18.0425C125.062 17.8606 124.83 17.4732 124.865 17.0643C124.925 16.3152 124.914 15.5554 124.826 14.7977C124.777 14.361 125.023 13.9437 125.424 13.7639L127.26 12.9441C127.734 12.7322 127.974 12.1992 127.824 11.7048C127.584 10.9171 127.277 10.1466 126.912 9.40389C126.539 8.64834 126.104 7.92275 125.615 7.2421C125.311 6.8183 124.736 6.6856 124.279 6.93817L122.534 7.8992C122.143 8.11324 121.657 8.05331 121.337 7.74509C120.739 7.16933 120.085 6.6642 119.39 6.23398C119.008 5.99854 118.828 5.53835 118.946 5.10385L119.463 3.19249C119.6 2.68736 119.332 2.16082 118.845 1.96818C117.295 1.35175 115.639 0.992168 113.977 0.906552C113.456 0.880868 112.997 1.24473 112.907 1.75629L112.566 3.72544C112.491 4.16422 112.14 4.5024 111.698 4.56019C110.885 4.66507 110.075 4.85985 109.279 5.14452C108.848 5.29863 108.366 5.14452 108.102 4.76781V4.76995ZM115.892 8.78532C124.8 13.3187 120.685 25.3969 110.855 23.569C110.75 23.5497 110.643 23.5133 110.549 23.4641C101.647 18.9286 105.76 6.85683 115.586 8.68044C115.691 8.69971 115.798 8.73609 115.892 8.78532Z" fill="#C8E2FF"/>
<path d="M84.5671 18.9781L83.6793 17.7131C83.4327 17.3599 82.9567 17.2594 82.5814 17.4734C81.4149 18.1369 80.3791 18.9759 79.4913 19.9755C79.2061 20.2966 79.2061 20.7781 79.4978 21.0928L80.5614 22.2379C80.8101 22.5054 80.8552 22.9057 80.6643 23.2161C80.3405 23.7469 80.0703 24.3077 79.8559 24.8877C79.7422 25.1959 79.4484 25.3971 79.1204 25.41L77.3319 25.4784C76.9352 25.4934 76.6071 25.7888 76.5449 26.1805C76.3284 27.5311 76.3369 28.918 76.575 30.2622C76.6457 30.6689 77.006 30.9643 77.4198 30.9493L79.071 30.8915C79.4206 30.8786 79.7444 31.0863 79.8666 31.4137C79.976 31.7048 80.1003 31.9959 80.2397 32.2806C80.3727 32.5481 80.5164 32.8071 80.6686 33.0576C80.8466 33.3465 80.8187 33.7147 80.6107 33.9822L79.5557 35.3392C79.3069 35.6581 79.3284 36.1098 79.6028 36.4094C80.5228 37.4132 81.6164 38.2673 82.8173 38.9201C83.1775 39.1149 83.6279 39.0228 83.8766 38.6975L84.8995 37.3576C85.1096 37.0836 85.4699 36.9659 85.8001 37.0729C86.4263 37.2741 87.076 37.4111 87.7322 37.4796C88.1032 37.5181 88.4034 37.8028 88.4592 38.1709L88.6908 39.6799C88.7572 40.108 89.1432 40.4098 89.5764 40.3798C90.9338 40.2835 92.2505 39.9646 93.5135 39.4231C93.8716 39.269 94.0839 38.8965 94.0174 38.5134L93.6936 36.6855C93.6379 36.3752 93.7623 36.0541 94.0239 35.8743C94.5235 35.5318 94.9846 35.1466 95.3984 34.7249C95.6558 34.4638 96.0568 34.4081 96.3784 34.5858L97.7423 35.3371C98.1154 35.5425 98.5871 35.4312 98.8273 35.0781C99.5907 33.9651 100.172 32.7194 100.536 31.4159C100.644 31.0306 100.466 30.6218 100.105 30.4463L98.5292 29.6715C98.2312 29.5238 98.0446 29.2134 98.0703 28.8817C98.1197 28.2781 98.1089 27.6659 98.0403 27.0559C97.9996 26.7027 98.199 26.3688 98.5228 26.2233L100.002 25.5619C100.384 25.3907 100.579 24.9626 100.457 24.5624C100.264 23.9267 100.017 23.3059 99.7215 22.7088C99.4213 22.0988 99.0718 21.5166 98.6751 20.9665C98.4306 20.624 97.9674 20.5192 97.5986 20.7225L96.1919 21.4973C95.8766 21.6707 95.4864 21.6215 95.2269 21.3732C94.7444 20.9087 94.219 20.502 93.6572 20.1553C93.3484 19.9648 93.2047 19.5945 93.2991 19.2456L93.7151 17.7067C93.8244 17.3 93.61 16.8762 93.2176 16.72C91.9674 16.2277 90.6336 15.9387 89.2933 15.8702C88.873 15.8488 88.5042 16.1421 88.4313 16.5552L88.1568 18.1412C88.0946 18.4944 87.8137 18.7683 87.4577 18.8154C86.8016 18.901 86.1497 19.0551 85.5085 19.2863C85.1611 19.4104 84.773 19.2863 84.5607 18.9824L84.5671 18.9781ZM90.8459 22.2144C98.0253 25.868 94.7079 35.6003 86.7866 34.1278C86.7008 34.1128 86.615 34.0828 86.5378 34.0443C79.3648 30.3885 82.68 20.6604 90.5971 22.1309C90.6829 22.1459 90.7687 22.1758 90.8459 22.2144Z" fill="#C8E2FF"/>
<path d="M224.088 14.7363H199.776V32.639H224.088V14.7363Z" fill="#FFB701"/>
<path d="M199.765 14.436L210.237 24.8879C211.165 25.8141 212.678 25.8089 213.611 24.8775L224.15 14.3584L199.771 14.436H199.765Z" fill="#FFE25E"/>
<path opacity="0.73" d="M222.082 28.8873H215.892C215.727 28.8873 215.592 28.7528 215.592 28.5872C215.592 28.4216 215.727 28.2871 215.892 28.2871H222.082C222.248 28.2871 222.383 28.4216 222.383 28.5872C222.383 28.7528 222.248 28.8873 222.082 28.8873Z" fill="white"/>
<path d="M208.06 27.1695H201.87C201.704 27.1695 201.569 27.035 201.569 26.8694C201.569 26.7039 201.704 26.5693 201.87 26.5693H208.06C208.225 26.5693 208.36 26.7039 208.36 26.8694C208.36 27.035 208.225 27.1695 208.06 27.1695Z" fill="white"/>
<path d="M208.06 28.7789H201.87C201.704 28.7789 201.569 28.6444 201.569 28.4788C201.569 28.3132 201.704 28.1787 201.87 28.1787H208.06C208.225 28.1787 208.36 28.3132 208.36 28.4788C208.36 28.6444 208.225 28.7789 208.06 28.7789Z" fill="white"/>
<path d="M267.12 19.8121H230.397C229.391 19.8121 228.572 18.9997 228.572 17.9908C228.572 16.987 229.386 16.1694 230.397 16.1694H267.12C268.125 16.1694 268.944 16.9818 268.944 17.9908C268.944 18.9945 268.13 19.8121 267.12 19.8121Z" fill="#F05454" fill-opacity="0.2"/>
<path d="M249.842 25.7156H229.578C229.023 25.7156 228.572 25.2654 228.572 24.7118C228.572 24.1582 229.023 23.708 229.578 23.708H249.842C250.396 23.708 250.847 24.1582 250.847 24.7118C250.847 25.2654 250.396 25.7156 249.842 25.7156Z" fill="#F05454" fill-opacity="0.2"/>
<path d="M249.842 30.1399H229.578C229.023 30.1399 228.572 29.6898 228.572 29.1361C228.572 28.5825 229.023 28.1323 229.578 28.1323H249.842C250.396 28.1323 250.847 28.5825 250.847 29.1361C250.847 29.6898 250.396 30.1399 249.842 30.1399Z" fill="#F05454" fill-opacity="0.2"/>
<path d="M68.1198 180.031L252.427 179.663L231.785 57.2006C230.987 52.4714 226.881 49.0151 222.081 49.0254L57.6846 49.3514C51.6195 49.3617 47.011 54.8102 48.0219 60.7812L68.125 180.031H68.1198Z" fill="#FFF8ED"/>
<path d="M81.5401 90.9465C79.2073 89.1096 76.2266 89.1096 74.8788 90.9465C73.531 92.7833 74.3293 95.7585 76.6621 97.5953C78.9948 99.4322 81.9755 99.4322 83.3233 97.5953C84.6711 95.7585 83.8728 92.7833 81.5401 90.9465Z" fill="#8FC6C6"/>
<path d="M89.5752 94.4751H189.836" stroke="#206BC7" stroke-width="0.732973" stroke-miterlimit="10"/>
<path d="M91.9304 137.639C93.4291 135.929 92.8307 132.96 90.5941 131.007C88.3574 129.054 85.3293 128.857 83.8307 130.567C82.3321 132.276 82.9304 135.246 85.1671 137.199C87.4038 139.152 90.4318 139.349 91.9304 137.639Z" fill="#8FC6C6"/>
<path d="M98.3564 134.322H198.618" stroke="#206BC7" stroke-width="0.732973" stroke-miterlimit="10"/>
<path d="M48.1662 61.9828L48.0158 60.7875C47.0102 54.8165 51.6134 49.3733 57.6786 49.3577L222.075 49.0318C226.875 49.0214 230.981 52.4829 231.779 57.207L232.624 62.2311C233.065 61.4653 48.161 61.9828 48.161 61.9828H48.1662Z" fill="#C5DEFF"/>
<path d="M208.746 54.8C207.539 53.8479 205.989 53.8479 205.289 54.8C204.589 55.752 205.004 57.2939 206.217 58.2512C207.425 59.2032 208.975 59.2032 209.674 58.2512C210.374 57.2991 209.959 55.7572 208.746 54.8Z" fill="white"/>
<path d="M216.73 54.8C215.522 53.8479 213.972 53.8479 213.272 54.8C212.572 55.752 212.987 57.2939 214.2 58.2512C215.413 59.2084 216.958 59.2032 217.658 58.2512C218.357 57.2991 217.943 55.7572 216.73 54.8Z" fill="#0F0B00"/>
<path d="M224.759 54.8C223.552 53.8479 222.002 53.8479 221.302 54.8C220.602 55.752 221.017 57.2939 222.23 58.2512C223.443 59.2084 224.987 59.2032 225.687 58.2512C226.387 57.2991 225.972 55.7572 224.759 54.8Z" fill="#805B00"/>
<g filter="url(#filter0_d_2789_18113)">
<path d="M52.2817 110.875L57.6323 105.535H77.7781C81.8779 105.535 85.2018 102.217 85.2018 98.125V96.5182C85.2018 92.426 81.8779 89.1084 77.7781 89.1084H59.7054C55.6056 89.1084 52.2817 92.426 52.2817 96.5182V110.875Z" fill="#90C68F"/>
<path d="M74.5063 97.1137C74.5063 98.1368 75.3344 98.9633 76.3594 98.9633C77.3843 98.9633 78.2124 98.1368 78.2124 97.1137C78.2124 96.0907 77.3843 95.2642 76.3594 95.2642C75.3344 95.2642 74.5063 96.0907 74.5063 97.1137Z" fill="white"/>
<path d="M67.7139 97.1137C67.7139 98.1368 68.5419 98.9633 69.5669 98.9633C70.5918 98.9633 71.4199 98.1368 71.4199 97.1137C71.4199 96.0907 70.5918 95.2642 69.5669 95.2642C68.5419 95.2642 67.7139 96.0907 67.7139 97.1137Z" fill="white"/>
<path d="M60.9272 97.1137C60.9272 98.1368 61.7553 98.9633 62.7803 98.9633C63.8052 98.9633 64.6333 98.1368 64.6333 97.1137C64.6333 96.0907 63.8052 95.2642 62.7803 95.2642C61.7553 95.2642 60.9272 96.0907 60.9272 97.1137Z" fill="white"/>
<path d="M56.4337 101.772L51.0831 96.4318H30.9373C26.8375 96.4318 23.5137 93.1141 23.5137 89.022V87.4152C23.5137 83.323 26.8375 80.0054 30.9373 80.0054H49.01C53.1098 80.0054 56.4337 83.323 56.4337 87.4152V101.772Z" fill="#FFB701"/>
<path d="M34.209 88.0102C34.209 89.0332 33.3809 89.8598 32.3559 89.8598C31.331 89.8598 30.5029 89.0332 30.5029 88.0102C30.5029 86.9872 31.331 86.1606 32.3559 86.1606C33.3809 86.1606 34.209 86.9872 34.209 88.0102Z" fill="white"/>
<path d="M41.0014 88.0102C41.0014 89.0332 40.1734 89.8598 39.1484 89.8598C38.1235 89.8598 37.2954 89.0332 37.2954 88.0102C37.2954 86.9872 38.1235 86.1606 39.1484 86.1606C40.1734 86.1606 41.0014 86.9872 41.0014 88.0102Z" fill="white"/>
<path d="M47.7939 88.0102C47.7939 89.0332 46.9658 89.8598 45.9409 89.8598C44.9159 89.8598 44.0879 89.0332 44.0879 88.0102C44.0879 86.9872 44.9159 86.1606 45.9409 86.1606C46.9658 86.1606 47.7939 86.9872 47.7939 88.0102Z" fill="white"/>
</g>
<path d="M276.243 119.741H221.911L217.39 101.285H271.723L276.243 119.741Z" fill="#FFCD4F"/>
<path d="M236.413 108.973H236.846V113.122H236.484L233.817 109.755V113.122H233.378V108.973H233.74L236.413 112.339V108.973ZM240.831 111.563C240.831 111.598 240.825 111.646 240.825 111.693H238.218C238.265 112.345 238.763 112.778 239.444 112.778C239.824 112.778 240.162 112.641 240.399 112.369L240.636 112.641C240.357 112.973 239.925 113.151 239.433 113.151C238.461 113.151 237.797 112.487 237.797 111.563C237.797 110.638 238.443 109.98 239.32 109.98C240.197 109.98 240.831 110.626 240.831 111.563ZM239.32 110.342C238.715 110.342 238.271 110.769 238.218 111.379H240.428C240.375 110.769 239.931 110.342 239.32 110.342ZM244.408 111.563C244.408 111.598 244.403 111.646 244.403 111.693H241.795C241.842 112.345 242.34 112.778 243.022 112.778C243.401 112.778 243.739 112.641 243.976 112.369L244.213 112.641C243.934 112.973 243.502 113.151 243.01 113.151C242.038 113.151 241.374 112.487 241.374 111.563C241.374 110.638 242.02 109.98 242.897 109.98C243.774 109.98 244.408 110.626 244.408 111.563ZM242.897 110.342C242.293 110.342 241.848 110.769 241.795 111.379H244.005C243.952 110.769 243.508 110.342 242.897 110.342ZM247.689 108.724H248.11V113.122H247.707V112.505C247.452 112.926 247.019 113.151 246.504 113.151C245.615 113.151 244.951 112.505 244.951 111.563C244.951 110.62 245.615 109.98 246.504 109.98C247.002 109.98 247.428 110.194 247.689 110.597V108.724ZM246.539 112.778C247.197 112.778 247.695 112.292 247.695 111.563C247.695 110.834 247.197 110.348 246.539 110.348C245.875 110.348 245.378 110.834 245.378 111.563C245.378 112.292 245.875 112.778 246.539 112.778ZM253.957 108.973H254.389V113.122H253.957V111.207H251.361V113.122H250.922V108.973H251.361V110.822H253.957V108.973ZM258.375 111.563C258.375 111.598 258.369 111.646 258.369 111.693H255.761C255.809 112.345 256.307 112.778 256.988 112.778C257.368 112.778 257.705 112.641 257.943 112.369L258.18 112.641C257.901 112.973 257.468 113.151 256.976 113.151C256.004 113.151 255.341 112.487 255.341 111.563C255.341 110.638 255.987 109.98 256.864 109.98C257.741 109.98 258.375 110.626 258.375 111.563ZM256.864 110.342C256.259 110.342 255.815 110.769 255.761 111.379H257.972C257.919 110.769 257.474 110.342 256.864 110.342ZM259.232 113.122V108.724H259.653V113.122H259.232ZM262.43 109.98C263.319 109.98 263.983 110.62 263.983 111.563C263.983 112.511 263.319 113.151 262.43 113.151C261.932 113.151 261.505 112.938 261.244 112.535V114.271H260.823V110.004H261.226V110.62C261.481 110.205 261.914 109.98 262.43 109.98ZM262.4 112.778C263.058 112.778 263.562 112.292 263.562 111.563C263.562 110.84 263.058 110.348 262.4 110.348C261.736 110.348 261.238 110.84 261.238 111.563C261.238 112.292 261.736 112.778 262.4 112.778ZM265.363 111.877C265.363 110.899 266.448 110.81 266.448 110.034C266.448 109.607 266.098 109.311 265.493 109.311C264.989 109.311 264.622 109.476 264.361 109.791L264.047 109.554C264.367 109.162 264.859 108.937 265.523 108.937C266.353 108.937 266.886 109.334 266.886 109.968C266.886 110.982 265.801 111.029 265.801 111.877H265.363ZM265.582 113.151C265.41 113.151 265.274 113.009 265.274 112.843C265.274 112.671 265.41 112.541 265.582 112.541C265.76 112.541 265.896 112.671 265.896 112.843C265.896 113.009 265.76 113.151 265.582 113.151Z" fill="black"/>
<path d="M95.8532 59.5145C95.8532 55.6866 92.7424 52.5815 88.9073 52.5815C85.0723 52.5815 81.9614 55.6866 81.9614 59.5145C81.9614 63.3424 88.5696 69.3539 88.5696 69.3539C88.5696 69.3539 95.8495 63.3424 95.8495 59.5145H95.8532Z" fill="#FFB701"/>
<path opacity="0.55" d="M84.2428 54.3906C83.9539 55.0948 83.7812 55.8664 83.7812 56.7503C83.7888 59.7017 85.9127 62.9079 88.9184 63.5184C91.8004 64.1065 94.9712 62.1288 95.8231 59.3572C95.8268 59.3384 95.8343 59.3197 95.8381 59.301C95.7255 55.5705 92.6672 52.5815 88.9034 52.5815C87.106 52.5815 85.4736 53.2707 84.2391 54.3869L84.2428 54.3906Z" fill="#FFE25E"/>
<path d="M87.7443 67.6011C87.2864 67.4963 86.8436 67.3464 86.4121 67.1704C87.6054 68.4701 88.5736 69.3503 88.5736 69.3503C88.5736 69.3503 89.2903 68.7585 90.2734 67.8259C89.4216 67.8596 88.5698 67.7922 87.7443 67.5974V67.6011Z" fill="#FFE25E"/>
<path d="M86.8921 66.2226C86.8921 66.2226 87.789 58.9563 86.7796 59.402C85.7701 59.8477 85.211 60.9676 86.333 61.1924C87.4513 61.4171 91.9318 61.1924 91.9318 61.1924C91.9318 61.1924 92.3295 59.9226 91.594 59.6268C90.4758 59.181 90.4758 63.4284 90.2506 66.4473" stroke="white" stroke-width="0.317838" stroke-miterlimit="10"/>
<path d="M91.3728 67.7883H85.774C85.3425 67.7883 84.9897 67.4362 84.9897 67.0055C84.9897 66.5747 85.3425 66.2227 85.774 66.2227H91.3728C91.8043 66.2227 92.157 66.5747 92.157 67.0055C92.157 67.4362 91.8043 67.7883 91.3728 67.7883Z" fill="#E1E8F0"/>
<path d="M88.6862 71.3652C86.8925 71.3652 85.4365 69.9119 85.4365 68.1216V67.5635H91.9321V68.1216C91.9321 69.9119 90.4761 71.3652 88.6824 71.3652H88.6862Z" fill="#E1E8F0"/>
<g style="mix-blend-mode:multiply">
<path d="M90.037 71.0655C91.1553 70.5524 91.932 69.4287 91.932 68.1216V67.5635H85.8755C87.2527 68.7433 88.6411 69.9082 90.037 71.0655Z" fill="#E1E8F0"/>
</g>
<path d="M76.3892 59.5591H79.545" stroke="#FFB701" stroke-width="0.817297" stroke-miterlimit="10" stroke-linecap="round"/>
<path d="M98.4839 59.5591H101.64" stroke="#FFB701" stroke-width="0.817297" stroke-miterlimit="10" stroke-linecap="round"/>
<path d="M80.0854 50.6489L82.3182 52.8738" stroke="#FFB701" stroke-width="0.817297" stroke-miterlimit="10" stroke-linecap="round"/>
<path d="M89.0127 46.9556V50.1055" stroke="#FFB701" stroke-width="0.817297" stroke-miterlimit="10" stroke-linecap="round"/>
<path d="M97.9437 50.6489L95.7109 52.8738" stroke="#FFB701" stroke-width="0.817297" stroke-miterlimit="10" stroke-linecap="round"/>
<path d="M179.729 49.5325C183.199 49.5325 186.012 46.7248 186.012 43.2614C186.012 39.7979 183.199 36.9902 179.729 36.9902C176.259 36.9902 173.446 39.7979 173.446 43.2614C173.446 46.7248 176.259 49.5325 179.729 49.5325Z" fill="#206BC7" stroke="#206BC7" stroke-width="1.57622" stroke-miterlimit="10"/>
<path d="M167.812 64.2787L183.654 37.9576C184.571 35.7741 182 29.208 180.331 27.5109C175.764 22.8696 169.17 20.5361 162.669 20.0859C159.061 19.8376 152.162 23.7493 150.114 28.2715C147.843 33.2801 146.501 38.2163 140.249 40.6533C126.901 45.8586 129.607 60.4394 129.607 60.4394" fill="#000400"/>
<path d="M165.577 23.3095C166.816 22.4092 168.118 21.7417 169.46 21.2864C168.154 20.9086 166.822 20.6189 165.479 20.4067C165.241 20.4895 165.002 20.562 164.769 20.6551C158.336 23.206 153.872 32.0745 155.484 38.7699C156.247 38.7596 158.004 39.1063 158.74 38.9666C158.859 33.3163 160.912 26.6934 165.577 23.3095Z" fill="#206BC7"/>
<path d="M159.787 39.3651C159.709 39.6704 159.403 39.8515 159.103 39.7635C157.843 39.4013 155.002 38.3147 153.665 41.4969C152.312 44.7152 154.966 47.4834 156.848 48.125C157.392 48.3113 158.636 48.7821 158.895 49.2944C159.694 50.8673 157.444 63.3371 155.293 67.5644C155.132 75.6362 167.205 86.6676 167.205 86.6676C167.205 86.6676 170.383 82.1971 172.933 72.4334C172.933 72.4334 173.727 54.8256 173.846 54.7583C175.821 53.651 183.633 54.2564 183.457 40.4724C183.296 27.7025 174.39 26.1088 172.073 25.8812C170.119 25.6897 163.551 24.2823 159.787 39.3651Z" fill="#FFAE8A"/>
<path d="M178.501 26.4293C178.501 26.4293 171.109 43.3851 159.404 39.7477C159.404 39.7477 156.641 17.9229 178.501 26.4293Z" fill="#000400"/>
<path d="M154.826 42.8572C154.826 42.8572 157.988 39.2353 158.927 45.5426L154.826 42.8572Z" fill="#FF8164"/>
<path d="M170.756 42.4537C172.405 42.8779 173.395 44.5544 172.975 46.1946C172.55 47.84 170.87 48.8283 169.227 48.4092C167.584 47.99 166.588 46.3084 167.008 44.6682C167.433 43.0228 169.113 42.0346 170.756 42.4537Z" fill="#FF9E87"/>
<path d="M182.798 47.0279C181.513 46.4018 180.797 44.9376 181.165 43.4991C181.45 42.3919 182.306 41.5795 183.343 41.2949C183.343 41.2949 183.685 44.9272 182.798 47.0279Z" fill="#FF9E87"/>
<path d="M180.735 44.8027L175.583 45.7807C175.583 45.7807 177.34 48.0056 178.786 47.4623C180.227 46.919 180.74 44.8027 180.74 44.8027H180.735Z" fill="white"/>
<path d="M178.195 40.555L178.003 43.9751L179.771 43.7216C180.098 43.675 180.253 43.2973 180.056 43.0334L178.195 40.5498V40.555Z" fill="#FF8164"/>
<path d="M172.736 37.7192C172.192 38.1538 172.954 36.3118 173.721 36.0531C174.489 35.7944 175.292 36.1204 175.515 36.7827C175.515 36.7827 174.043 36.6688 172.731 37.7192H172.736Z" fill="black"/>
<path d="M182.171 36.8915C182.767 37.2537 181.777 35.5204 180.979 35.3652C180.186 35.2048 179.429 35.6342 179.294 36.3172C179.294 36.3172 180.735 36.0171 182.171 36.8915Z" fill="black"/>
<path d="M174.675 40.8188C174.743 41.419 175.033 41.8795 175.323 41.8485C175.614 41.8174 175.8 41.3052 175.733 40.705C175.666 40.1048 175.375 39.6443 175.085 39.6753C174.795 39.7064 174.608 40.2186 174.675 40.8188Z" fill="black"/>
<path d="M179.424 40.0064C179.486 40.5807 179.766 41.0205 180.041 40.9895C180.321 40.9584 180.492 40.4669 180.43 39.8977C180.367 39.3234 180.087 38.8836 179.813 38.9146C179.533 38.9457 179.362 39.4372 179.424 40.0064Z" fill="black"/>
<path d="M174.369 54.4995C174.369 54.4995 171.565 55.0893 168.771 54.1114C165.977 53.1283 171.456 60.2066 174.369 54.4995Z" fill="#FF8164"/>
<path d="M157.2 186.731C158.102 182.943 158.807 179.973 159.269 178.049C159.901 175.394 164.012 175.979 163.69 178.685C163.457 180.641 163.271 183.378 163.12 186.731H194.301C192.3 159.478 187.847 135.118 179.232 120.905C167.723 119.322 153.686 121.391 142.017 121.738C136.211 131.983 133.142 139.485 129.809 152.504C128.73 156.705 126.03 169.646 122.645 186.726H157.2V186.731Z" fill="#2D2F3D"/>
<g style="mix-blend-mode:multiply" opacity="0.21">
<path d="M179.066 126.069L126.916 164.042C126.916 164.042 130.954 141.658 139.368 125.882L179.061 126.069H179.066Z" fill="black"/>
</g>
<path d="M233.615 99.3388C233.615 99.3388 223.46 108.699 207.043 120.631L207.017 120.687C206.991 120.672 206.96 120.656 206.934 120.646C205.934 120.806 202.02 122.804 201.19 122.731C201.19 122.731 191.02 126.71 184.001 103.432C182.964 101.352 168.221 76.2308 167.982 75.9411C167.982 75.9411 169.724 70.71 169.859 70.5961C179.154 62.6227 189.205 94.5785 198.339 105.449C198.718 105.9 199.34 106.05 199.884 105.822C201.009 105.362 202.554 104.596 202.554 104.596L212.123 99.9183L228.919 89.0007C228.919 89.0007 230.22 83.216 230.676 82.5692C231.521 82.3105 234.974 82.1812 234.974 82.1812C234.974 82.1812 245.585 73.2453 245.585 75.4237C245.585 76.7224 239.857 83.1591 239.857 83.1591C239.857 83.1591 242.786 86.7344 242.983 89.0732C243.18 91.4119 233.605 99.3388 233.605 99.3388H233.615Z" fill="#FFAE8A"/>
<g style="mix-blend-mode:multiply">
<path d="M230.614 82.8174C232.615 82.6829 234.621 82.6777 236.622 82.7243C236.907 82.745 237.182 82.6933 237.571 82.8278C238.364 83.1486 238.239 84.2817 237.685 84.7474C237.187 85.1924 236.601 85.3994 236.052 85.5339C234.943 85.834 233.818 86.0979 232.698 86.3204C233.761 85.8754 234.828 85.4666 235.902 85.0993C236.607 84.8354 237.462 84.5456 237.571 83.7798C237.576 83.5781 237.493 83.4125 237.353 83.3659C235.16 83.1641 232.822 83.1486 230.614 82.8123V82.8174Z" fill="#D18478"/>
<path d="M239.39 83.1436C238.079 84.5561 236.933 86.1342 236.104 87.8728L235.99 87.4951C236.306 87.6917 236.741 87.6296 237.161 87.4381C238.011 87.0345 238.82 86.3567 239.65 85.8652C240.08 85.6065 240.5 85.3322 240.94 85.089C240.209 85.7772 239.447 86.4292 238.67 87.0604C237.846 87.7796 236.544 88.6903 235.461 87.8624C236.337 85.9894 237.664 84.3026 239.396 83.1487L239.39 83.1436Z" fill="#D18478"/>
<path d="M237.41 87.8002C237.229 88.4884 237.317 89.6525 238.291 89.0368C239.582 88.3487 240.785 87.5673 242.05 86.8223C241.137 88.0123 239.888 88.8971 238.54 89.5284C238.24 89.6732 237.799 89.8181 237.472 89.5905C236.809 89.1403 237.042 88.3073 237.415 87.8002H237.41Z" fill="#D18478"/>
<path d="M242.428 89.0366C241.842 90.4647 239.489 90.6613 238.68 89.3471C239.935 89.8386 241.277 89.73 242.428 89.0366Z" fill="#D18478"/>
</g>
<path d="M168.734 70.441C168.734 70.441 173.539 66.0481 179.713 69.6959C185.887 73.3437 197.396 98.304 200.998 103.235L215.648 94.2681C215.648 94.2681 223.595 106.722 226.586 109.087C226.586 109.087 204.083 129.297 195.726 125.463C187.37 121.629 168.739 70.4461 168.739 70.4461L168.734 70.441Z" fill="#FAC849"/>
<path opacity="0.93" d="M186.934 94.5059C183.995 85.3631 178.718 77.3121 172.16 70.3424C171.73 69.8819 171.487 69.3852 171.393 68.8833C169.729 69.5301 168.734 70.4356 168.734 70.4356C168.734 70.4356 180.911 103.882 189.988 118.726C190.226 110.536 189.459 102.365 186.934 94.5059Z" fill="#F3AC40"/>
<path d="M173.197 67.2331C172.861 68.0455 185.779 92.6074 185.38 100.56C184.975 108.57 183.581 123.083 184.006 124.289C184.006 124.289 173.695 128.159 139.336 122.757C139.606 115.84 141.602 72.2573 141.602 72.2573C141.602 72.2573 152.84 65.3601 155.749 65.1479C155.749 65.1479 157.807 67.9006 160.798 68.6716C162.788 69.1838 165.1 69.5771 167.267 69.6236C170.917 69.6961 171.637 69.1786 173.197 67.228V67.2331Z" fill="#FAC849"/>
<g opacity="0.93">
<path d="M164.473 120.263C140.643 108.828 146.469 83.8371 142.763 71.564C142.042 71.9934 141.602 72.2625 141.602 72.2625C141.602 72.2625 139.606 115.84 139.336 122.763C163.436 126.55 175.701 125.779 180.88 124.977C178.376 123.72 167.034 121.49 164.473 120.263Z" fill="#F3AC40"/>
</g>
<path d="M162.097 47.1656C163.435 43.97 161.924 40.2968 158.723 38.9614C155.521 37.6259 151.841 39.1339 150.503 42.3295C149.165 45.5251 150.676 49.1983 153.878 50.5338C157.079 51.8692 160.759 50.3612 162.097 47.1656Z" fill="#206BC7" stroke="#206BC7" stroke-width="1.57622" stroke-miterlimit="10"/>
<path d="M159.652 45.4858L163.24 49.351C164.613 50.8308 166.656 51.5086 168.646 51.1412L178.449 49.3406" stroke="#206BC7" stroke-width="0.732973" stroke-miterlimit="10"/>
<path d="M178.489 48.056L176.768 48.4075C176.257 48.5117 175.928 49.0093 176.032 49.5188L176.076 49.7317C176.18 50.2412 176.679 50.5698 177.189 50.4656L178.911 50.1141C179.422 50.0099 179.751 49.5123 179.646 49.0028L179.603 48.7899C179.498 48.2803 179 47.9518 178.489 48.056Z" fill="#206BC7"/>
<path d="M156.293 48.8649C158.575 48.8649 160.425 47.0185 160.425 44.741C160.425 42.4635 158.575 40.6172 156.293 40.6172C154.011 40.6172 152.162 42.4635 152.162 44.741C152.162 47.0185 154.011 48.8649 156.293 48.8649Z" stroke="#000400" stroke-width="0.732973" stroke-miterlimit="10"/>
<path d="M148.398 71.362C141.747 65.955 126.076 86.1033 126.076 86.1033L112.92 101.59L91.1369 82.6003C90.8207 80.7014 90.2349 77.4831 89.6284 75.9877C88.9804 74.3941 89.2085 71.8277 89.3796 70.5496C89.4314 70.1512 89.0374 69.8304 88.6642 69.9857C88.0318 70.2495 87.2542 70.8342 87.135 72.1122C87.0105 73.4938 86.3211 75.5169 86.2693 76.619C86.2589 76.8829 86.0256 77.0122 85.782 76.9139C84.6467 76.4689 84.1439 75.8015 82.6457 74.5752C82.1584 74.0836 80.7847 72.9091 79.354 70.7721C77.9232 68.6352 75.9793 65.6756 75.3157 66.7363C74.844 67.4917 77.3789 71.9105 77.8351 72.5314C78.8148 73.8611 79.8568 76.4431 79.8827 76.5465C79.9968 76.9812 76.7361 73.887 75.3261 71.9674C73.9161 70.0477 72.6097 68.0091 71.8529 68.0867C71.0961 68.1695 72.1795 70.1202 72.1795 70.1202C72.1795 70.1202 70.7436 68.9663 70.3599 69.4424C70.1008 69.7632 71.5833 72.9194 72.6875 74.9994C70.6658 73.561 70.6606 74.6528 70.6606 74.6528C70.6606 74.6528 73.7813 79.5631 75.2328 80.4789C76.3992 81.2188 77.9595 83.2368 78.2239 83.6455C78.4727 84.0336 82.5161 88.1057 86.3781 89.9891C89.6751 94.4078 115.823 129.23 119.073 126.281C143.359 104.244 157.864 79.0612 148.403 71.3723L148.398 71.362Z" fill="#FFAE8A"/>
<g style="mix-blend-mode:multiply">
<path d="M72.6253 74.8027L73.7761 75.9048C74.9269 77.0069 76.451 77.5761 77.5811 78.7196H76.9746C77.4411 78.3419 77.9129 77.9797 78.4053 77.6382C80.1938 76.443 80.2508 76.4792 78.8252 78.1142C78.3379 78.6575 77.8092 79.1698 77.2856 79.6768C76.4043 78.8438 75.4246 78.2746 74.4656 77.5037C73.6154 76.7844 73.0141 75.8324 72.6201 74.8079L72.6253 74.8027Z" fill="#D18478"/>
<path d="M86.5026 77.4775C86.7929 79.066 86.8758 81.2909 86.9743 82.9053C85.6058 81.5962 85.5021 79.0246 86.5026 77.4775Z" fill="#D18478"/>
<path d="M72.2886 70.3735C73.9681 72.9762 76.5705 74.7561 78.0634 77.4829C75.6218 75.6823 72.781 73.566 72.2886 70.3735Z" fill="#D18478"/>
</g>
<path d="M148.398 71.3621C141.747 65.9551 126.076 86.1034 126.076 86.1034L112.92 101.585L101.09 91.2724C98.9853 94.5684 93.8844 100.752 91.9404 104.141C100.94 115.633 116.854 128.273 119.062 126.271C143.349 104.234 157.853 79.051 148.393 71.3621H148.398Z" fill="#FAC849"/>
<path d="M31.5225 179.73H285.05" stroke="#D2D2D2" stroke-width="0.732973" stroke-miterlimit="10"/>
<path d="M20.7487 157.756C24.0663 156.801 25.9806 153.343 25.0242 150.031C24.0679 146.72 20.6031 144.809 17.2855 145.764C13.9678 146.718 12.0536 150.177 13.0099 153.488C13.9663 156.8 17.431 158.71 20.7487 157.756Z" fill="#FFB701"/>
<path d="M13.5035 136.883C13.5035 135.191 12.1298 133.815 10.4295 133.815C8.7292 133.815 7.35547 135.186 7.35547 136.883C7.35547 138.58 8.7292 139.951 10.4295 139.951C12.1298 139.951 13.5035 138.58 13.5035 136.883Z" fill="#FFB701"/>
<path d="M259.826 171.617C259.826 169.925 258.452 168.549 256.752 168.549C255.051 168.549 253.677 169.92 253.677 171.617C253.677 173.314 255.051 174.685 256.752 174.685C258.452 174.685 259.826 173.314 259.826 171.617Z" fill="#FFB701"/>
<path d="M25.9715 34.02H42.1293C43.2009 34.02 44.0696 34.888 44.0696 35.9571V42.2068C44.0696 43.2768 43.2009 44.1434 42.1293 44.1434H34.1556L31.6836 47.1317V44.1434H25.972C24.9004 44.1434 24.0317 43.2768 24.0317 42.2068V35.9571C24.0313 34.888 24.8999 34.02 25.9715 34.02Z" fill="#FC8B3F"/>
<path d="M33.7561 37.0209C33.1625 36.6775 32.2868 37.0359 31.58 37.8262C30.8741 37.0364 29.9979 36.6775 29.4043 37.0209C28.655 37.4556 28.6446 38.8341 29.3812 40.1C29.9724 41.1173 30.8632 41.7399 31.58 41.7258C32.2976 41.7399 33.1875 41.1173 33.7792 40.1C34.5162 38.8341 34.5059 37.4556 33.7561 37.0209Z" fill="white"/>
<path d="M38.4377 37.6084V42.9307H37.7932V38.2841H37.762L36.4626 39.1469V38.492L37.7932 37.6084H38.4377Z" fill="white"/>
<path opacity="0.1" d="M44.0696 35.9576C44.0696 34.888 43.2009 34.0205 42.1294 34.0205H38.8109C39.0586 39.6876 33.7626 42.6443 29.1064 44.1443H31.6837V47.1326L34.1557 44.1443H42.1294C43.2009 44.1443 44.0696 43.2778 44.0696 42.2077V35.9576Z" fill="#114068"/>
<path d="M269.468 58.9026C269.632 52.3465 264.44 46.8988 257.872 46.7349C251.303 46.5709 245.845 51.7527 245.681 58.3088C245.516 64.8649 250.708 70.3126 257.277 70.4766C263.845 70.6405 269.304 65.4587 269.468 58.9026Z" fill="#FC8B3F"/>
<path d="M263.495 53.5319C261.282 55.5236 259.068 57.5158 256.853 59.508C255.444 58.8029 254.033 58.0984 252.625 57.3929C251.764 56.9624 251.005 58.2519 251.868 58.6833C253.444 59.4717 255.021 60.2601 256.597 61.0476C256.913 61.2053 257.24 61.1686 257.504 60.9308C259.854 58.8175 262.204 56.7029 264.553 54.5888C265.272 53.9426 264.21 52.8891 263.495 53.5319Z" fill="white"/>
<path d="M257.575 49.3472C257.916 49.3472 258.193 49.0712 258.193 48.7308C258.193 48.3903 257.916 48.1143 257.575 48.1143C257.234 48.1143 256.958 48.3903 256.958 48.7308C256.958 49.0712 257.234 49.3472 257.575 49.3472Z" fill="#F46C0F"/>
<path d="M258.192 68.6189C258.192 68.9595 257.915 69.2354 257.574 69.2354C257.233 69.2354 256.957 68.9595 256.957 68.6189C256.957 68.2784 257.233 68.0029 257.574 68.0029C257.915 68.0034 258.192 68.2789 258.192 68.6189Z" fill="#F46C0F"/>
<path d="M267.538 59.2916C267.197 59.2916 266.921 59.0151 266.921 58.6746C266.921 58.3346 267.197 58.0586 267.538 58.0586C267.88 58.0586 268.155 58.3346 268.155 58.6746C268.155 59.0151 267.88 59.2916 267.538 59.2916Z" fill="#F46C0F"/>
<path d="M247.612 59.2916C247.27 59.2916 246.994 59.0151 246.994 58.6746C246.994 58.3346 247.27 58.0586 247.612 58.0586C247.953 58.0586 248.228 58.3346 248.228 58.6746C248.228 59.0151 247.953 59.2916 247.612 59.2916Z" fill="#F46C0F"/>
<path d="M263.138 50.4021C262.966 50.696 262.587 50.7944 262.293 50.6221C261.998 50.4511 261.899 50.0734 262.072 49.7795C262.244 49.4856 262.622 49.3877 262.917 49.5586C263.211 49.7305 263.31 50.1087 263.138 50.4021Z" fill="#F46C0F"/>
<path d="M253.077 67.5705C252.905 67.8644 252.527 67.9628 252.232 67.7909C251.938 67.6185 251.839 67.2413 252.011 66.9479C252.183 66.6535 252.562 66.5551 252.856 66.7275C253.151 66.8984 253.25 67.2761 253.077 67.5705Z" fill="#F46C0F"/>
<path d="M265.861 64.2277C265.568 64.0558 265.469 63.6786 265.641 63.3847C265.813 63.0908 266.191 62.9924 266.485 63.1638C266.781 63.3357 266.879 63.7134 266.707 64.0069C266.535 64.3007 266.157 64.4001 265.861 64.2277Z" fill="#F46C0F"/>
<path d="M248.663 54.1871C248.368 54.0147 248.269 53.6374 248.441 53.344C248.613 53.0502 248.992 52.9513 249.286 53.1227C249.58 53.2946 249.68 53.6723 249.507 53.9657C249.336 54.2596 248.957 54.359 248.663 54.1871Z" fill="#F46C0F"/>
<path d="M252.011 50.4021C252.184 50.696 252.562 50.7944 252.856 50.6221C253.151 50.4511 253.25 50.0734 253.078 49.7795C252.905 49.4856 252.527 49.3877 252.233 49.5586C251.938 49.7305 251.839 50.1087 252.011 50.4021Z" fill="#F46C0F"/>
<path d="M262.072 67.5705C262.244 67.8644 262.622 67.9628 262.916 67.7909C263.21 67.6185 263.31 67.2413 263.138 66.9479C262.966 66.6535 262.587 66.5551 262.293 66.7275C261.998 66.8984 261.899 67.2761 262.072 67.5705Z" fill="#F46C0F"/>
<path d="M249.287 64.2277C249.581 64.0558 249.679 63.6786 249.507 63.3847C249.335 63.0908 248.957 62.9924 248.663 63.1638C248.368 63.3357 248.269 63.7134 248.441 64.0069C248.613 64.3007 248.991 64.4001 249.287 64.2277Z" fill="#F46C0F"/>
<path d="M266.487 54.1871C266.781 54.0147 266.879 53.6374 266.708 53.344C266.536 53.0502 266.157 52.9513 265.863 53.1227C265.569 53.2946 265.47 53.6723 265.641 53.9657C265.814 54.2596 266.192 54.359 266.487 54.1871Z" fill="#F46C0F"/>
</g>
<defs>
<filter id="filter0_d_2789_18113" x="14.4326" y="77.4108" width="79.8501" height="49.0323" filterUnits="userSpaceOnUse" color-interpolation-filters="sRGB">
<feFlood flood-opacity="0" result="BackgroundImageFix"/>
<feColorMatrix in="SourceAlpha" type="matrix" values="0 0 0 0 0 0 0 0 0 0 0 0 0 0 0 0 0 0 127 0" result="hardAlpha"/>
<feOffset dy="6.48649"/>
<feGaussianBlur stdDeviation="4.54054"/>
<feComposite in2="hardAlpha" operator="out"/>
<feColorMatrix type="matrix" values="0 0 0 0 0.708333 0 0 0 0 0 0 0 0 0 0 0 0 0 0.1 0"/>
<feBlend mode="normal" in2="BackgroundImageFix" result="effect1_dropShadow_2789_18113"/>
<feBlend mode="normal" in="SourceGraphic" in2="effect1_dropShadow_2789_18113" result="shape"/>
</filter>
<clipPath id="clip0_2789_18113">
<rect width="300" height="179.189" fill="white" transform="translate(0 0.905273)"/>
</clipPath>
</defs>
</svg>
